<?xml version="1.0" standalone="no"?>
<!DOCTYPE svg PUBLIC "-//W3C//DTD SVG 1.1//EN" "http://www.w3.org/Graphics/SVG/1.1/DTD/svg11.dtd" >
<svg xmlns="http://www.w3.org/2000/svg" xmlns:xlink="http://www.w3.org/1999/xlink" version="1.1">
<metadata>
Created by FontForge 20170731 at Sat May 14 13:52:37 2022
 By Aleksey,,,
Copyright (c) 2017 by Martin Va'cha. All rights reserved.
</metadata>
<defs>
<font id="Hellix-Bold" horiz-adv-x="1214" >
  <font-face 
    font-family="Hellix"
    font-weight="700"
    font-stretch="normal"
    units-per-em="2048"
    panose-1="0 0 8 0 0 0 0 0 0 0"
    ascent="1638"
    descent="-410"
    x-height="1006"
    cap-height="1434"
    bbox="-1075 -467 2466 2370"
    underline-thickness="102"
    underline-position="-307"
    unicode-range="U+0020-25CF"
  />
<missing-glyph horiz-adv-x="2252" 
d="M1092 -418v2048q-201 -7 -384 -92t-316 -222.5t-211.5 -324t-78.5 -387.5q0 -202 78 -388t210.5 -322.5t316 -220.5t385.5 -91zM1161 1624v-2036q85 24 156.5 166.5t113.5 368t42 481.5t-42.5 482.5t-114 369.5t-155.5 168zM1538 604q0 -327 -62.5 -591t-168.5 -394
q150 56 268.5 199.5t185 349t66.5 436.5q0 229 -66.5 435t-185 351t-268.5 203q106 -131 168.5 -396.5t62.5 -592.5zM1507 -344q287 115 465 375t178 573t-179.5 574.5t-469.5 377.5q182 -145 287.5 -400t105.5 -552q0 -296 -104.5 -550.5t-282.5 -397.5z" />
    <glyph glyph-name=".notdef" horiz-adv-x="2252" 
d="M1092 -418v2048q-201 -7 -384 -92t-316 -222.5t-211.5 -324t-78.5 -387.5q0 -202 78 -388t210.5 -322.5t316 -220.5t385.5 -91zM1161 1624v-2036q85 24 156.5 166.5t113.5 368t42 481.5t-42.5 482.5t-114 369.5t-155.5 168zM1538 604q0 -327 -62.5 -591t-168.5 -394
q150 56 268.5 199.5t185 349t66.5 436.5q0 229 -66.5 435t-185 351t-268.5 203q106 -131 168.5 -396.5t62.5 -592.5zM1507 -344q287 115 465 375t178 573t-179.5 574.5t-469.5 377.5q182 -145 287.5 -400t105.5 -552q0 -296 -104.5 -550.5t-282.5 -397.5z" />
    <glyph glyph-name=".null" horiz-adv-x="0" 
 />
    <glyph glyph-name="nonmarkingreturn" horiz-adv-x="682" 
 />
    <glyph glyph-name="space" unicode=" " horiz-adv-x="417" 
 />
    <glyph glyph-name="exclam" unicode="!" horiz-adv-x="583" 
d="M137 1434h307l-8 -990h-289zM291 -20q-78 0 -132.5 53.5t-54.5 130.5q0 76 54.5 129t132.5 53q79 0 133.5 -52.5t54.5 -129.5t-54.5 -130.5t-133.5 -53.5z" />
    <glyph glyph-name="quotedbl" unicode="&#x22;" horiz-adv-x="892" 
d="M123 920l-21 514h287l-16 -514h-250zM522 920l-18 514h287l-19 -514h-250z" />
    <glyph glyph-name="numbersign" unicode="#" horiz-adv-x="1435" 
d="M1393 850h-265l-75 -264h258v-246h-326l-96 -340h-246l96 340h-250l-96 -340h-248l97 340h-201v246h268l76 264h-262v246h332l94 338h248l-95 -338h250l95 338h245l-94 -338h195v-246zM807 586l76 264h-250l-76 -264h250z" />
    <glyph glyph-name="dollar" unicode="$" 
d="M1153 426q0 -152 -105 -274.5t-288 -159.5v-238h-277v240q-135 28 -258 97.5t-194 160.5l194 221q92 -95 187 -147t213 -52q97 0 157 41t60 109q0 38 -25 67t-67 47t-96.5 33.5t-115 32t-120.5 36.5t-114.5 52t-96.5 74t-67 107.5t-25 148.5q0 154 101 268.5t267 149.5
v239h277v-241q110 -25 209.5 -79t160.5 -124l-176 -240q-79 77 -176.5 121.5t-185.5 44.5q-77 0 -124.5 -32.5t-47.5 -84.5q0 -39 25 -68t67.5 -48.5t97.5 -36t115.5 -34t121.5 -39t116 -55t97.5 -77t67.5 -110t25 -150.5z" />
    <glyph glyph-name="percent" unicode="%" horiz-adv-x="1509" 
d="M719 1141q0 -137 -88 -227.5t-221 -90.5q-132 0 -220 91t-88 227q0 135 88 224t220 89q133 0 221 -89t88 -224zM1116 1434h230l-953 -1434h-229zM532 1141q0 61 -33 99t-89 38t-88.5 -38t-32.5 -99t32.5 -99t88.5 -38t89 38t33 99zM1409 297q0 -136 -88.5 -226.5
t-220.5 -90.5t-220.5 90.5t-88.5 226.5q0 135 88.5 224t220.5 89t220.5 -89t88.5 -224zM1221 297q0 61 -32.5 98t-88.5 37t-89.5 -37t-33.5 -98t33.5 -100t89.5 -39t88.5 39t32.5 100z" />
    <glyph glyph-name="ampersand" unicode="&#x26;" horiz-adv-x="1490" 
d="M1456 0h-395l-123 133q-187 -153 -399 -153q-200 0 -334.5 118t-134.5 297q0 75 21 136t61.5 106t85 76.5t104.5 60.5q-109 140 -109 291q0 163 117 276t287 113q167 0 283 -113t116 -276q0 -68 -19.5 -123.5t-56 -97t-78.5 -71.5t-98 -58l174 -185l201 224l201 -185
l-219 -233zM496 1071q0 -38 30 -80t90 -102q77 36 117.5 78t40.5 104q0 57 -39 95t-98 38q-61 0 -101 -38t-40 -95zM547 244q109 0 213 80l-254 272q-74 -38 -113 -82t-39 -108q0 -69 57.5 -115.5t135.5 -46.5z" />
    <glyph glyph-name="quotesingle" unicode="'" horiz-adv-x="491" 
d="M123 920l-21 514h287l-16 -514h-250z" />
    <glyph glyph-name="parenleft" unicode="(" horiz-adv-x="684" 
d="M573 -467q-216 177 -339 462.5t-123 610.5t123.5 613t338.5 462l170 -190q-170 -138 -265 -375t-95 -510q0 -276 95.5 -511t264.5 -371z" />
    <glyph glyph-name="parenright" unicode=")" horiz-adv-x="684" 
d="M113 -467l-172 191q169 137 265.5 372t96.5 510q0 273 -96 510t-266 375l172 190q215 -174 337.5 -462t122.5 -613t-122.5 -610.5t-337.5 -462.5z" />
    <glyph glyph-name="asterisk" unicode="*" horiz-adv-x="1067" 
d="M969 1102l-287 -96l199 -248l-144 -121l-202 252l-205 -252l-144 121l201 248l-289 96l64 180l276 -92v285h191v-285l276 92z" />
    <glyph glyph-name="plus" unicode="+" 
d="M1112 799v-271h-369v-370h-272v370h-369v271h369v368h272v-368h369z" />
    <glyph glyph-name="comma" unicode="," horiz-adv-x="577" 
d="M473 244l-129 -520h-240l80 520h289z" />
    <glyph glyph-name="hyphen" unicode="-" horiz-adv-x="765" 
d="M51 397v271h664v-271h-664z" />
    <glyph glyph-name="period" unicode="." horiz-adv-x="583" 
d="M291 -20q-78 0 -132.5 53.5t-54.5 130.5q0 76 54.5 129t132.5 53q79 0 133.5 -52.5t54.5 -129.5t-54.5 -130.5t-133.5 -53.5z" />
    <glyph glyph-name="slash" unicode="/" horiz-adv-x="962" 
d="M10 0l631 1434h309l-631 -1434h-309z" />
    <glyph glyph-name="zero" unicode="0" horiz-adv-x="1251" 
d="M625 -20q-173 0 -300.5 92.5t-193 258.5t-65.5 386q0 221 66 387t193 258t300 92q262 0 411.5 -200.5t149.5 -536.5q0 -220 -66 -386t-193.5 -258.5t-301.5 -92.5zM625 274q120 0 184.5 110t64.5 333t-64.5 332.5t-184.5 109.5q-119 0 -183.5 -110t-64.5 -332t65 -332.5
t183 -110.5z" />
    <glyph glyph-name="one" unicode="1" horiz-adv-x="802" 
d="M694 1434v-1434h-301v1018l-319 -246v363l418 299h202z" />
    <glyph glyph-name="two" unicode="2" horiz-adv-x="1163" 
d="M90 0v217l461 451q126 122 158 161q63 83 65 162q0 72 -54 120t-136 48q-106 0 -164 -67.5t-55 -188.5l-297 15q-4 152 65.5 275.5t189 192t263.5 68.5q215 0 357 -129t142 -326q0 -137 -79.5 -256.5t-239.5 -267.5l-180 -180h504v-295h-1000z" />
    <glyph glyph-name="three" unicode="3" horiz-adv-x="1132" 
d="M313 846l273 297h-516v291h958v-199l-338 -336q163 -5 274 -126.5t111 -299.5q0 -216 -148.5 -354.5t-379.5 -138.5q-202 0 -348 115.5t-172 297.5l274 92q17 -92 86 -151.5t160 -59.5q95 0 156 58t61 149q0 62 -33 109t-84 68.5t-114.5 20t-122.5 -29.5z" />
    <glyph glyph-name="four" unicode="4" horiz-adv-x="1241" 
d="M1198 578v-283h-151v-295h-304v295h-702v188l498 951h344l-451 -856h311v329h304v-329h151z" />
    <glyph glyph-name="five" unicode="5" horiz-adv-x="1126" 
d="M553 -20q-202 0 -352 116.5t-178 296.5l280 88q23 -93 93 -150t157 -57q89 0 149 61.5t60 149.5q0 93 -59.5 153t-149.5 60q-61 0 -113 -20.5t-82 -56.5l-264 51l62 762h823v-287h-551l-27 -256q35 26 90 42.5t107 16.5q209 0 343 -127t134 -346q0 -136 -69.5 -250.5
t-189.5 -180.5t-263 -66z" />
    <glyph glyph-name="six" unicode="6" horiz-adv-x="1118" 
d="M612 958q194 0 327.5 -135t133.5 -342q0 -135 -69.5 -250.5t-188 -183t-256.5 -67.5t-256.5 67.5t-188 183t-69.5 250.5q0 74 29.5 166t85.5 182l375 605h346l-301 -478q12 2 32 2zM559 268q93 0 156 62.5t63 152.5t-65 153.5t-156 63.5q-84 0 -154 -26
q-61 -104 -61 -191q0 -90 62.5 -152.5t154.5 -62.5z" />
    <glyph glyph-name="seven" unicode="7" horiz-adv-x="1073" 
d="M31 1434h1001v-203l-588 -1231h-338l551 1141h-626v293z" />
    <glyph glyph-name="eight" unicode="8" horiz-adv-x="1105" 
d="M555 -16q-221 0 -363.5 121.5t-142.5 310.5q0 113 64.5 209.5t171.5 148.5q-82 43 -132.5 123t-50.5 166q0 169 127.5 277t325.5 108q196 0 323.5 -108.5t127.5 -276.5q0 -88 -51 -168t-134 -121q107 -48 171.5 -144.5t64.5 -213.5q0 -189 -141 -310.5t-361 -121.5z
M555 895q77 0 125 41.5t47 107.5q1 66 -47 108t-125 42t-126 -42t-48 -108q-1 -66 48 -107.5t126 -41.5zM555 252q94 0 154.5 53t60.5 137q0 83 -60.5 137t-154.5 54q-95 0 -156 -54t-61 -137q0 -84 60.5 -137t156.5 -53z" />
    <glyph glyph-name="nine" unicode="9" horiz-adv-x="1118" 
d="M559 1454q139 0 257.5 -68t187.5 -183.5t69 -250.5q0 -167 -112 -346l-377 -606h-346l303 479q-10 -2 -33 -2q-196 0 -329.5 134t-133.5 341q0 135 69.5 250.5t188 183.5t256.5 68zM717 760q59 106 59 190q0 90 -62.5 152.5t-154.5 62.5q-93 0 -156 -62.5t-63 -152.5
t65 -153.5t156 -63.5q83 0 156 27z" />
    <glyph glyph-name="colon" unicode=":" horiz-adv-x="583" 
d="M291 635q-78 0 -132.5 53.5t-54.5 130.5q0 76 54.5 129t132.5 53q79 0 133.5 -52.5t54.5 -129.5t-54.5 -130.5t-133.5 -53.5zM291 -20q-78 0 -132.5 53.5t-54.5 130.5q0 76 54.5 129t132.5 53q79 0 133.5 -52.5t54.5 -129.5t-54.5 -130.5t-133.5 -53.5z" />
    <glyph glyph-name="semicolon" unicode=";" horiz-adv-x="636" 
d="M346 600q-78 0 -132 53.5t-54 130.5t54 130t132 53q79 0 132.5 -53t53.5 -130t-53.5 -130.5t-132.5 -53.5zM473 270l-129 -520h-240l80 520h289z" />
    <glyph glyph-name="less" unicode="&#x3c;" horiz-adv-x="1097" 
d="M995 193l-893 403v221l893 404v-293l-506 -219l506 -220v-296z" />
    <glyph glyph-name="equal" unicode="=" 
d="M1112 1053v-271h-1010v271h1010zM1112 571v-272h-1010v272h1010z" />
    <glyph glyph-name="greater" unicode="&#x3e;" horiz-adv-x="1097" 
d="M102 193v296l506 220l-506 219v293l893 -404v-221z" />
    <glyph glyph-name="question" unicode="?" horiz-adv-x="1073" 
d="M541 1454q215 0 353 -121.5t138 -310.5q0 -79 -20.5 -145t-53.5 -110t-72.5 -80.5t-79.5 -64.5t-73 -54t-53.5 -58t-20.5 -68h-288q0 74 19 134t50 98.5t68 70.5t74 57.5t68 51.5t50 60.5t19 76.5q0 75 -52 121.5t-137 46.5q-96 0 -155.5 -64t-59.5 -167l-295 30
q5 216 151 356t370 140zM522 -20q-79 0 -133.5 53.5t-54.5 130.5t54.5 129.5t133.5 52.5q78 0 132.5 -53t54.5 -129q0 -77 -54.5 -130.5t-132.5 -53.5z" />
    <glyph glyph-name="at" unicode="@" horiz-adv-x="1884" 
d="M936 1327q192 0 350.5 -54t267 -151t168.5 -234t60 -300q0 -228 -98 -364t-263 -136q-166 0 -252 100q-46 -48 -121 -77t-157 -29q-161 0 -273 124t-112 302q0 180 111.5 303t273.5 123q95 0 194 -68v52h230v-420q0 -105 28.5 -151t90.5 -46t99.5 81.5t37.5 205.5
q0 234 -172 380t-463 146q-175 0 -317 -80t-223 -221.5t-81 -314.5q0 -170 78.5 -309t217 -218.5t307.5 -79.5q83 0 172.5 28.5t148.5 72.5l127 -180q-71 -57 -196 -94t-252 -37q-171 0 -322.5 62.5t-259.5 171t-171 260t-63 323.5q0 175 64 329t174.5 263.5t265.5 173
t330 63.5zM924 311q52 0 97 19t71 51q-10 57 -7 117v137q-25 32 -70 52t-91 20q-82 0 -136.5 -57t-54.5 -142q0 -83 55.5 -140t135.5 -57z" />
    <glyph glyph-name="A" unicode="A" horiz-adv-x="1411" 
d="M1069 0l-90 240h-553l-92 -240h-322l570 1434h245l572 -1434h-330zM526 500h353l-174 458z" />
    <glyph glyph-name="B" unicode="B" horiz-adv-x="1206" 
d="M109 0v1434h538q185 0 316 -112.5t131 -268.5q0 -97 -56.5 -181.5t-142.5 -113.5q115 -23 189.5 -120t74.5 -228q0 -172 -132 -291t-318 -119h-600zM412 856h221q64 0 108.5 42.5t44.5 102.5t-44 101t-109 41h-221v-287zM412 291h270q70 0 119 48.5t49 117.5t-48.5 118.5
t-115.5 49.5h-274v-334z" />
    <glyph glyph-name="C" unicode="C" horiz-adv-x="1474" 
d="M1421 379q-35 -117 -126.5 -208t-222.5 -141t-279 -50q-203 0 -369 97.5t-260 266.5t-94 373q0 154 55.5 290.5t151 234.5t230 155t286.5 57q218 0 388.5 -104.5t223.5 -268.5l-270 -129q-40 95 -131 151t-211 56q-182 0 -297 -125t-115 -317q0 -191 115.5 -317
t296.5 -126q128 0 222 63t128 169z" />
    <glyph glyph-name="D" unicode="D" horiz-adv-x="1394" 
d="M600 1434q204 0 370.5 -92t261.5 -255t95 -364q0 -205 -95 -370.5t-261.5 -259t-370.5 -93.5h-491v1434h491zM621 291q170 0 281.5 123t111.5 309q0 183 -110.5 301.5t-282.5 118.5h-209v-852h209z" />
    <glyph glyph-name="E" unicode="E" horiz-adv-x="1064" 
d="M109 1434h878v-291h-575v-258h512v-291h-512v-303h575v-291h-878v1434z" />
    <glyph glyph-name="F" unicode="F" horiz-adv-x="1042" 
d="M109 1434h878v-291h-575v-299h512v-291h-512v-553h-303v1434z" />
    <glyph glyph-name="G" unicode="G" horiz-adv-x="1495" 
d="M782 565v246h617v-549q-99 -130 -256.5 -205t-347.5 -75q-151 0 -286 58t-231 157.5t-152 236.5t-56 289q0 204 94.5 371.5t260.5 263.5t368 96q218 0 388.5 -104.5t223.5 -268.5l-270 -129q-37 94 -130.5 150.5t-211.5 56.5q-180 0 -296 -123t-116 -313q0 -195 117 -322
t297 -127q186 0 299 93v198h-312z" />
    <glyph glyph-name="H" unicode="H" horiz-adv-x="1433" 
d="M1022 1434h305v-1434h-305v596h-610v-596h-303v1434h303v-547h610v547z" />
    <glyph glyph-name="I" unicode="I" horiz-adv-x="520" 
d="M109 1434h303v-1434h-303v1434z" />
    <glyph glyph-name="J" unicode="J" horiz-adv-x="681" 
d="M66 274q12 -2 36 -2q87 0 133 46t46 151v965h305v-1047q0 -181 -111.5 -292t-281.5 -111q-85 0 -144 10z" />
    <glyph glyph-name="K" unicode="K" horiz-adv-x="1402" 
d="M1356 0h-398l-546 684v-684h-303v1434h303v-607l510 607h383l-576 -676z" />
    <glyph glyph-name="L" unicode="L" horiz-adv-x="1120" 
d="M109 1434h303v-1143h657v-291h-960v1434z" />
    <glyph glyph-name="M" unicode="M" horiz-adv-x="1767" 
d="M109 0v1434h368l426 -988l447 988h309v-1434h-303v842l-367 -842h-219l-358 842v-842h-303z" />
    <glyph glyph-name="N" unicode="N" horiz-adv-x="1361" 
d="M109 1434h258l583 -836v836h303v-1434h-254l-587 836v-836h-303v1434z" />
    <glyph glyph-name="O" unicode="O" horiz-adv-x="1601" 
d="M801 1454q206 0 374 -96t263.5 -265t95.5 -376t-95.5 -376t-263.5 -265t-374 -96t-373.5 96t-262.5 265t-95 376t95 376t262.5 265t373.5 96zM801 1159q-180 0 -300 -126.5t-120 -315.5t120 -316t300 -127t300 127t120 316t-120 315.5t-300 126.5z" />
    <glyph glyph-name="P" unicode="P" horiz-adv-x="1191" 
d="M655 1434q211 0 348.5 -130t137.5 -329q0 -201 -137.5 -333t-348.5 -132h-243v-510h-303v1434h546zM655 801q78 0 129.5 49.5t51.5 124.5q0 72 -51.5 120t-129.5 48h-243v-342h243z" />
    <glyph glyph-name="Q" unicode="Q" horiz-adv-x="1601" 
d="M1581 0h-317l-76 84q-170 -104 -387 -104q-206 0 -373.5 96t-262.5 265t-95 376t95 376t262.5 265t373.5 96t374 -96t263.5 -265t95.5 -376q0 -274 -166 -477zM801 274q100 0 180 41l-311 349h317l170 -189q64 106 64 242q0 189 -120 315.5t-300 126.5t-300 -126.5
t-120 -315.5t120 -316t300 -127z" />
    <glyph glyph-name="R" unicode="R" horiz-adv-x="1294" 
d="M1260 0h-369l-324 547h-155v-547h-303v1434h553q120 0 224 -59t166 -161.5t62 -222.5q0 -136 -61 -240t-168 -157zM412 1141v-332h219q74 0 125 48t51 120q0 69 -51 116.5t-125 47.5h-219z" />
    <glyph glyph-name="S" unicode="S" 
d="M616 1454q138 0 285 -62.5t229 -156.5l-176 -240q-79 77 -176.5 121.5t-185.5 44.5q-77 0 -124.5 -32.5t-47.5 -84.5q0 -39 25 -68t67.5 -48.5t97.5 -36t115.5 -34t121.5 -39t116 -55t97.5 -77t67.5 -110t25 -150.5q0 -86 -36 -165.5t-101.5 -142.5t-167 -100.5
t-223.5 -37.5q-165 0 -333 77.5t-261 194.5l194 221q92 -95 187 -147t213 -52q97 0 157 41t60 109q0 38 -25 67t-67 47t-96.5 33.5t-115 32t-120.5 36.5t-114.5 52t-96.5 74t-67 107.5t-25 148.5q0 185 141 308.5t360 123.5z" />
    <glyph glyph-name="T" unicode="T" horiz-adv-x="1228" 
d="M1186 1434v-291h-420v-1143h-303v1143h-418v291h1141z" />
    <glyph glyph-name="U" unicode="U" horiz-adv-x="1353" 
d="M678 -18q-162 0 -292 74t-203.5 205t-73.5 294v879h303v-879q0 -120 76 -199.5t190 -79.5t189 79.5t75 199.5v879h303v-879q0 -163 -73.5 -294t-203 -205t-290.5 -74z" />
    <glyph glyph-name="V" unicode="V" horiz-adv-x="1355" 
d="M16 1434h326l338 -938l338 938h321l-538 -1434h-244z" />
    <glyph glyph-name="W" unicode="W" horiz-adv-x="2078" 
d="M1743 1436h317l-475 -1436h-244l-301 922l-299 -922h-245l-480 1436h324l285 -924l297 924h243l297 -924z" />
    <glyph glyph-name="X" unicode="X" horiz-adv-x="1374" 
d="M1358 0h-361l-313 469l-311 -469h-357l492 737l-465 697h363l282 -426l283 426h354l-459 -693z" />
    <glyph glyph-name="Y" unicode="Y" horiz-adv-x="1394" 
d="M16 1434h371l318 -521l317 521h354l-522 -828v-606h-305v606z" />
    <glyph glyph-name="Z" unicode="Z" horiz-adv-x="1222" 
d="M92 1434h1063v-205l-690 -938h696v-291h-1110v205l692 938h-651v291z" />
    <glyph glyph-name="bracketleft" unicode="[" horiz-adv-x="729" 
d="M365 1444v-1600h303v-235h-566v2070h566v-235h-303z" />
    <glyph glyph-name="backslash" unicode="\" horiz-adv-x="956" 
d="M944 0h-309l-631 1434h309z" />
    <glyph glyph-name="bracketright" unicode="]" horiz-adv-x="739" 
d="M375 1444h-303v235h565v-2070h-565v235h303v1600z" />
    <glyph glyph-name="asciicircum" unicode="^" horiz-adv-x="1232" 
d="M1130 561h-294l-220 506l-221 -506h-293l404 893h221z" />
    <glyph glyph-name="underscore" unicode="_" horiz-adv-x="1247" 
d="M41 -291v271h1165v-271h-1165z" />
    <glyph glyph-name="grave" unicode="`" horiz-adv-x="720" 
d="M102 1436h342l174 -320h-266z" />
    <glyph glyph-name="a" unicode="a" 
d="M825 1006h289v-1006h-289v119q-37 -62 -119.5 -100.5t-177.5 -38.5q-129 0 -237 70t-170 190.5t-62 263.5q0 218 136.5 370t332.5 152q94 0 177 -39t120 -100v119zM592 254q73 0 136.5 35t96.5 90v246q-33 57 -96.5 93t-136.5 36q-106 0 -178 -71.5t-72 -178.5t72 -178.5
t178 -71.5z" />
    <glyph glyph-name="b" unicode="b" 
d="M688 1026q129 0 236.5 -69.5t169 -189.5t61.5 -263t-61.5 -263.5t-169 -190.5t-236.5 -70q-95 0 -177.5 38.5t-119.5 100.5v-119h-289v1434h289v-547q37 62 119.5 100.5t177.5 38.5zM625 254q105 0 176 71.5t71 178.5t-71 178.5t-176 71.5q-75 0 -138 -36t-96 -93v-246
q33 -55 96.5 -90t137.5 -35z" />
    <glyph glyph-name="c" unicode="c" horiz-adv-x="1099" 
d="M1061 268q-57 -131 -185 -209.5t-288 -78.5q-226 0 -377.5 149t-151.5 373t151.5 374t377.5 150q146 0 263.5 -67t178.5 -181l-244 -139q-28 52 -80.5 81.5t-117.5 29.5q-107 0 -176.5 -71t-69.5 -177q0 -105 69.5 -175.5t176.5 -70.5q73 0 130.5 33.5t86.5 93.5z" />
    <glyph glyph-name="d" unicode="d" 
d="M825 1434h289v-1434h-289v119q-37 -62 -119.5 -100.5t-177.5 -38.5q-129 0 -237 70t-170 190.5t-62 263.5q0 218 136.5 370t332.5 152q94 0 177 -39t120 -100v547zM592 254q73 0 136.5 35t96.5 90v246q-33 57 -96.5 93t-136.5 36q-106 0 -178 -71.5t-72 -178.5t72 -178.5
t178 -71.5z" />
    <glyph glyph-name="e" unicode="e" horiz-adv-x="1126" 
d="M1067 547q0 -61 -8 -113h-723q20 -102 87 -155.5t171 -53.5q68 0 130.5 29t88.5 74l225 -138q-55 -100 -174 -155t-276 -55q-222 0 -375.5 152.5t-153.5 375.5q0 219 151.5 368.5t371.5 149.5q204 0 344.5 -139t140.5 -340zM340 618h438q-9 75 -70 125t-141 50
q-90 0 -148 -46t-79 -129z" />
    <glyph glyph-name="f" unicode="f" horiz-adv-x="778" 
d="M494 1065v-59h247v-275h-247v-731h-289v731h-187v275h187v73q0 192 110.5 301t290.5 109q84 0 148 -31l-15 -254q-50 15 -90 15q-65 0 -110 -43t-45 -111z" />
    <glyph glyph-name="g" unicode="g" 
d="M825 1008h289v-965q0 -138 -68.5 -243t-184.5 -159.5t-261 -54.5q-132 0 -261.5 43.5t-199.5 116.5l137 201q129 -103 316 -103q94 0 163.5 58t69.5 147v96q-37 -59 -120 -97t-177 -38q-129 0 -237 68t-170 185.5t-62 256.5q0 138 62 255t170 185t237 68q94 0 177 -38.5
t120 -98.5v117zM592 276q73 0 136.5 34.5t96.5 88.5v238q-33 55 -96.5 90t-136.5 35q-106 0 -178 -69.5t-72 -172.5q0 -104 72 -174t178 -70z" />
    <glyph glyph-name="h" unicode="h" horiz-adv-x="1175" 
d="M664 1026q190 0 299.5 -122.5t109.5 -334.5v-569h-289v520q0 103 -52 161t-142 58q-60 0 -113.5 -30.5t-85.5 -81.5v-627h-289v1434h289v-545q43 63 116 100t157 37z" />
    <glyph glyph-name="i" unicode="i" horiz-adv-x="493" 
d="M246 1493q72 0 124 -51.5t52 -122.5q0 -72 -52 -124t-124 -52t-124 52t-52 124q0 71 52 122.5t124 51.5zM102 1006h289v-1006h-289v1006z" />
    <glyph glyph-name="j" unicode="j" horiz-adv-x="493" 
d="M246 1493q72 0 124 -51.5t52 -122.5q0 -72 -52 -124t-124 -52t-124 52t-52 124q0 71 52 122.5t124 51.5zM-45 -125q24 -4 35 -4q52 0 82 32t30 95v1008h289v-1037q0 -167 -101.5 -263.5t-275.5 -96.5q-41 0 -82 8z" />
    <glyph glyph-name="k" unicode="k" horiz-adv-x="1140" 
d="M1126 0h-370l-365 451v-451h-289v1434h289v-844l348 416h355l-418 -486z" />
    <glyph glyph-name="l" unicode="l" horiz-adv-x="493" 
d="M391 1434v-1434h-289v1434h289z" />
    <glyph glyph-name="m" unicode="m" horiz-adv-x="1777" 
d="M1266 1026q181 0 296 -110.5t115 -290.5v-625h-291v565q0 90 -47 142.5t-127 52.5q-53 0 -103 -30.5t-77 -76.5v-653h-289v565q0 89 -47.5 142t-120.5 53q-62 0 -111 -31t-73 -82v-647h-289v1006h289v-115q40 57 114 96t173 39q194 0 280 -141q50 59 132 100t176 41z" />
    <glyph glyph-name="n" unicode="n" horiz-adv-x="1175" 
d="M666 1026q190 0 299.5 -122.5t109.5 -334.5v-569h-289v520q0 103 -52 161t-142 58q-60 0 -115 -31t-86 -83v-625h-289v1006h289v-119q41 64 115.5 101.5t159.5 37.5z" />
    <glyph glyph-name="o" unicode="o" horiz-adv-x="1163" 
d="M582 1026q109 0 205.5 -40t166 -109.5t110 -167t40.5 -207.5q0 -147 -68.5 -267t-188 -187.5t-265.5 -67.5q-223 0 -373 149t-150 373t150 374t373 150zM582 750q-103 0 -171.5 -70.5t-68.5 -177.5q0 -104 68.5 -175t171.5 -71q101 0 170 71t69 175q0 107 -68.5 177.5
t-170.5 70.5z" />
    <glyph glyph-name="p" unicode="p" 
d="M688 1026q129 0 236.5 -69.5t169 -189.5t61.5 -263t-61.5 -263.5t-169 -190.5t-236.5 -70q-95 0 -177.5 38.5t-119.5 100.5v-451h-289v1338h289v-119q37 62 119.5 100.5t177.5 38.5zM625 254q105 0 176 71.5t71 178.5q0 106 -71.5 178t-175.5 72q-73 0 -137 -35.5
t-97 -91.5v-246q33 -57 96 -92t138 -35z" />
    <glyph glyph-name="q" unicode="q" 
d="M825 1006h289v-1338h-289v451q-37 -61 -120 -100t-177 -39q-129 0 -237 70t-170 190.5t-62 263.5q0 218 136.5 370t332.5 152q95 0 177.5 -38.5t119.5 -100.5v119zM592 254q74 0 137 35t96 92v246q-33 56 -96.5 91.5t-136.5 35.5q-106 0 -178 -72t-72 -178
q0 -107 72 -178.5t178 -71.5z" />
    <glyph glyph-name="r" unicode="r" horiz-adv-x="792" 
d="M633 1026q77 0 123 -18l-17 -271q-64 23 -129 23q-54 0 -119.5 -41.5t-99.5 -110.5v-608h-289v1006h289v-119q35 62 105.5 100.5t136.5 38.5z" />
    <glyph glyph-name="s" unicode="s" horiz-adv-x="950" 
d="M500 -20q-274 0 -451 126l86 201q142 -106 340 -106q67 0 107.5 23t40.5 59q0 31 -30.5 51.5t-78.5 32.5t-106 24.5t-116 33t-106 51t-78.5 86t-31.5 130.5q-2 142 112 238t291 96q239 0 383 -115l-82 -209q-60 45 -146.5 75t-166.5 30q-55 0 -89 -23t-34 -57
q0 -26 24 -45.5t62.5 -31.5t88 -26.5t100.5 -28.5t100.5 -39t88.5 -56.5t63.5 -82.5t25.5 -116q0 -140 -111.5 -230.5t-285.5 -90.5z" />
    <glyph glyph-name="t" unicode="t" horiz-adv-x="811" 
d="M739 268l15 -256q-58 -28 -148 -28q-180 0 -290.5 108.5t-110.5 300.5v338h-187v275h187v264h289v-264h247v-275h-247v-323q0 -69 45 -111.5t110 -42.5q50 0 90 14z" />
    <glyph glyph-name="u" unicode="u" horiz-adv-x="1175" 
d="M786 1006h289v-1006h-289v119q-43 -64 -116.5 -101.5t-157.5 -37.5q-191 0 -300.5 122t-109.5 336v568h289v-521q0 -103 52.5 -160t142.5 -57q59 0 113.5 30.5t86.5 82.5v625z" />
    <glyph glyph-name="v" unicode="v" horiz-adv-x="1112" 
d="M1096 1006l-416 -1006h-246l-418 1006h314l227 -613l223 613h316z" />
    <glyph glyph-name="w" unicode="w" horiz-adv-x="1615" 
d="M379 0l-363 1006h310l168 -551l198 551h228l202 -551l166 551h311l-362 -1006h-227l-203 551l-205 -551h-223z" />
    <glyph glyph-name="x" unicode="x" horiz-adv-x="1120" 
d="M1096 0h-348l-191 272l-190 -272h-344l362 518l-340 488h348l166 -238l168 238h344l-340 -486z" />
    <glyph glyph-name="y" unicode="y" horiz-adv-x="1101" 
d="M774 1006h311l-559 -1340h-309l186 416l-387 924h312l223 -588z" />
    <glyph glyph-name="z" unicode="z" horiz-adv-x="1032" 
d="M954 1006v-205l-487 -525h494v-276h-914v205l490 526h-453v275h870z" />
    <glyph glyph-name="braceleft" unicode="{" horiz-adv-x="909" 
d="M702 -391q-213 0 -335.5 126t-122.5 347v272q0 65 -54.5 119t-148.5 80v182q95 26 149 80.5t54 120.5v270q0 219 122.5 345t335.5 128h146v-235h-146q-93 0 -151.5 -65.5t-58.5 -172.5v-250q0 -96 -43.5 -175t-118.5 -136q162 -125 162 -313v-250q0 -107 58.5 -172.5
t151.5 -65.5h146v-235h-146z" />
    <glyph glyph-name="bar" unicode="|" horiz-adv-x="507" 
d="M102 1638h304v-1972h-304v1972z" />
    <glyph glyph-name="braceright" unicode="}" horiz-adv-x="909" 
d="M209 -391h-146v235h146q93 0 152 66t59 172v250q0 190 160 313q-160 120 -160 311v250q0 106 -59 172t-152 66h-146v235h146q211 -2 334 -128t123 -345v-270q0 -67 54 -121t148 -80v-182q-94 -26 -148 -80t-54 -119v-272q0 -220 -123 -346.5t-334 -126.5z" />
    <glyph glyph-name="asciitilde" unicode="~" horiz-adv-x="1228" 
d="M346 440l-244 31q22 176 104.5 271.5t209.5 95.5q66 0 139.5 -30t133 -59.5t91.5 -29.5q78 0 99 145l249 -30q-28 -174 -112 -271.5t-207 -97.5q-51 0 -107.5 18.5t-96 41t-83.5 41t-73 18.5q-78 0 -103 -144z" />
    <glyph glyph-name="uni00A0" unicode="&#xa0;" horiz-adv-x="417" 
 />
    <glyph glyph-name="exclamdown" unicode="&#xa1;" horiz-adv-x="583" 
d="M291 1454q79 0 133.5 -53.5t54.5 -130.5t-54.5 -130t-133.5 -53q-78 0 -132.5 53.5t-54.5 129.5q0 77 54.5 130.5t132.5 53.5zM137 0l10 991h289l8 -991h-307z" />
    <glyph glyph-name="cent" unicode="&#xa2;" horiz-adv-x="1099" 
d="M1061 268q-44 -102 -134.5 -174t-209.5 -100v-240h-289v248q-166 48 -267.5 183.5t-101.5 316.5t101.5 317.5t267.5 184.5v249h289v-241q104 -25 185.5 -86t127.5 -148l-244 -139q-28 52 -80.5 81.5t-117.5 29.5q-107 0 -176.5 -71t-69.5 -177q0 -105 69.5 -175.5
t176.5 -70.5q73 0 130.5 33.5t86.5 93.5z" />
    <glyph glyph-name="sterling" unicode="&#xa3;" horiz-adv-x="1263" 
d="M575 561q0 -74 -34.5 -144.5t-98.5 -125.5h707v-291h-1040v291q78 44 120.5 113t42.5 151v37h-159v244h159v139q0 214 126 346.5t341 132.5q183 0 315 -102t154 -254l-290 -92q-10 68 -59.5 109.5t-110.5 41.5q-87 0 -130 -62.5t-43 -174.5v-84h314v-244h-314v-31z" />
    <glyph glyph-name="currency" unicode="&#xa4;" horiz-adv-x="1650" 
d="M1440 727q0 -162 -84 -305l192 -193l-221 -223l-194 195q-134 -86 -304 -86q-165 0 -309 88l-196 -197l-222 223l195 195q-86 143 -86 303q0 164 86 307l-195 195l222 223l196 -197q139 88 309 88t304 -86l194 195l221 -223l-192 -193q84 -143 84 -309zM829 401
q135 0 229.5 95t94.5 231q0 138 -94.5 234t-229.5 96q-137 0 -234 -97t-97 -233q0 -134 97.5 -230t233.5 -96z" />
    <glyph glyph-name="yen" unicode="&#xa5;" horiz-adv-x="1394" 
d="M1376 1434l-401 -635h256v-244h-377v-555h-305v555h-385v244h262l-410 635h371l318 -521l317 521h354z" />
    <glyph glyph-name="brokenbar" unicode="&#xa6;" horiz-adv-x="507" 
d="M102 858v780h304v-780h-304zM102 -334v783h304v-783h-304z" />
    <glyph glyph-name="section" unicode="&#xa7;" horiz-adv-x="1318" 
d="M1206 487q0 -127 -86 -239q86 -89 86 -240q0 -80 -36 -154t-100.5 -133t-164.5 -94t-219 -35q-165 0 -326 73.5t-251 182.5l182 207q88 -90 182 -139t213 -49q101 0 164 38.5t63 98.5q0 38 -25 66t-67 45.5t-96.5 31.5t-114.5 28.5t-120.5 32.5t-115 47t-96.5 68
t-67 100.5t-25 139.5q0 134 86 240q-86 89 -86 235q0 173 139 290.5t351 117.5q135 0 279.5 -59.5t220.5 -147.5l-164 -223q-75 72 -172 113.5t-187 41.5q-80 0 -131 -31.5t-51 -80.5q0 -41 31.5 -71t83.5 -46.5t118 -35t134.5 -35t134.5 -47.5t118 -71.5t83.5 -108.5
t31.5 -157zM459 569q0 -32 17.5 -56t43.5 -39.5t70.5 -29t83 -21.5t96.5 -20.5t98 -23.5q60 60 60 125q0 36 -21 61.5t-66.5 42t-87 26t-113 23t-114.5 23.5q-67 -44 -67 -111z" />
    <glyph glyph-name="dieresis" unicode="&#xa8;" horiz-adv-x="989" 
d="M279 1493q72 0 124 -51.5t52 -122.5q0 -72 -52 -124t-124 -52t-124.5 52t-52.5 124q0 71 52.5 122.5t124.5 51.5zM711 1493q72 0 124 -51.5t52 -122.5q0 -72 -52 -124t-124 -52t-124 52t-52 124q0 71 52 122.5t124 51.5z" />
    <glyph glyph-name="copyright" unicode="&#xa9;" horiz-adv-x="1613" 
d="M805 -20q-198 0 -367.5 99t-268.5 268.5t-99 369.5t99 369.5t268.5 268.5t367.5 99q201 0 371 -99t269 -268.5t99 -369.5t-99 -369.5t-269 -268.5t-371 -99zM807 94q167 0 309.5 84t225.5 227.5t83 311.5t-83 311.5t-225.5 227t-309.5 83.5q-125 0 -239.5 -49.5
t-197.5 -133t-132.5 -198.5t-49.5 -241q0 -168 83 -311.5t226 -227.5t310 -84zM1163 532q-28 -98 -126.5 -160.5t-223.5 -62.5q-171 0 -288 120t-117 292t117 292t288 120q123 0 218.5 -59.5t123.5 -151.5l-160 -76q-21 51 -69 81.5t-113 30.5q-98 0 -159.5 -67t-61.5 -170
q0 -102 62 -170t159 -68q69 0 119 34t69 91z" />
    <glyph glyph-name="ordfeminine" unicode="&#xaa;" horiz-adv-x="710" 
d="M469 1442h182v-604h-182v43q-22 -25 -64 -40.5t-88 -15.5q-118 0 -200 91.5t-82 222.5t82 223t200 92q44 0 86.5 -16.5t65.5 -42.5v47zM352 999q35 0 67 15t50 39v170q-17 26 -50.5 41.5t-66.5 15.5q-59 0 -100 -40.5t-41 -100.5t41 -100t100 -40z" />
    <glyph glyph-name="guillemotleft" unicode="&#xab;" horiz-adv-x="1458" 
d="M684 82l-584 403v189l584 405v-295l-317 -204l317 -199v-299zM1350 82l-584 403v189l584 405v-295l-318 -204l318 -199v-299z" />
    <glyph glyph-name="logicalnot" unicode="&#xac;" horiz-adv-x="1198" 
d="M1096 788v-706h-273v436h-721v270h994z" />
    <glyph glyph-name="uni00AD" unicode="&#xad;" horiz-adv-x="765" 
d="M51 397v271h664v-271h-664z" />
    <glyph glyph-name="registered" unicode="&#xae;" horiz-adv-x="1613" 
d="M805 1454q201 0 371 -99t269 -268.5t99 -369.5t-99 -369.5t-269 -268.5t-371 -99q-198 0 -367.5 99t-268.5 268.5t-99 369.5t99 369.5t268.5 268.5t367.5 99zM807 94q167 0 309.5 84t225.5 227.5t83 311.5t-83 311.5t-225.5 227t-309.5 83.5q-125 0 -239.5 -49.5
t-197.5 -133t-132.5 -198.5t-49.5 -241q0 -168 83 -311.5t226 -227.5t310 -84zM1090 870q0 -75 -32.5 -132t-90.5 -87l209 -329h-215l-179 301h-77v-301h-181v798h312q102 0 178 -73.5t76 -176.5zM702 948l3 -155h126q32 0 55 22.5t23 54.5q0 33 -22.5 55.5t-55.5 22.5h-129
z" />
    <glyph glyph-name="macron" unicode="&#xaf;" horiz-adv-x="860" 
d="M102 1126v232h656v-232h-656z" />
    <glyph glyph-name="degree" unicode="&#xb0;" horiz-adv-x="845" 
d="M737 1143q0 -132 -92.5 -226t-222.5 -94t-223 94t-93 226q0 128 93 219.5t223 91.5t222.5 -91.5t92.5 -219.5zM559 1143q0 56 -40 95.5t-97 39.5t-97 -39.5t-40 -95.5q0 -58 40 -98.5t97 -40.5t97 40.5t40 98.5z" />
    <glyph glyph-name="plusminus" unicode="&#xb1;" 
d="M743 1055h369v-271h-369v-370h-272v370h-369v271h369v370h272v-370zM102 0v270h1010v-270h-1010z" />
    <glyph glyph-name="uni00B2" unicode="&#xb2;" horiz-adv-x="681" 
d="M37 573v138l270 264q88 84 106 110q27 37 27 80q0 40 -30 67.5t-74 27.5q-60 0 -95 -42t-26 -114l-195 14q-4 140 88.5 234t225.5 94q131 0 217 -78.5t86 -198.5q0 -84 -49 -157.5t-146 -157.5l-90 -94h287v-187h-602z" />
    <glyph glyph-name="uni00B3" unicode="&#xb3;" horiz-adv-x="681" 
d="M186 1083l154 168h-299v183h577v-125l-194 -193q95 -5 160 -78.5t65 -177.5q0 -130 -89.5 -214.5t-227.5 -84.5q-126 0 -214 71.5t-102 180.5l174 57q7 -53 48 -87.5t94 -34.5t87 32.5t34 83.5q0 48 -33 79.5t-79 34.5t-95 -17z" />
    <glyph glyph-name="acute" unicode="&#xb4;" horiz-adv-x="720" 
d="M618 1436l-249 -320h-267l177 320h339z" />
    <glyph glyph-name="uni00B5" unicode="&#xb5;" horiz-adv-x="1175" 
d="M786 1006h289v-1006h-289v119q-43 -64 -116.5 -101.5t-157.5 -37.5q-69 0 -121 14v-328h-289v1340h289v-521q0 -103 52.5 -160t142.5 -57q59 0 113.5 30.5t86.5 82.5v625z" />
    <glyph glyph-name="paragraph" unicode="&#xb6;" horiz-adv-x="1630" 
d="M1587 1434v-291h-203v-1477h-274v1477h-195v-1477h-274v844h-96q-213 0 -352.5 131.5t-139.5 331.5t137.5 330.5t348.5 130.5h1048zM641 801v342h-111q-74 0 -124 -49t-50 -121t50.5 -122t123.5 -50h111z" />
    <glyph glyph-name="periodcentered" unicode="&#xb7;" horiz-adv-x="583" 
d="M291 432q-78 0 -132.5 53.5t-54.5 130.5q0 76 54.5 129.5t132.5 53.5q79 0 133.5 -53t54.5 -130t-54.5 -130.5t-133.5 -53.5z" />
    <glyph glyph-name="cedilla" unicode="&#xb8;" horiz-adv-x="634" 
d="M188 49h218q61 -62 92.5 -127t33 -122t-23 -107t-70.5 -83.5t-115.5 -50t-152.5 -8.5l-68 205q97 -1 150.5 25t58.5 68.5t-26.5 95.5t-96.5 104z" />
    <glyph glyph-name="uni00B9" unicode="&#xb9;" horiz-adv-x="430" 
d="M369 1434v-861h-193v609l-158 -92v217l222 127h129z" />
    <glyph glyph-name="ordmasculine" unicode="&#xba;" horiz-adv-x="692" 
d="M346 1454q132 0 222.5 -90t90.5 -225q0 -134 -90 -224t-223 -90q-134 0 -222.5 89.5t-88.5 224.5t89 225t222 90zM346 1278q-57 0 -96 -39.5t-39 -99.5t39 -100t96 -40q58 0 96.5 40t38.5 100t-38.5 99.5t-96.5 39.5z" />
    <glyph glyph-name="guillemotright" unicode="&#xbb;" horiz-adv-x="1458" 
d="M109 82v299l319 199l-319 204v295l585 -405v-189zM774 82v299l320 199l-320 204v295l586 -405v-189z" />
    <glyph glyph-name="onequarter" unicode="&#xbc;" horiz-adv-x="1622" 
d="M176 573v609l-158 -92v217l222 127h129v-861h-193zM1065 1434h229l-952 -1434h-229zM1597 352v-176h-88v-176h-192v176h-420v117l297 567h217l-266 -508h172v191h192v-191h88z" />
    <glyph glyph-name="onehalf" unicode="&#xbd;" horiz-adv-x="1603" 
d="M369 1434v-861h-193v609l-158 -92v217l222 127h129zM1065 1434h229l-952 -1434h-229zM989 0v137l271 264q48 46 63.5 61.5t37 42t27 44.5t5.5 43q0 40 -30.5 67t-74.5 27q-60 0 -95 -42t-26 -114l-194 15q-4 140 88 233.5t225 93.5q131 0 217 -78t86 -198
q0 -84 -49 -157.5t-145 -157.5l-90 -95h286v-186h-602z" />
    <glyph glyph-name="threequarters" unicode="&#xbe;" horiz-adv-x="1847" 
d="M649 860q0 -130 -89.5 -214.5t-227.5 -84.5q-126 0 -214 71.5t-102 180.5l174 57q7 -53 48 -87.5t94 -34.5t87 32.5t34 83.5q0 48 -33 79.5t-79 34.5t-95 -17l-60 122l154 168h-299v183h577v-125l-194 -193q95 -5 160 -78.5t65 -177.5zM1292 1434h230l-953 -1434h-229z
M1823 352v-176h-88v-176h-193v176h-420v117l297 567h217l-266 -508h172v191h193v-191h88z" />
    <glyph glyph-name="questiondown" unicode="&#xbf;" horiz-adv-x="1064" 
d="M545 1454q78 0 132 -53.5t54 -130.5t-54 -130t-132 -53q-79 0 -133 53t-54 130t54 130.5t133 53.5zM524 -20q-215 0 -352 121.5t-137 310.5q0 80 20.5 146t53 110t72.5 80t79.5 64t72.5 54t54 57.5t21 67.5h286q0 -74 -19 -134t-50 -98.5t-68 -70.5t-74 -57.5t-68 -51.5
t-50 -60.5t-19 -76.5q0 -75 52 -121.5t137 -46.5q96 0 155.5 64.5t59.5 167.5l294 -29q-5 -217 -150.5 -357t-369.5 -140z" />
    <glyph glyph-name="Agrave" unicode="&#xc0;" horiz-adv-x="1411" 
d="M864 1544h-266l-250 320h340zM1069 0l-90 240h-553l-92 -240h-322l570 1434h245l572 -1434h-330zM526 500h353l-174 458z" />
    <glyph glyph-name="Aacute" unicode="&#xc1;" horiz-adv-x="1411" 
d="M1077 1864l-250 -320h-266l176 320h340zM1069 0l-90 240h-553l-92 -240h-322l570 1434h245l572 -1434h-330zM526 500h353l-174 458z" />
    <glyph glyph-name="Acircumflex" unicode="&#xc2;" horiz-adv-x="1411" 
d="M707 1692l-101 -142h-256l199 320h315l201 -320h-256zM1069 0l-90 240h-553l-92 -240h-322l570 1434h245l572 -1434h-330zM526 500h353l-174 458z" />
    <glyph glyph-name="Atilde" unicode="&#xc3;" horiz-adv-x="1411" 
d="M567 1647q-29 0 -47 -28.5t-16 -72.5l-234 41q12 135 90 220t185 85q59 0 120.5 -27t106.5 -54t66 -27q32 0 51.5 26.5t21.5 71.5l234 -39q-15 -135 -94 -221t-183 -86q-63 0 -124.5 28t-107 55.5t-69.5 27.5zM1069 0l-90 240h-553l-92 -240h-322l570 1434h245l572 -1434
h-330zM526 500h353l-174 458z" />
    <glyph glyph-name="Adieresis" unicode="&#xc4;" horiz-adv-x="1411" 
d="M492 1536q-72 0 -124.5 52t-52.5 124q0 71 52.5 122.5t124.5 51.5t124 -51.5t52 -122.5q0 -72 -52 -124t-124 -52zM922 1536q-71 0 -124 52t-53 124q0 70 53 122t124 52q72 0 124 -51.5t52 -122.5q0 -72 -52 -124t-124 -52zM1069 0l-90 240h-553l-92 -240h-322l570 1434
h245l572 -1434h-330zM526 500h353l-174 458z" />
    <glyph glyph-name="Aring" unicode="&#xc5;" horiz-adv-x="1411" 
d="M709 1532q-124 0 -207.5 80.5t-83.5 199.5q0 120 83.5 201.5t207.5 81.5t208 -81.5t84 -201.5q0 -119 -84 -199.5t-208 -80.5zM709 1927q-50 0 -83.5 -33t-33.5 -82q0 -47 34 -79.5t83 -32.5t82.5 32.5t33.5 79.5q0 49 -33 82t-83 33zM1069 0l-90 240h-553l-92 -240h-322
l570 1434h245l572 -1434h-330zM526 500h353l-174 458z" />
    <glyph glyph-name="AE" unicode="&#xc6;" horiz-adv-x="1927" 
d="M1849 1143h-565v-258h504v-291h-504v-303h565v-291h-864v305h-465l-164 -305h-344l803 1434h1034v-291zM664 575h321v603z" />
    <glyph glyph-name="Ccedilla" unicode="&#xc7;" horiz-adv-x="1474" 
d="M1421 379q-45 -157 -193 -264t-343 -129q62 -86 69 -171t-33.5 -146t-126.5 -95t-200 -23l-68 205q111 -2 164 31.5t47 86.5t-59 114q-265 40 -436.5 244.5t-171.5 484.5q0 154 55.5 290.5t151 234.5t230 155t286.5 57q218 0 388.5 -104.5t223.5 -268.5l-270 -129
q-40 95 -131 151t-211 56q-182 0 -297 -125t-115 -317q0 -191 115.5 -317t296.5 -126q128 0 222 63t128 169z" />
    <glyph glyph-name="Egrave" unicode="&#xc8;" horiz-adv-x="1064" 
d="M201 1864h340l176 -320h-266zM109 1434h878v-291h-575v-258h512v-291h-512v-303h575v-291h-878v1434z" />
    <glyph glyph-name="Eacute" unicode="&#xc9;" horiz-adv-x="1064" 
d="M932 1864l-250 -320h-266l176 320h340zM109 1434h878v-291h-575v-258h512v-291h-512v-303h575v-291h-878v1434z" />
    <glyph glyph-name="Ecircumflex" unicode="&#xca;" horiz-adv-x="1064" 
d="M561 1692l-100 -142h-256l198 320h316l201 -320h-256zM987 1143h-575v-258h512v-291h-512v-303h575v-291h-878v1434h878v-291z" />
    <glyph glyph-name="Edieresis" unicode="&#xcb;" horiz-adv-x="1064" 
d="M346 1886q72 0 124 -51.5t52 -122.5q0 -72 -52 -124t-124 -52t-124 52t-52 124q0 71 52 122.5t124 51.5zM776 1886q72 0 124 -51.5t52 -122.5q0 -72 -52 -124t-124 -52q-71 0 -123.5 52t-52.5 124q0 70 52.5 122t123.5 52zM109 1434h878v-291h-575v-258h512v-291h-512
v-303h575v-291h-878v1434z" />
    <glyph glyph-name="Igrave" unicode="&#xcc;" horiz-adv-x="520" 
d="M-102 1864h342l176 -320h-266zM109 1434h303v-1434h-303v1434z" />
    <glyph glyph-name="Iacute" unicode="&#xcd;" horiz-adv-x="520" 
d="M631 1864l-250 -320h-266l176 320h340zM109 1434h303v-1434h-303v1434z" />
    <glyph glyph-name="Icircumflex" unicode="&#xce;" horiz-adv-x="520" 
d="M258 1692l-100 -142h-256l198 320h316l200 -320h-256zM109 0v1434h303v-1434h-303z" />
    <glyph glyph-name="Idieresis" unicode="&#xcf;" horiz-adv-x="520" 
d="M45 1886q72 0 124 -51.5t52 -122.5q0 -72 -52 -124t-124 -52t-124 52t-52 124q0 71 52 122.5t124 51.5zM475 1886q72 0 124 -51.5t52 -122.5q0 -72 -52 -124t-124 -52q-71 0 -123.5 52t-52.5 124q0 70 52.5 122t123.5 52zM109 1434h303v-1434h-303v1434z" />
    <glyph glyph-name="Eth" unicode="&#xd0;" horiz-adv-x="1394" 
d="M600 1434q204 0 370.5 -92t261.5 -255t95 -364q0 -205 -95 -370.5t-261.5 -259t-370.5 -93.5h-491v627h-177v192h177v615h491zM621 291q170 0 281.5 123t111.5 309q0 183 -110.5 301.5t-282.5 118.5h-209v-324h206v-192h-206v-336h209z" />
    <glyph glyph-name="Ntilde" unicode="&#xd1;" horiz-adv-x="1361" 
d="M250 1587q12 135 89.5 220t184.5 85q59 0 120.5 -27t106.5 -54t66 -27q32 0 52 27t22 71l233 -39q-15 -135 -93.5 -221t-182.5 -86q-63 0 -124.5 28t-107 55.5t-69.5 27.5q-29 0 -47 -28.5t-17 -72.5zM109 1434h258l583 -836v836h303v-1434h-254l-587 836v-836h-303v1434
z" />
    <glyph glyph-name="Ograve" unicode="&#xd2;" horiz-adv-x="1601" 
d="M440 1864h340l176 -320h-266zM801 1454q206 0 374 -96t263.5 -265t95.5 -376t-95.5 -376t-263.5 -265t-374 -96t-373.5 96t-262.5 265t-95 376t95 376t262.5 265t373.5 96zM801 1159q-180 0 -300 -126.5t-120 -315.5t120 -316t300 -127t300 127t120 316t-120 315.5
t-300 126.5z" />
    <glyph glyph-name="Oacute" unicode="&#xd3;" horiz-adv-x="1601" 
d="M1171 1864l-249 -320h-267l176 320h340zM801 1454q206 0 374 -96t263.5 -265t95.5 -376t-95.5 -376t-263.5 -265t-374 -96t-373.5 96t-262.5 265t-95 376t95 376t262.5 265t373.5 96zM801 1159q-180 0 -300 -126.5t-120 -315.5t120 -316t300 -127t300 127t120 316
t-120 315.5t-300 126.5z" />
    <glyph glyph-name="Ocircumflex" unicode="&#xd4;" horiz-adv-x="1601" 
d="M801 1692l-101 -142h-256l199 320h315l201 -320h-256zM801 1454q206 0 374 -96t263.5 -265t95.5 -376t-95.5 -376t-263.5 -265t-374 -96t-373.5 96t-262.5 265t-95 376t95 376t262.5 265t373.5 96zM801 274q180 0 300 127t120 316t-120 315.5t-300 126.5t-300 -126.5
t-120 -315.5t120 -316t300 -127z" />
    <glyph glyph-name="Otilde" unicode="&#xd5;" horiz-adv-x="1601" 
d="M365 1587q12 135 89.5 220t184.5 85q59 0 120.5 -27t106.5 -54t66 -27q32 0 52 27t22 71l233 -39q-15 -135 -93.5 -221t-182.5 -86q-63 0 -124.5 28t-107 55.5t-69.5 27.5q-29 0 -47 -28.5t-17 -72.5zM801 1454q206 0 374 -96t263.5 -265t95.5 -376t-95.5 -376
t-263.5 -265t-374 -96t-373.5 96t-262.5 265t-95 376t95 376t262.5 265t373.5 96zM801 1159q-180 0 -300 -126.5t-120 -315.5t120 -316t300 -127t300 127t120 316t-120 315.5t-300 126.5z" />
    <glyph glyph-name="Odieresis" unicode="&#xd6;" horiz-adv-x="1601" 
d="M586 1886q72 0 124 -51.5t52 -122.5q0 -72 -52 -124t-124 -52t-124 52t-52 124q0 71 52 122.5t124 51.5zM1016 1886q72 0 124 -51.5t52 -122.5q0 -72 -52 -124t-124 -52q-71 0 -123.5 52t-52.5 124q0 70 52.5 122t123.5 52zM801 1454q206 0 374 -96t263.5 -265t95.5 -376
t-95.5 -376t-263.5 -265t-374 -96t-373.5 96t-262.5 265t-95 376t95 376t262.5 265t373.5 96zM801 1159q-180 0 -300 -126.5t-120 -315.5t120 -316t300 -127t300 127t120 316t-120 315.5t-300 126.5z" />
    <glyph glyph-name="multiply" unicode="&#xd7;" horiz-adv-x="1165" 
d="M1063 969l-289 -289l289 -289l-191 -192l-288 288l-289 -288l-193 192l287 289l-287 287l193 192l287 -287l288 289z" />
    <glyph glyph-name="Oslash" unicode="&#xd8;" horiz-adv-x="1601" 
d="M801 1454q206 0 374 -96t263.5 -265t95.5 -376t-95.5 -376t-263.5 -265t-374 -96t-373.5 96t-262.5 265t-95 376t95 376t262.5 265t373.5 96zM801 1159q-180 0 -300 -126.5t-120 -315.5q0 -132 59 -232l529 639q-78 35 -168 35zM801 274q180 0 300 127t120 316
q0 127 -62 235l-528 -643q78 -35 170 -35z" />
    <glyph glyph-name="Ugrave" unicode="&#xd9;" horiz-adv-x="1353" 
d="M317 1864h340l177 -320h-267zM678 -18q-162 0 -292 74t-203.5 205t-73.5 294v879h303v-879q0 -120 76 -199.5t190 -79.5t189 79.5t75 199.5v879h303v-879q0 -163 -73.5 -294t-203 -205t-290.5 -74z" />
    <glyph glyph-name="Uacute" unicode="&#xda;" horiz-adv-x="1353" 
d="M1049 1864l-250 -320h-267l177 320h340zM678 -18q-162 0 -292 74t-203.5 205t-73.5 294v879h303v-879q0 -120 76 -199.5t190 -79.5t189 79.5t75 199.5v879h303v-879q0 -163 -73.5 -294t-203 -205t-290.5 -74z" />
    <glyph glyph-name="Ucircumflex" unicode="&#xdb;" horiz-adv-x="1353" 
d="M676 1692l-101 -142h-256l199 320h316l200 -320h-256zM942 1434h303v-879q0 -163 -73.5 -294t-203 -205t-290.5 -74q-162 0 -292 74t-203.5 205t-73.5 294v879h303v-879q0 -120 76 -199.5t190 -79.5t189 79.5t75 199.5v879z" />
    <glyph glyph-name="Udieresis" unicode="&#xdc;" horiz-adv-x="1353" 
d="M463 1886q72 0 124 -51.5t52 -122.5q0 -72 -52 -124t-124 -52t-124 52t-52 124q0 71 52 122.5t124 51.5zM893 1886q72 0 124 -51.5t52 -122.5q0 -72 -52 -124t-124 -52q-71 0 -123.5 52t-52.5 124q0 70 52.5 122t123.5 52zM678 -18q-162 0 -292 74t-203.5 205t-73.5 294
v879h303v-879q0 -120 76 -199.5t190 -79.5t189 79.5t75 199.5v879h303v-879q0 -163 -73.5 -294t-203 -205t-290.5 -74z" />
    <glyph glyph-name="Yacute" unicode="&#xdd;" horiz-adv-x="1394" 
d="M1071 1864l-250 -320h-266l176 320h340zM16 1434h371l318 -521l317 521h354l-522 -828v-606h-305v606z" />
    <glyph glyph-name="Thorn" unicode="&#xde;" horiz-adv-x="1187" 
d="M655 1180q211 0 348.5 -130.5t137.5 -330.5q0 -201 -137.5 -332t-348.5 -131h-243v-256h-303v1434h303v-254h243zM655 547q78 0 129.5 49t51.5 123q0 73 -51.5 121.5t-129.5 48.5h-243v-342h243z" />
    <glyph glyph-name="germandbls" unicode="&#xdf;" 
d="M98 0v881q0 268 142.5 420.5t390.5 152.5q89 0 173 -31.5t147.5 -86t102 -133.5t38.5 -167q0 -84 -41 -150.5t-101 -101.5q93 -46 150 -132t57 -193q0 -192 -132.5 -325.5t-322.5 -133.5h-182v291h164q69 0 116.5 47t47.5 115q0 69 -50 115t-130 46h-148v273h117
q63 0 104 39t41 94q0 62 -43.5 102.5t-113.5 40.5q-100 0 -162 -77t-62 -205v-881h-303z" />
    <glyph glyph-name="agrave" unicode="&#xe0;" 
d="M815 1116h-266l-250 320h340zM825 1006h289v-1006h-289v119q-37 -62 -119.5 -100.5t-177.5 -38.5q-129 0 -237 70t-170 190.5t-62 263.5q0 218 136.5 370t332.5 152q94 0 177 -39t120 -100v119zM592 254q73 0 136.5 35t96.5 90v246q-33 57 -96.5 93t-136.5 36
q-106 0 -178 -71.5t-72 -178.5t72 -178.5t178 -71.5z" />
    <glyph glyph-name="aacute" unicode="&#xe1;" 
d="M1030 1436l-250 -320h-266l174 320h342zM825 1006h289v-1006h-289v119q-37 -62 -119.5 -100.5t-177.5 -38.5q-129 0 -237 70t-170 190.5t-62 263.5q0 218 136.5 370t332.5 152q94 0 177 -39t120 -100v119zM592 254q73 0 136.5 35t96.5 90v246q-33 57 -96.5 93t-136.5 36
q-106 0 -178 -71.5t-72 -178.5t72 -178.5t178 -71.5z" />
    <glyph glyph-name="acircumflex" unicode="&#xe2;" 
d="M659 1266l-102 -144h-256l201 320h313l201 -320h-256zM825 1006h289v-1006h-289v119q-37 -62 -119.5 -100.5t-177.5 -38.5q-129 0 -237 70t-170 190.5t-62 263.5q0 218 136.5 370t332.5 152q94 0 177 -39t120 -100v119zM592 254q73 0 136.5 35t96.5 90v246
q-33 57 -96.5 93t-136.5 36q-106 0 -178 -71.5t-72 -178.5t72 -178.5t178 -71.5z" />
    <glyph glyph-name="atilde" unicode="&#xe3;" horiz-adv-x="1157" 
d="M475 1219q-29 0 -46 -28t-15 -73l-236 41q12 135 90.5 220t184.5 85q59 0 120.5 -27t107 -54t67.5 -27q31 0 50.5 26.5t22.5 71.5l232 -39q-13 -135 -93 -221t-184 -86q-62 0 -123.5 28t-107.5 55.5t-70 27.5zM825 1006h289v-1006h-289v119q-37 -62 -119.5 -100.5
t-177.5 -38.5q-129 0 -237 70t-170 190.5t-62 263.5q0 218 136.5 370t332.5 152q94 0 177 -39t120 -100v119zM592 254q73 0 136.5 35t96.5 90v246q-33 57 -96.5 93t-136.5 36q-106 0 -178 -71.5t-72 -178.5t72 -178.5t178 -71.5z" />
    <glyph glyph-name="adieresis" unicode="&#xe4;" 
d="M442 1143q-72 0 -124 52t-52 124q0 71 52 122.5t124 51.5t124 -51.5t52 -122.5q0 -72 -52 -124t-124 -52zM874 1143q-72 0 -124 52t-52 124q0 71 52 122.5t124 51.5t124.5 -51.5t52.5 -122.5q0 -72 -52.5 -124t-124.5 -52zM825 1006h289v-1006h-289v119
q-37 -62 -119.5 -100.5t-177.5 -38.5q-129 0 -237 70t-170 190.5t-62 263.5q0 218 136.5 370t332.5 152q94 0 177 -39t120 -100v119zM592 254q73 0 136.5 35t96.5 90v246q-33 57 -96.5 93t-136.5 36q-106 0 -178 -71.5t-72 -178.5t72 -178.5t178 -71.5z" />
    <glyph glyph-name="aring" unicode="&#xe5;" 
d="M659 1104q-123 0 -206.5 80.5t-83.5 199.5q0 120 83.5 201.5t206.5 81.5q124 0 208.5 -81.5t84.5 -201.5q0 -119 -84.5 -199.5t-208.5 -80.5zM659 1499q-49 0 -81.5 -32.5t-32.5 -82.5q0 -48 32.5 -80t81.5 -32q51 0 85 32.5t34 79.5q0 49 -34 82t-85 33zM825 1006h289
v-1006h-289v119q-37 -62 -119.5 -100.5t-177.5 -38.5q-129 0 -237 70t-170 190.5t-62 263.5q0 218 136.5 370t332.5 152q94 0 177 -39t120 -100v119zM592 254q73 0 136.5 35t96.5 90v246q-33 57 -96.5 93t-136.5 36q-106 0 -178 -71.5t-72 -178.5t72 -178.5t178 -71.5z" />
    <glyph glyph-name="ae" unicode="&#xe6;" horiz-adv-x="1961" 
d="M1903 547q0 -34 -11 -109h-729q20 -103 90 -158t177 -55q68 0 130.5 29t86.5 74l225 -138q-50 -89 -170 -149.5t-250 -60.5q-227 0 -338 147v-127h-289v119q-37 -62 -119.5 -100.5t-177.5 -38.5q-129 0 -237 70t-170 190.5t-62 263.5q0 218 136.5 370t332.5 152
q94 0 177 -39t120 -100v119h289v-125q109 145 334 145q189 0 322 -140t133 -339zM1165 616h451q-9 75 -71 126t-144 51q-95 0 -154.5 -46t-81.5 -131zM592 254q73 0 136.5 35t96.5 90v246q-33 57 -96.5 93t-136.5 36q-106 0 -178 -71.5t-72 -178.5t72 -178.5t178 -71.5z" />
    <glyph glyph-name="ccedilla" unicode="&#xe7;" horiz-adv-x="1099" 
d="M1061 268q-47 -108 -146 -182.5t-227 -97.5q51 -68 67 -137.5t-3.5 -126t-65 -99t-121 -62.5t-166.5 -12l-67 205q111 -2 164 32t46.5 87t-59.5 115q-188 34 -306 175t-118 337q0 224 151.5 374t377.5 150q146 0 263.5 -67t178.5 -181l-244 -139q-28 52 -80.5 81.5
t-117.5 29.5q-107 0 -176.5 -71t-69.5 -177q0 -105 69.5 -175.5t176.5 -70.5q73 0 130.5 33.5t86.5 93.5z" />
    <glyph glyph-name="egrave" unicode="&#xe8;" horiz-adv-x="1126" 
d="M725 1116h-266l-250 320h340zM1067 547q0 -61 -8 -113h-723q20 -102 87 -155.5t171 -53.5q68 0 130.5 29t88.5 74l225 -138q-55 -100 -174 -155t-276 -55q-222 0 -375.5 152.5t-153.5 375.5q0 219 151.5 368.5t371.5 149.5q204 0 344.5 -139t140.5 -340zM340 618h438
q-9 75 -70 125t-141 50q-90 0 -148 -46t-79 -129z" />
    <glyph glyph-name="eacute" unicode="&#xe9;" horiz-adv-x="1126" 
d="M940 1436l-250 -320h-266l176 320h340zM1067 547q0 -61 -8 -113h-723q20 -102 87 -155.5t171 -53.5q68 0 130.5 29t88.5 74l225 -138q-55 -100 -174 -155t-276 -55q-222 0 -375.5 152.5t-153.5 375.5q0 219 151.5 368.5t371.5 149.5q204 0 344.5 -139t140.5 -340z
M340 618h438q-9 75 -70 125t-141 50q-90 0 -148 -46t-79 -129z" />
    <glyph glyph-name="ecircumflex" unicode="&#xea;" horiz-adv-x="1126" 
d="M569 1264l-100 -142h-256l199 320h315l201 -320h-256zM1067 547q0 -61 -8 -113h-723q20 -102 87 -155.5t171 -53.5q68 0 130.5 29t88.5 74l225 -138q-55 -100 -174 -155t-276 -55q-222 0 -375.5 152.5t-153.5 375.5q0 219 151.5 368.5t371.5 149.5q204 0 344.5 -139
t140.5 -340zM340 618h438q-9 75 -70 125t-141 50q-90 0 -148 -46t-79 -129z" />
    <glyph glyph-name="edieresis" unicode="&#xeb;" horiz-adv-x="1126" 
d="M354 1143q-72 0 -124 52t-52 124q0 71 52 122.5t124 51.5t124 -51.5t52 -122.5q0 -72 -52 -124t-124 -52zM784 1143q-71 0 -123.5 52t-52.5 124q0 70 52.5 122t123.5 52q72 0 124.5 -51.5t52.5 -122.5q0 -72 -52.5 -124t-124.5 -52zM1067 547q0 -61 -8 -113h-723
q20 -102 87 -155.5t171 -53.5q68 0 130.5 29t88.5 74l225 -138q-55 -100 -174 -155t-276 -55q-222 0 -375.5 152.5t-153.5 375.5q0 219 151.5 368.5t371.5 149.5q204 0 344.5 -139t140.5 -340zM340 618h438q-9 75 -70 125t-141 50q-90 0 -148 -46t-79 -129z" />
    <glyph glyph-name="igrave" unicode="&#xec;" horiz-adv-x="493" 
d="M-115 1436h342l176 -320h-266zM102 1006h289v-1006h-289v1006z" />
    <glyph glyph-name="iacute" unicode="&#xed;" horiz-adv-x="493" 
d="M616 1436l-249 -320h-267l176 320h340zM102 1006h289v-1006h-289v1006z" />
    <glyph glyph-name="icircumflex" unicode="&#xee;" horiz-adv-x="493" 
d="M246 1264l-101 -142h-256l199 320h315l201 -320h-256zM102 0v1006h289v-1006h-289z" />
    <glyph glyph-name="idieresis" unicode="&#xef;" horiz-adv-x="493" 
d="M31 1493q72 0 124 -51.5t52 -122.5q0 -72 -52 -124t-124 -52t-124 52t-52 124q0 71 52 122.5t124 51.5zM461 1493q72 0 124 -51.5t52 -122.5q0 -72 -52 -124t-124 -52q-71 0 -123.5 52t-52.5 124q0 70 52.5 122t123.5 52zM102 1006h289v-1006h-289v1006z" />
    <glyph glyph-name="eth" unicode="&#xf0;" horiz-adv-x="1267" 
d="M1364 1325v-192h-229v-531q0 -140 -42.5 -257.5t-115.5 -197t-172 -123.5t-211 -44q-160 0 -283 71t-187.5 189.5t-64.5 263.5q0 142 62 262.5t169.5 190t235.5 69.5q107 0 189.5 -45t130.5 -127v279h-236v192h236v109h289v-109h229zM594 256q106 0 179 71.5t73 176.5
q0 104 -73 176t-179 72q-104 0 -178 -72.5t-74 -175.5q0 -104 73.5 -176t178.5 -72z" />
    <glyph glyph-name="ntilde" unicode="&#xf1;" horiz-adv-x="1175" 
d="M434 1219q-30 0 -47.5 -28t-15.5 -73l-234 41q12 135 90 220t185 85q59 0 120.5 -27t106.5 -54t66 -27q31 0 51.5 27t21.5 71l234 -39q-15 -135 -95 -221t-184 -86q-62 0 -123 28t-106.5 55.5t-69.5 27.5zM666 1026q190 0 299.5 -122.5t109.5 -334.5v-569h-289v520
q0 103 -52 161t-142 58q-60 0 -115 -31t-86 -83v-625h-289v1006h289v-119q41 64 115.5 101.5t159.5 37.5z" />
    <glyph glyph-name="ograve" unicode="&#xf2;" horiz-adv-x="1163" 
d="M221 1436h340l176 -320h-266zM582 1026q109 0 205.5 -40t166 -109.5t110 -167t40.5 -207.5q0 -147 -68.5 -267t-188 -187.5t-265.5 -67.5q-223 0 -373 149t-150 373t150 374t373 150zM582 750q-103 0 -171.5 -70.5t-68.5 -177.5q0 -104 68.5 -175t171.5 -71q101 0 170 71
t69 175q0 107 -68.5 177.5t-170.5 70.5z" />
    <glyph glyph-name="oacute" unicode="&#xf3;" horiz-adv-x="1163" 
d="M952 1436l-250 -320h-266l176 320h340zM582 1026q109 0 205.5 -40t166 -109.5t110 -167t40.5 -207.5q0 -147 -68.5 -267t-188 -187.5t-265.5 -67.5q-223 0 -373 149t-150 373t150 374t373 150zM582 750q-103 0 -171.5 -70.5t-68.5 -177.5q0 -104 68.5 -175t171.5 -71
q101 0 170 71t69 175q0 107 -68.5 177.5t-170.5 70.5z" />
    <glyph glyph-name="ocircumflex" unicode="&#xf4;" horiz-adv-x="1163" 
d="M582 1264l-101 -142h-256l199 320h315l201 -320h-256zM582 1026q109 0 205.5 -40t166 -109.5t110 -167t40.5 -207.5q0 -147 -68.5 -267t-188 -187.5t-265.5 -67.5q-223 0 -373 149t-150 373t150 374t373 150zM582 256q101 0 170 71t69 175q0 107 -68.5 177.5t-170.5 70.5
q-103 0 -171.5 -70.5t-68.5 -177.5q0 -104 68.5 -175t171.5 -71z" />
    <glyph glyph-name="otilde" unicode="&#xf5;" horiz-adv-x="1163" 
d="M143 1159q12 135 90 220t185 85q59 0 120.5 -27t106.5 -54t66 -27q32 0 51.5 26.5t21.5 71.5l234 -39q-15 -135 -94 -221t-183 -86q-63 0 -124.5 28t-107 55.5t-69.5 27.5q-29 0 -47 -28.5t-16 -72.5zM582 1026q109 0 205.5 -40t166 -109.5t110 -167t40.5 -207.5
q0 -147 -68.5 -267t-188 -187.5t-265.5 -67.5q-223 0 -373 149t-150 373t150 374t373 150zM582 750q-103 0 -171.5 -70.5t-68.5 -177.5q0 -104 68.5 -175t171.5 -71q101 0 170 71t69 175q0 107 -68.5 177.5t-170.5 70.5z" />
    <glyph glyph-name="odieresis" unicode="&#xf6;" horiz-adv-x="1163" 
d="M367 1493q72 0 124 -51.5t52 -122.5q0 -72 -52 -124t-124 -52t-124.5 52t-52.5 124q0 71 52.5 122.5t124.5 51.5zM797 1493q72 0 124 -51.5t52 -122.5q0 -72 -52 -124t-124 -52q-71 0 -123.5 52t-52.5 124q0 70 52.5 122t123.5 52zM582 1026q109 0 205.5 -40t166 -109.5
t110 -167t40.5 -207.5q0 -147 -68.5 -267t-188 -187.5t-265.5 -67.5q-223 0 -373 149t-150 373t150 374t373 150zM582 750q-103 0 -171.5 -70.5t-68.5 -177.5q0 -104 68.5 -175t171.5 -71q101 0 170 71t69 175q0 107 -68.5 177.5t-170.5 70.5z" />
    <glyph glyph-name="divide" unicode="&#xf7;" 
d="M608 893q-78 0 -132 53.5t-54 130.5t54 130t132 53q79 0 133 -53t54 -130t-54 -130.5t-133 -53.5zM1112 793v-273h-1010v273h1010zM608 51q-78 0 -132 54t-54 131q0 76 54 129t132 53q79 0 133 -52.5t54 -129.5t-54 -131t-133 -54z" />
    <glyph glyph-name="oslash" unicode="&#xf8;" horiz-adv-x="1165" 
d="M582 1026q221 0 369.5 -150t148.5 -374q0 -110 -39.5 -207t-108.5 -166t-165 -109t-205 -40q-223 0 -372 149t-149 373t149 374t372 150zM582 780q-119 0 -197 -79t-78 -199q0 -70 29.5 -129.5t81.5 -96.5l192 502q-10 2 -28 2zM582 225q116 0 194 79.5t78 197.5
q0 71 -30 130.5t-83 96.5l-192 -502q10 -2 33 -2z" />
    <glyph glyph-name="ugrave" unicode="&#xf9;" horiz-adv-x="1175" 
d="M741 1116h-266l-250 320h340zM786 1006h289v-1006h-289v119q-43 -64 -116.5 -101.5t-157.5 -37.5q-191 0 -300.5 122t-109.5 336v568h289v-521q0 -103 52.5 -160t142.5 -57q59 0 113.5 30.5t86.5 82.5v625z" />
    <glyph glyph-name="uacute" unicode="&#xfa;" horiz-adv-x="1175" 
d="M956 1436l-249 -320h-267l174 320h342zM786 1006h289v-1006h-289v119q-43 -64 -116.5 -101.5t-157.5 -37.5q-191 0 -300.5 122t-109.5 336v568h289v-521q0 -103 52.5 -160t142.5 -57q59 0 113.5 30.5t86.5 82.5v625z" />
    <glyph glyph-name="ucircumflex" unicode="&#xfb;" horiz-adv-x="1175" 
d="M586 1266l-103 -144h-256l201 320h313l201 -320h-256zM786 1006h289v-1006h-289v119q-43 -64 -116.5 -101.5t-157.5 -37.5q-191 0 -300.5 122t-109.5 336v568h289v-521q0 -103 52.5 -160t142.5 -57q59 0 113.5 30.5t86.5 82.5v625z" />
    <glyph glyph-name="udieresis" unicode="&#xfc;" horiz-adv-x="1175" 
d="M369 1143q-72 0 -124 52t-52 124q0 71 52 122.5t124 51.5t124 -51.5t52 -122.5q0 -72 -52 -124t-124 -52zM801 1143q-72 0 -124 52t-52 124q0 71 52 122.5t124 51.5t124 -51.5t52 -122.5q0 -72 -52 -124t-124 -52zM786 1006h289v-1006h-289v119q-43 -64 -116.5 -101.5
t-157.5 -37.5q-191 0 -300.5 122t-109.5 336v568h289v-521q0 -103 52.5 -160t142.5 -57q59 0 113.5 30.5t86.5 82.5v625z" />
    <glyph glyph-name="yacute" unicode="&#xfd;" horiz-adv-x="1101" 
d="M940 1436l-250 -320h-266l176 320h340zM774 1006h311l-559 -1340h-309l186 416l-387 924h312l223 -588z" />
    <glyph glyph-name="thorn" unicode="&#xfe;" 
d="M686 1026q196 0 332.5 -152t136.5 -370q0 -143 -62 -263.5t-170 -190.5t-237 -70q-95 0 -177.5 38.5t-119.5 100.5v-453h-287v1768h287v-547q37 62 119.5 100.5t177.5 38.5zM623 254q106 0 177.5 71.5t71.5 178.5q0 106 -71.5 178t-177.5 72q-73 0 -137 -35.5t-97 -91.5
v-246q33 -56 96.5 -91.5t137.5 -35.5z" />
    <glyph glyph-name="ydieresis" unicode="&#xff;" horiz-adv-x="1101" 
d="M354 1143q-72 0 -124 52t-52 124q0 71 52 122.5t124 51.5t124 -51.5t52 -122.5q0 -72 -52 -124t-124 -52zM784 1143q-71 0 -123.5 52t-52.5 124q0 70 52.5 122t123.5 52q72 0 124.5 -51.5t52.5 -122.5q0 -72 -52.5 -124t-124.5 -52zM774 1006h311l-559 -1340h-309
l186 416l-387 924h312l223 -588z" />
    <glyph glyph-name="Amacron" unicode="&#x100;" horiz-adv-x="1411" 
d="M1034 1786v-232h-655v232h655zM1069 0l-90 240h-553l-92 -240h-322l570 1434h245l572 -1434h-330zM526 500h353l-174 458z" />
    <glyph glyph-name="amacron" unicode="&#x101;" horiz-adv-x="1157" 
d="M942 1358v-232h-655v232h655zM825 1006h289v-1006h-289v119q-37 -62 -119.5 -100.5t-177.5 -38.5q-129 0 -237 70t-170 190.5t-62 263.5q0 218 136.5 370t332.5 152q94 0 177 -39t120 -100v119zM592 254q73 0 136.5 35t96.5 90v246q-33 57 -96.5 93t-136.5 36
q-106 0 -178 -71.5t-72 -178.5t72 -178.5t178 -71.5z" />
    <glyph glyph-name="Abreve" unicode="&#x102;" horiz-adv-x="1411" 
d="M707 1524q-150 0 -246 90t-96 241h219q0 -63 34.5 -102t88.5 -39t88 39t34 102h220q0 -151 -96 -241t-246 -90zM1069 0l-90 240h-553l-92 -240h-322l570 1434h245l572 -1434h-330zM526 500h353l-174 458z" />
    <glyph glyph-name="abreve" unicode="&#x103;" horiz-adv-x="1165" 
d="M569 1096q-150 0 -246 90t-96 241h219q0 -63 34.5 -102t88.5 -39t88.5 39t34.5 102h219q0 -151 -96 -241t-246 -90zM825 1006h289v-1006h-289v119q-37 -62 -119.5 -100.5t-177.5 -38.5q-129 0 -237 70t-170 190.5t-62 263.5q0 218 136.5 370t332.5 152q94 0 177 -39
t120 -100v119zM592 254q73 0 136.5 35t96.5 90v246q-33 57 -96.5 93t-136.5 36q-106 0 -178 -71.5t-72 -178.5t72 -178.5t178 -71.5z" />
    <glyph glyph-name="Aogonek" unicode="&#x104;" horiz-adv-x="1411" 
d="M1350 -164l71 -182q-40 -22 -106.5 -35.5t-132.5 -13.5q-105 0 -171.5 60.5t-66.5 154.5q0 122 111 219l-76 201h-553l-92 -240h-322l570 1434h245l572 -1434h-70q-62 -14 -98.5 -44.5t-36.5 -68.5q0 -29 22.5 -47t59.5 -18q36 0 74 14zM526 500h353l-174 458z" />
    <glyph glyph-name="aogonek" unicode="&#x105;" 
d="M1135 -164l71 -182q-40 -22 -106.5 -35.5t-132.5 -13.5q-105 0 -171.5 60.5t-66.5 154.5q0 114 96 207v92q-37 -62 -119.5 -100.5t-177.5 -38.5q-129 0 -237 70t-170 190.5t-62 263.5q0 218 136.5 370t332.5 152q94 0 177 -39t120 -100v119h289v-1006
q-62 -14 -98.5 -44.5t-36.5 -68.5q0 -29 22.5 -47t59.5 -18q36 0 74 14zM592 254q73 0 136.5 35t96.5 90v246q-33 57 -96.5 93t-136.5 36q-106 0 -178 -71.5t-72 -178.5t72 -178.5t178 -71.5z" />
    <glyph glyph-name="Cacute" unicode="&#x106;" horiz-adv-x="1474" 
d="M1159 1864l-250 -320h-266l176 320h340zM1421 379q-35 -117 -126.5 -208t-222.5 -141t-279 -50q-203 0 -369 97.5t-260 266.5t-94 373q0 154 55.5 290.5t151 234.5t230 155t286.5 57q218 0 388.5 -104.5t223.5 -268.5l-270 -129q-40 95 -131 151t-211 56
q-182 0 -297 -125t-115 -317q0 -191 115.5 -317t296.5 -126q128 0 222 63t128 169z" />
    <glyph glyph-name="cacute" unicode="&#x107;" horiz-adv-x="1099" 
d="M963 1436l-250 -320h-267l177 320h340zM1061 268q-57 -131 -185 -209.5t-288 -78.5q-226 0 -377.5 149t-151.5 373t151.5 374t377.5 150q146 0 263.5 -67t178.5 -181l-244 -139q-28 52 -80.5 81.5t-117.5 29.5q-107 0 -176.5 -71t-69.5 -177q0 -105 69.5 -175.5
t176.5 -70.5q73 0 130.5 33.5t86.5 93.5z" />
    <glyph glyph-name="Ccircumflex" unicode="&#x108;" horiz-adv-x="1474" 
d="M786 1692l-100 -142h-256l199 320h315l201 -320h-256zM1143 506l278 -127q-35 -117 -126.5 -208t-222.5 -141t-279 -50q-203 0 -369 97.5t-260 266.5t-94 373q0 154 55.5 290.5t151 234.5t230 155t286.5 57q218 0 388.5 -104.5t223.5 -268.5l-270 -129q-40 95 -131 151
t-211 56q-182 0 -297 -125t-115 -317q0 -191 115.5 -317t296.5 -126q128 0 222 63t128 169z" />
    <glyph glyph-name="ccircumflex" unicode="&#x109;" horiz-adv-x="1099" 
d="M590 1264l-101 -142h-256l199 320h316l200 -320h-256zM805 383l256 -115q-57 -131 -185 -209.5t-288 -78.5q-226 0 -377.5 149t-151.5 373t151.5 374t377.5 150q146 0 263.5 -67t178.5 -181l-244 -139q-28 52 -80.5 81.5t-117.5 29.5q-107 0 -176.5 -71t-69.5 -177
q0 -105 69.5 -175.5t176.5 -70.5q73 0 130.5 33.5t86.5 93.5z" />
    <glyph glyph-name="Cdotaccent" unicode="&#x10a;" horiz-adv-x="1474" 
d="M788 1886q72 0 124.5 -51.5t52.5 -122.5q0 -72 -52.5 -124t-124.5 -52t-124 52t-52 124q0 71 52 122.5t124 51.5zM1421 379q-35 -117 -126.5 -208t-222.5 -141t-279 -50q-203 0 -369 97.5t-260 266.5t-94 373q0 154 55.5 290.5t151 234.5t230 155t286.5 57
q218 0 388.5 -104.5t223.5 -268.5l-270 -129q-40 95 -131 151t-211 56q-182 0 -297 -125t-115 -317q0 -191 115.5 -317t296.5 -126q128 0 222 63t128 169z" />
    <glyph glyph-name="cdotaccent" unicode="&#x10b;" horiz-adv-x="1099" 
d="M592 1493q72 0 124 -51.5t52 -122.5q0 -72 -52 -124t-124 -52t-124 52t-52 124q0 71 52 122.5t124 51.5zM1061 268q-57 -131 -185 -209.5t-288 -78.5q-226 0 -377.5 149t-151.5 373t151.5 374t377.5 150q146 0 263.5 -67t178.5 -181l-244 -139q-28 52 -80.5 81.5
t-117.5 29.5q-107 0 -176.5 -71t-69.5 -177q0 -105 69.5 -175.5t176.5 -70.5q73 0 130.5 33.5t86.5 93.5z" />
    <glyph glyph-name="Ccaron" unicode="&#x10c;" horiz-adv-x="1474" 
d="M629 1544l-199 320h256l100 -142l103 142h256l-201 -320h-315zM1143 506l278 -127q-35 -117 -126.5 -208t-222.5 -141t-279 -50q-203 0 -369 97.5t-260 266.5t-94 373q0 154 55.5 290.5t151 234.5t230 155t286.5 57q218 0 388.5 -104.5t223.5 -268.5l-270 -129
q-40 95 -131 151t-211 56q-182 0 -297 -125t-115 -317q0 -191 115.5 -317t296.5 -126q128 0 222 63t128 169z" />
    <glyph glyph-name="ccaron" unicode="&#x10d;" horiz-adv-x="1099" 
d="M432 1116l-199 320h256l101 -142l102 142h256l-200 -320h-316zM805 383l256 -115q-57 -131 -185 -209.5t-288 -78.5q-226 0 -377.5 149t-151.5 373t151.5 374t377.5 150q146 0 263.5 -67t178.5 -181l-244 -139q-28 52 -80.5 81.5t-117.5 29.5q-107 0 -176.5 -71
t-69.5 -177q0 -105 69.5 -175.5t176.5 -70.5q73 0 130.5 33.5t86.5 93.5z" />
    <glyph glyph-name="Dcaron" unicode="&#x10e;" horiz-adv-x="1394" 
d="M444 1544l-198 320h256l100 -142l103 142h256l-201 -320h-316zM600 1434q204 0 370.5 -92t261.5 -255t95 -364q0 -205 -95 -370.5t-261.5 -259t-370.5 -93.5h-491v1434h491zM621 291q170 0 281.5 123t111.5 309q0 183 -110.5 301.5t-282.5 118.5h-209v-852h209z" />
    <glyph glyph-name="dcaron" unicode="&#x10f;" horiz-adv-x="1497" 
d="M1235 1552h303l-102 -436h-240zM825 887v547h289v-1434h-289v119q-37 -62 -119.5 -100.5t-177.5 -38.5q-129 0 -237 70t-170 190.5t-62 263.5q0 218 136.5 370t332.5 152q94 0 177 -39t120 -100zM592 254q73 0 136.5 35t96.5 90v246q-33 57 -96.5 93t-136.5 36
q-106 0 -178 -71.5t-72 -178.5t72 -178.5t178 -71.5z" />
    <glyph glyph-name="Dcroat" unicode="&#x110;" horiz-adv-x="1394" 
d="M600 1434q204 0 370.5 -92t261.5 -255t95 -364q0 -205 -95 -370.5t-261.5 -259t-370.5 -93.5h-491v627h-177v192h177v615h491zM621 291q170 0 281.5 123t111.5 309q0 183 -110.5 301.5t-282.5 118.5h-209v-324h206v-192h-206v-336h209z" />
    <glyph glyph-name="dcroat" unicode="&#x111;" 
d="M1313 1315v-172h-199v-1143h-289v119q-37 -62 -119.5 -100.5t-177.5 -38.5q-129 0 -237 70t-170 190.5t-62 263.5q0 218 136.5 370t332.5 152q94 0 177 -39t120 -100v256h-198v172h198v119h289v-119h199zM592 254q73 0 136.5 35t96.5 90v246q-33 57 -96.5 93t-136.5 36
q-106 0 -178 -71.5t-72 -178.5t72 -178.5t178 -71.5z" />
    <glyph glyph-name="Emacron" unicode="&#x112;" horiz-adv-x="1064" 
d="M233 1554v232h656v-232h-656zM109 1434h878v-291h-575v-258h512v-291h-512v-303h575v-291h-878v1434z" />
    <glyph glyph-name="emacron" unicode="&#x113;" horiz-adv-x="1126" 
d="M897 1358v-232h-655v232h655zM1067 547q0 -61 -8 -113h-723q20 -102 87 -155.5t171 -53.5q68 0 130.5 29t88.5 74l225 -138q-55 -100 -174 -155t-276 -55q-222 0 -375.5 152.5t-153.5 375.5q0 219 151.5 368.5t371.5 149.5q204 0 344.5 -139t140.5 -340zM340 618h438
q-9 75 -70 125t-141 50q-90 0 -148 -46t-79 -129z" />
    <glyph glyph-name="Ebreve" unicode="&#x114;" horiz-adv-x="1064" 
d="M903 1855q0 -151 -96 -241t-246 -90t-246 90t-96 241h219q0 -63 34.5 -102t88.5 -39t88.5 39t34.5 102h219zM109 1434h878v-291h-575v-258h512v-291h-512v-303h575v-291h-878v1434z" />
    <glyph glyph-name="ebreve" unicode="&#x115;" horiz-adv-x="1126" 
d="M569 1096q-150 0 -246 90t-96 241h219q0 -63 34.5 -102t88.5 -39t88.5 39t34.5 102h219q0 -151 -96 -241t-246 -90zM1067 547q0 -61 -8 -113h-723q20 -102 87 -155.5t171 -53.5q68 0 130.5 29t88.5 74l225 -138q-55 -100 -174 -155t-276 -55q-222 0 -375.5 152.5
t-153.5 375.5q0 219 151.5 368.5t371.5 149.5q204 0 344.5 -139t140.5 -340zM340 618h438q-9 75 -70 125t-141 50q-90 0 -148 -46t-79 -129z" />
    <glyph glyph-name="Edotaccent" unicode="&#x116;" horiz-adv-x="1064" 
d="M561 1886q72 0 124 -51.5t52 -122.5q0 -72 -52 -124t-124 -52t-124 52t-52 124q0 71 52 122.5t124 51.5zM109 1434h878v-291h-575v-258h512v-291h-512v-303h575v-291h-878v1434z" />
    <glyph glyph-name="edotaccent" unicode="&#x117;" horiz-adv-x="1126" 
d="M569 1143q-72 0 -124 52t-52 124q0 71 52 122.5t124 51.5t124 -51.5t52 -122.5q0 -72 -52 -124t-124 -52zM1067 547q0 -61 -8 -113h-723q20 -102 87 -155.5t171 -53.5q68 0 130.5 29t88.5 74l225 -138q-55 -100 -174 -155t-276 -55q-222 0 -375.5 152.5t-153.5 375.5
q0 219 151.5 368.5t371.5 149.5q204 0 344.5 -139t140.5 -340zM340 618h438q-9 75 -70 125t-141 50q-90 0 -148 -46t-79 -129z" />
    <glyph glyph-name="Eogonek" unicode="&#x118;" horiz-adv-x="1064" 
d="M987 1143h-575v-258h512v-291h-512v-303h575v-291h-137q-62 -14 -98.5 -44.5t-36.5 -68.5q0 -29 22.5 -47t59.5 -18q35 0 73 14l72 -182q-40 -22 -107 -35.5t-133 -13.5q-105 0 -171 60.5t-66 154.5q0 95 72 180h-428v1434h878v-291z" />
    <glyph glyph-name="eogonek" unicode="&#x119;" horiz-adv-x="1126" 
d="M1067 547q0 -61 -8 -113h-723q20 -102 87 -155.5t171 -53.5q68 0 130.5 29t88.5 74l225 -138q-42 -74 -125 -129q-127 -93 -127 -174q0 -29 22.5 -47t59.5 -18q36 0 74 14l72 -182q-40 -22 -107 -35.5t-133 -13.5q-105 0 -171 60.5t-66 154.5q0 87 55 160h-4
q-222 0 -375.5 152.5t-153.5 375.5q0 219 151.5 368.5t371.5 149.5q204 0 344.5 -139t140.5 -340zM340 618h438q-9 75 -70 125t-141 50q-90 0 -148 -46t-79 -129z" />
    <glyph glyph-name="Ecaron" unicode="&#x11a;" horiz-adv-x="1064" 
d="M403 1544l-198 320h256l100 -142l103 142h256l-201 -320h-316zM987 1143h-575v-258h512v-291h-512v-303h575v-291h-878v1434h878v-291z" />
    <glyph glyph-name="ecaron" unicode="&#x11b;" horiz-adv-x="1126" 
d="M412 1116l-199 320h256l100 -142l103 142h256l-201 -320h-315zM1067 547q0 -61 -8 -113h-723q20 -102 87 -155.5t171 -53.5q68 0 130.5 29t88.5 74l225 -138q-55 -100 -174 -155t-276 -55q-222 0 -375.5 152.5t-153.5 375.5q0 219 151.5 368.5t371.5 149.5
q204 0 344.5 -139t140.5 -340zM340 618h438q-9 75 -70 125t-141 50q-90 0 -148 -46t-79 -129z" />
    <glyph glyph-name="Gcircumflex" unicode="&#x11c;" horiz-adv-x="1495" 
d="M791 1692l-101 -142h-256l199 320h315l201 -320h-256zM782 565v246h617v-549q-99 -130 -256.5 -205t-347.5 -75q-151 0 -286 58t-231 157.5t-152 236.5t-56 289q0 204 94.5 371.5t260.5 263.5t368 96q218 0 388.5 -104.5t223.5 -268.5l-270 -129q-37 94 -130.5 150.5
t-211.5 56.5q-180 0 -296 -123t-116 -313q0 -195 117 -322t297 -127q186 0 299 93v198h-312z" />
    <glyph glyph-name="gcircumflex" unicode="&#x11d;" 
d="M643 1264l-100 -142h-256l198 320h316l200 -320h-256zM825 1008h289v-965q0 -138 -68.5 -243t-184.5 -159.5t-261 -54.5q-132 0 -261.5 43.5t-199.5 116.5l137 201q129 -103 316 -103q94 0 163.5 58t69.5 147v96q-37 -59 -120 -97t-177 -38q-129 0 -237 68t-170 185.5
t-62 256.5q0 138 62 255t170 185t237 68q94 0 177 -38.5t120 -98.5v117zM592 276q73 0 136.5 34.5t96.5 88.5v238q-33 55 -96.5 90t-136.5 35q-106 0 -178 -69.5t-72 -172.5q0 -104 72 -174t178 -70z" />
    <glyph glyph-name="Gbreve" unicode="&#x11e;" horiz-adv-x="1495" 
d="M793 1524q-150 0 -246 90t-96 241h219q0 -63 34.5 -102t88.5 -39t88 39t34 102h220q0 -151 -96 -241t-246 -90zM782 565v246h617v-549q-99 -130 -256.5 -205t-347.5 -75q-151 0 -286 58t-231 157.5t-152 236.5t-56 289q0 204 94.5 371.5t260.5 263.5t368 96
q218 0 388.5 -104.5t223.5 -268.5l-270 -129q-37 94 -130.5 150.5t-211.5 56.5q-180 0 -296 -123t-116 -313q0 -195 117 -322t297 -127q186 0 299 93v198h-312z" />
    <glyph glyph-name="gbreve" unicode="&#x11f;" 
d="M643 1096q-150 0 -246 90t-96 241h219q0 -63 34.5 -102t88.5 -39t88.5 39t34.5 102h219q0 -151 -96 -241t-246 -90zM825 1008h289v-965q0 -138 -68.5 -243t-184.5 -159.5t-261 -54.5q-132 0 -261.5 43.5t-199.5 116.5l137 201q129 -103 316 -103q94 0 163.5 58t69.5 147
v96q-37 -59 -120 -97t-177 -38q-129 0 -237 68t-170 185.5t-62 256.5q0 138 62 255t170 185t237 68q94 0 177 -38.5t120 -98.5v117zM592 276q73 0 136.5 34.5t96.5 88.5v238q-33 55 -96.5 90t-136.5 35q-106 0 -178 -69.5t-72 -172.5q0 -104 72 -174t178 -70z" />
    <glyph glyph-name="Gdotaccent" unicode="&#x120;" horiz-adv-x="1495" 
d="M793 1536q-72 0 -124.5 52t-52.5 124q0 71 52.5 122.5t124.5 51.5t124 -51.5t52 -122.5q0 -72 -52 -124t-124 -52zM782 565v246h617v-549q-99 -130 -256.5 -205t-347.5 -75q-151 0 -286 58t-231 157.5t-152 236.5t-56 289q0 204 94.5 371.5t260.5 263.5t368 96
q218 0 388.5 -104.5t223.5 -268.5l-270 -129q-37 94 -130.5 150.5t-211.5 56.5q-180 0 -296 -123t-116 -313q0 -195 117 -322t297 -127q186 0 299 93v198h-312z" />
    <glyph glyph-name="gdotaccent" unicode="&#x121;" 
d="M643 1143q-72 0 -124 52t-52 124q0 71 52 122.5t124 51.5t124 -51.5t52 -122.5q0 -72 -52 -124t-124 -52zM825 1008h289v-965q0 -138 -68.5 -243t-184.5 -159.5t-261 -54.5q-132 0 -261.5 43.5t-199.5 116.5l137 201q129 -103 316 -103q94 0 163.5 58t69.5 147v96
q-37 -59 -120 -97t-177 -38q-129 0 -237 68t-170 185.5t-62 256.5q0 138 62 255t170 185t237 68q94 0 177 -38.5t120 -98.5v117zM592 276q73 0 136.5 34.5t96.5 88.5v238q-33 55 -96.5 90t-136.5 35q-106 0 -178 -69.5t-72 -172.5q0 -104 72 -174t178 -70z" />
    <glyph glyph-name="uni0122" unicode="&#x122;" horiz-adv-x="1495" 
d="M782 565v246h617v-549q-99 -130 -256.5 -205t-347.5 -75q-151 0 -286 58t-231 157.5t-152 236.5t-56 289q0 204 94.5 371.5t260.5 263.5t368 96q218 0 388.5 -104.5t223.5 -268.5l-270 -129q-37 94 -130.5 150.5t-211.5 56.5q-180 0 -296 -123t-116 -313q0 -195 117 -322
t297 -127q186 0 299 93v198h-312zM449 -453l174 322h342l-250 -322h-266z" />
    <glyph glyph-name="uni0123" unicode="&#x123;" 
d="M1016 1452l-176 -319h-340l250 319h266zM825 1008h289v-965q0 -138 -68.5 -243t-184.5 -159.5t-261 -54.5q-132 0 -261.5 43.5t-199.5 116.5l137 201q129 -103 316 -103q94 0 163.5 58t69.5 147v96q-37 -59 -120 -97t-177 -38q-129 0 -237 68t-170 185.5t-62 256.5
q0 138 62 255t170 185t237 68q94 0 177 -38.5t120 -98.5v117zM592 276q73 0 136.5 34.5t96.5 88.5v238q-33 55 -96.5 90t-136.5 35q-106 0 -178 -69.5t-72 -172.5q0 -104 72 -174t178 -70z" />
    <glyph glyph-name="Hcircumflex" unicode="&#x124;" horiz-adv-x="1433" 
d="M717 1692l-101 -142h-256l199 320h315l201 -320h-256zM1022 1434h305v-1434h-305v596h-610v-596h-303v1434h303v-547h610v547z" />
    <glyph glyph-name="hcircumflex" unicode="&#x125;" horiz-adv-x="1175" 
d="M248 1690l-101 -142h-258l201 322h316l198 -322h-256zM664 1026q190 0 299.5 -122.5t109.5 -334.5v-569h-289v520q0 103 -52 161t-142 58q-60 0 -113.5 -30.5t-85.5 -81.5v-627h-289v1434h289v-545q43 63 116 100t157 37z" />
    <glyph glyph-name="Hbar" unicode="&#x126;" horiz-adv-x="1433" 
d="M1454 1294v-245h-127v-1049h-305v596h-610v-596h-303v1049h-132v245h132v140h303v-140h610v140h305v-140h127zM1022 887v162h-610v-162h610z" />
    <glyph glyph-name="hbar" unicode="&#x127;" horiz-adv-x="1175" 
d="M664 1026q190 0 299.5 -122.5t109.5 -334.5v-569h-289v520q0 103 -52 161t-142 58q-60 0 -113.5 -30.5t-85.5 -81.5v-627h-289v1143h-196v172h196v119h289v-119h203v-172h-203v-254q43 63 116 100t157 37z" />
    <glyph glyph-name="Itilde" unicode="&#x128;" horiz-adv-x="520" 
d="M-178 1587q12 135 89.5 220t184.5 85q59 0 120.5 -27t106.5 -54t66 -27q32 0 52 27t22 71l233 -39q-15 -135 -93.5 -221t-182.5 -86q-63 0 -124.5 28t-107 55.5t-69.5 27.5q-29 0 -47 -28.5t-17 -72.5zM109 1434h303v-1434h-303v1434z" />
    <glyph glyph-name="itilde" unicode="&#x129;" horiz-adv-x="493" 
d="M-190 1159q12 135 89.5 220t184.5 85q59 0 120.5 -27t106.5 -54t66 -27q32 0 52 27t22 71l233 -39q-15 -135 -93.5 -221t-182.5 -86q-63 0 -124.5 28t-107.5 55.5t-70 27.5q-29 0 -47 -28.5t-16 -72.5zM102 1006h289v-1006h-289v1006z" />
    <glyph glyph-name="Imacron" unicode="&#x12a;" horiz-adv-x="520" 
d="M-68 1554v232h656v-232h-656zM109 1434h303v-1434h-303v1434z" />
    <glyph glyph-name="imacron" unicode="&#x12b;" horiz-adv-x="493" 
d="M-82 1126v232h655v-232h-655zM102 1006h289v-1006h-289v1006z" />
    <glyph glyph-name="Ibreve" unicode="&#x12c;" horiz-adv-x="520" 
d="M602 1855q0 -151 -96 -241t-246 -90t-246 90t-96 241h219q0 -63 34.5 -102t88.5 -39t88.5 39t34.5 102h219zM109 1434h303v-1434h-303v1434z" />
    <glyph glyph-name="ibreve" unicode="&#x12d;" horiz-adv-x="493" 
d="M588 1427q0 -151 -96 -241t-246 -90t-246 90t-96 241h219q0 -63 34.5 -102t88.5 -39t88.5 39t34.5 102h219zM102 1006h289v-1006h-289v1006z" />
    <glyph glyph-name="Iogonek" unicode="&#x12e;" horiz-adv-x="520" 
d="M432 -164l72 -182q-40 -22 -107 -35.5t-133 -13.5q-105 0 -171 60.5t-66 154.5q0 100 82 192v1422h303v-1434q-62 -14 -99 -44.5t-37 -68.5q0 -29 22.5 -47t59.5 -18q36 0 74 14z" />
    <glyph glyph-name="iogonek" unicode="&#x12f;" horiz-adv-x="493" 
d="M246 1143q-72 0 -124 52t-52 124q0 71 52 122.5t124 51.5t124 -51.5t52 -122.5q0 -72 -52 -124t-124 -52zM412 -164l71 -182q-40 -22 -106.5 -35.5t-132.5 -13.5q-105 0 -171.5 60.5t-66.5 154.5q0 114 96 207v979h289v-1006q-62 -14 -98.5 -44.5t-36.5 -68.5
q0 -29 22.5 -47t59.5 -18q36 0 74 14z" />
    <glyph glyph-name="Idotaccent" unicode="&#x130;" horiz-adv-x="520" 
d="M260 1886q72 0 124 -51.5t52 -122.5q0 -72 -52 -124t-124 -52t-124 52t-52 124q0 71 52 122.5t124 51.5zM109 1434h303v-1434h-303v1434z" />
    <glyph glyph-name="dotlessi" unicode="&#x131;" horiz-adv-x="493" 
d="M102 1006h289v-1006h-289v1006z" />
    <glyph glyph-name="IJ" unicode="&#x132;" horiz-adv-x="1202" 
d="M109 1434h303v-1434h-303v1434zM586 274q12 -2 37 -2q87 0 132.5 46t45.5 151v965h305v-1047q0 -181 -111.5 -292t-281.5 -111q-85 0 -144 10z" />
    <glyph glyph-name="ij" unicode="&#x133;" horiz-adv-x="987" 
d="M246 1493q72 0 124 -51.5t52 -122.5q0 -72 -52 -124t-124 -52t-124 52t-52 124q0 71 52 122.5t124 51.5zM739 1493q72 0 124 -51.5t52 -122.5q0 -72 -52 -124t-124 -52q-71 0 -123.5 52t-52.5 124q0 70 52.5 122t123.5 52zM102 1006h289v-1006h-289v1006zM451 -125
q20 -4 34 -4q51 0 81 32t30 95v1008h289v-1037q0 -167 -101.5 -263.5t-275.5 -96.5q-41 0 -80 8z" />
    <glyph glyph-name="Jcircumflex" unicode="&#x134;" horiz-adv-x="681" 
d="M430 1692l-100 -142h-256l198 320h316l200 -320h-256zM281 469v965h305v-1047q0 -181 -111.5 -292t-281.5 -111q-85 0 -144 10l17 280q12 -2 36 -2q87 0 133 46t46 151z" />
    <glyph glyph-name="jcircumflex" unicode="&#x135;" horiz-adv-x="493" 
d="M246 1264l-101 -142h-256l199 320h315l201 -320h-256zM102 -2v1008h289v-1037q0 -167 -101.5 -263.5t-275.5 -96.5q-41 0 -82 8l23 258q24 -4 35 -4q52 0 82 32t30 95z" />
    <glyph glyph-name="uni0136" unicode="&#x136;" horiz-adv-x="1402" 
d="M729 758l627 -758h-398l-546 684v-684h-303v1434h303v-607l510 607h383zM324 -453l174 322h342l-250 -322h-266z" />
    <glyph glyph-name="uni0137" unicode="&#x137;" horiz-adv-x="1140" 
d="M391 451v-451h-289v1434h289v-844l348 416h355l-418 -486l450 -520h-370zM244 -453l174 322h342l-250 -322h-266z" />
    <glyph glyph-name="kgreenlandic" unicode="&#x138;" horiz-adv-x="1142" 
d="M1126 0h-370l-367 473v-473h-287v1006h287v-435l350 435h355l-402 -486z" />
    <glyph glyph-name="Lacute" unicode="&#x139;" horiz-adv-x="1120" 
d="M629 1864l-250 -320h-266l176 320h340zM109 1434h303v-1143h657v-291h-960v1434z" />
    <glyph glyph-name="lacute" unicode="&#x13a;" horiz-adv-x="493" 
d="M655 1864l-249 -320h-267l176 320h340zM391 1434v-1434h-289v1434h289z" />
    <glyph glyph-name="uni013B" unicode="&#x13b;" horiz-adv-x="1120" 
d="M109 1434h303v-1143h657v-291h-960v1434zM727 -131l-250 -322h-266l174 322h342z" />
    <glyph glyph-name="uni013C" unicode="&#x13c;" horiz-adv-x="493" 
d="M391 1434v-1434h-289v1434h289zM461 -131l-250 -322h-266l174 322h342z" />
    <glyph glyph-name="Lcaron" unicode="&#x13d;" horiz-adv-x="1120" 
d="M930 1552l-103 -436h-237l39 436h301zM109 1434h303v-1143h657v-291h-960v1434z" />
    <glyph glyph-name="lcaron" unicode="&#x13e;" horiz-adv-x="774" 
d="M815 1552l-102 -436h-240l39 436h303zM391 1434v-1434h-289v1434h289z" />
    <glyph glyph-name="Ldot" unicode="&#x13f;" horiz-adv-x="1134" 
d="M109 1434h303v-1143h657v-291h-960v1434zM809 629q-78 0 -132 53.5t-54 130.5q0 76 54 129t132 53q79 0 132.5 -52.5t53.5 -129.5t-53.5 -130.5t-132.5 -53.5z" />
    <glyph glyph-name="ldot" unicode="&#x140;" horiz-adv-x="815" 
d="M356 1434v-1434h-288v1434h288zM631 588q-78 0 -132.5 53.5t-54.5 130.5q0 76 54.5 129t132.5 53q79 0 133.5 -52.5t54.5 -129.5t-54.5 -130.5t-133.5 -53.5z" />
    <glyph glyph-name="Lslash" unicode="&#x141;" horiz-adv-x="1120" 
d="M412 291h657v-291h-960v567l-164 -75v262l164 75v605h303v-463l329 153v-260l-329 -153v-420z" />
    <glyph glyph-name="lslash" unicode="&#x142;" horiz-adv-x="493" 
d="M512 1040v-266l-121 -55v-719h-289v584l-125 -58v267l125 57v584h289v-449z" />
    <glyph glyph-name="Nacute" unicode="&#x143;" horiz-adv-x="1361" 
d="M1057 1864l-250 -320h-266l176 320h340zM109 1434h258l583 -836v836h303v-1434h-254l-587 836v-836h-303v1434z" />
    <glyph glyph-name="nacute" unicode="&#x144;" horiz-adv-x="1175" 
d="M944 1436l-250 -320h-266l176 320h340zM666 1026q190 0 299.5 -122.5t109.5 -334.5v-569h-289v520q0 103 -52 161t-142 58q-60 0 -115 -31t-86 -83v-625h-289v1006h289v-119q41 64 115.5 101.5t159.5 37.5z" />
    <glyph glyph-name="uni0145" unicode="&#x145;" horiz-adv-x="1361" 
d="M109 1434h258l583 -836v836h303v-1434h-254l-587 836v-836h-303v1434zM895 -131l-250 -322h-266l174 322h342z" />
    <glyph glyph-name="uni0146" unicode="&#x146;" horiz-adv-x="1175" 
d="M666 1026q190 0 299.5 -122.5t109.5 -334.5v-569h-289v520q0 103 -52 161t-142 58q-60 0 -115 -31t-86 -83v-625h-289v1006h289v-119q41 64 115.5 101.5t159.5 37.5zM270 -453l176 322h340l-249 -322h-267z" />
    <glyph glyph-name="Ncaron" unicode="&#x147;" horiz-adv-x="1361" 
d="M528 1544l-198 320h256l100 -142l102 142h256l-200 -320h-316zM950 1434h303v-1434h-254l-587 836v-836h-303v1434h258l583 -836v836z" />
    <glyph glyph-name="ncaron" unicode="&#x148;" horiz-adv-x="1175" 
d="M416 1116l-199 320h256l100 -142l103 142h256l-201 -320h-315zM666 1026q190 0 299.5 -122.5t109.5 -334.5v-569h-289v520q0 103 -52 161t-142 58q-60 0 -115 -31t-86 -83v-625h-289v1006h289v-119q41 64 115.5 101.5t159.5 37.5z" />
    <glyph glyph-name="napostrophe" unicode="&#x149;" horiz-adv-x="1175" 
d="M195 1268q-42 22 -67.5 62.5t-25.5 90.5q0 72 50 122t122 50t122 -50t50 -122q0 -33 -10.5 -65t-42.5 -86l-88 -154h-184zM666 1026q190 0 299.5 -122.5t109.5 -334.5v-569h-289v520q0 103 -52 161t-142 58q-60 0 -115 -31t-86 -83v-625h-289v1006h289v-119
q41 64 115.5 101.5t159.5 37.5z" />
    <glyph glyph-name="Eng" unicode="&#x14a;" horiz-adv-x="1361" 
d="M950 1434h303v-1385q0 -182 -111 -292.5t-280 -110.5q-87 0 -143 10l16 278h37q152 0 174 142l-534 760v-836h-303v1434h258l583 -836v836z" />
    <glyph glyph-name="eng" unicode="&#x14b;" horiz-adv-x="1175" 
d="M666 1026q190 0 299.5 -122.5t109.5 -334.5v-600q0 -167 -101.5 -263.5t-275.5 -96.5q-24 0 -98 8l37 258q20 -4 39 -4q51 0 80.5 30.5t29.5 96.5v522q0 103 -52 161t-142 58q-60 0 -115 -31t-86 -83v-625h-289v1006h289v-119q41 64 115.5 101.5t159.5 37.5z" />
    <glyph glyph-name="Omacron" unicode="&#x14c;" horiz-adv-x="1601" 
d="M473 1554v232h655v-232h-655zM801 1454q206 0 374 -96t263.5 -265t95.5 -376t-95.5 -376t-263.5 -265t-374 -96t-373.5 96t-262.5 265t-95 376t95 376t262.5 265t373.5 96zM801 1159q-180 0 -300 -126.5t-120 -315.5t120 -316t300 -127t300 127t120 316t-120 315.5
t-300 126.5z" />
    <glyph glyph-name="omacron" unicode="&#x14d;" horiz-adv-x="1163" 
d="M254 1126v232h655v-232h-655zM582 1026q109 0 205.5 -40t166 -109.5t110 -167t40.5 -207.5q0 -147 -68.5 -267t-188 -187.5t-265.5 -67.5q-223 0 -373 149t-150 373t150 374t373 150zM582 750q-103 0 -171.5 -70.5t-68.5 -177.5q0 -104 68.5 -175t171.5 -71q101 0 170 71
t69 175q0 107 -68.5 177.5t-170.5 70.5z" />
    <glyph glyph-name="Obreve" unicode="&#x14e;" horiz-adv-x="1601" 
d="M1143 1855q0 -151 -96 -241t-246 -90t-246 90t-96 241h219q0 -63 34.5 -102t88.5 -39t88.5 39t34.5 102h219zM801 1454q206 0 374 -96t263.5 -265t95.5 -376t-95.5 -376t-263.5 -265t-374 -96t-373.5 96t-262.5 265t-95 376t95 376t262.5 265t373.5 96zM801 1159
q-180 0 -300 -126.5t-120 -315.5t120 -316t300 -127t300 127t120 316t-120 315.5t-300 126.5z" />
    <glyph glyph-name="obreve" unicode="&#x14f;" horiz-adv-x="1163" 
d="M924 1427q0 -151 -96 -241t-246 -90t-246 90t-96 241h219q0 -63 34.5 -102t88.5 -39t88.5 39t34.5 102h219zM582 1026q109 0 205.5 -40t166 -109.5t110 -167t40.5 -207.5q0 -147 -68.5 -267t-188 -187.5t-265.5 -67.5q-223 0 -373 149t-150 373t150 374t373 150zM582 750
q-103 0 -171.5 -70.5t-68.5 -177.5q0 -104 68.5 -175t171.5 -71q101 0 170 71t69 175q0 107 -68.5 177.5t-170.5 70.5z" />
    <glyph glyph-name="Ohungarumlaut" unicode="&#x150;" horiz-adv-x="1601" 
d="M719 1544l125 326h-297l-123 -326h295zM1163 1544l125 326h-297l-125 -326h297zM801 1454q206 0 374 -96t263.5 -265t95.5 -376t-95.5 -376t-263.5 -265t-374 -96t-373.5 96t-262.5 265t-95 376t95 376t262.5 265t373.5 96zM801 1159q-180 0 -300 -126.5t-120 -315.5
t120 -316t300 -127t300 127t120 316t-120 315.5t-300 126.5z" />
    <glyph glyph-name="ohungarumlaut" unicode="&#x151;" horiz-adv-x="1163" 
d="M500 1116l125 326h-297l-123 -326h295zM944 1116l125 326h-297l-125 -326h297zM582 1026q109 0 205.5 -40t166 -109.5t110 -167t40.5 -207.5q0 -147 -68.5 -267t-188 -187.5t-265.5 -67.5q-223 0 -373 149t-150 373t150 374t373 150zM582 750q-103 0 -171.5 -70.5
t-68.5 -177.5q0 -104 68.5 -175t171.5 -71q101 0 170 71t69 175q0 107 -68.5 177.5t-170.5 70.5z" />
    <glyph glyph-name="OE" unicode="&#x152;" horiz-adv-x="1939" 
d="M1862 1143h-574v-258h512v-291h-512v-303h574v-291h-1065q-204 0 -370.5 93.5t-261.5 259t-95 370.5q0 201 95 364t261.5 255t370.5 92h1065v-291zM983 291v852h-209q-172 0 -282.5 -118.5t-110.5 -301.5q0 -186 111.5 -309t281.5 -123h209z" />
    <glyph glyph-name="oe" unicode="&#x153;" horiz-adv-x="1890" 
d="M1821 434h-721v-2q20 -101 87 -154t171 -53q68 0 130.5 29t86.5 74l227 -138q-55 -99 -175 -154.5t-277 -55.5q-112 0 -211 42.5t-172 118.5q-72 -76 -171.5 -118.5t-213.5 -42.5q-223 0 -373 149t-150 373t150 374t373 150q114 0 211.5 -42t169.5 -118q72 75 171 117.5
t212 42.5q204 0 344.5 -139t140.5 -340q0 -48 -10 -113zM1329 793q-89 0 -146.5 -46t-78.5 -129h438q-11 75 -71 125t-142 50zM582 256q101 0 170 71t69 175q0 107 -68.5 177.5t-170.5 70.5q-103 0 -171.5 -70.5t-68.5 -177.5q0 -104 68.5 -175t171.5 -71z" />
    <glyph glyph-name="Racute" unicode="&#x154;" horiz-adv-x="1294" 
d="M922 1864l-250 -320h-266l176 320h340zM1260 0h-369l-324 547h-155v-547h-303v1434h553q120 0 224 -59t166 -161.5t62 -222.5q0 -136 -61 -240t-168 -157zM412 1141v-332h219q74 0 125 48t51 120q0 69 -51 116.5t-125 47.5h-219z" />
    <glyph glyph-name="racute" unicode="&#x155;" horiz-adv-x="792" 
d="M807 1436l-250 -320h-266l176 320h340zM391 887q35 62 105.5 100.5t136.5 38.5q77 0 123 -18l-17 -271q-64 23 -129 23q-54 0 -119.5 -41.5t-99.5 -110.5v-608h-289v1006h289v-119z" />
    <glyph glyph-name="uni0156" unicode="&#x156;" horiz-adv-x="1294" 
d="M885 594l375 -594h-369l-324 547h-155v-547h-303v1434h553q120 0 224 -59t166 -161.5t62 -222.5q0 -136 -61 -240t-168 -157zM412 1141v-332h219q74 0 125 48t51 120q0 69 -51 116.5t-125 47.5h-219zM311 -453l174 322h342l-249 -322h-267z" />
    <glyph glyph-name="uni0157" unicode="&#x157;" horiz-adv-x="792" 
d="M633 1026q77 0 123 -18l-17 -271q-64 23 -129 23q-54 0 -119.5 -41.5t-99.5 -110.5v-608h-289v1006h289v-119q35 62 105.5 100.5t136.5 38.5zM-63 -453l174 322h342l-250 -322h-266z" />
    <glyph glyph-name="Rcaron" unicode="&#x158;" horiz-adv-x="1294" 
d="M393 1544l-198 320h256l100 -142l102 142h256l-200 -320h-316zM1260 0h-369l-324 547h-155v-547h-303v1434h553q120 0 224 -59t166 -161.5t62 -222.5q0 -136 -61 -240t-168 -157zM412 1141v-332h219q74 0 125 48t51 120q0 69 -51 116.5t-125 47.5h-219z" />
    <glyph glyph-name="rcaron" unicode="&#x159;" horiz-adv-x="792" 
d="M279 1116l-199 320h256l100 -142l103 142h256l-201 -320h-315zM391 887q35 62 105.5 100.5t136.5 38.5q77 0 123 -18l-17 -271q-64 23 -129 23q-54 0 -119.5 -41.5t-99.5 -110.5v-608h-289v1006h289v-119z" />
    <glyph glyph-name="Sacute" unicode="&#x15a;" 
d="M989 1864l-250 -320h-266l176 320h340zM616 1454q138 0 285 -62.5t229 -156.5l-176 -240q-79 77 -176.5 121.5t-185.5 44.5q-77 0 -124.5 -32.5t-47.5 -84.5q0 -39 25 -68t67.5 -48.5t97.5 -36t115.5 -34t121.5 -39t116 -55t97.5 -77t67.5 -110t25 -150.5
q0 -86 -36 -165.5t-101.5 -142.5t-167 -100.5t-223.5 -37.5q-165 0 -333 77.5t-261 194.5l194 221q92 -95 187 -147t213 -52q97 0 157 41t60 109q0 38 -25 67t-67 47t-96.5 33.5t-115 32t-120.5 36.5t-114.5 52t-96.5 74t-67 107.5t-25 148.5q0 185 141 308.5t360 123.5z
" />
    <glyph glyph-name="sacute" unicode="&#x15b;" horiz-adv-x="950" 
d="M856 1436l-250 -320h-266l176 320h340zM500 -20q-274 0 -451 126l86 201q142 -106 340 -106q67 0 107.5 23t40.5 59q0 31 -30.5 51.5t-78.5 32.5t-106 24.5t-116 33t-106 51t-78.5 86t-31.5 130.5q-2 142 112 238t291 96q239 0 383 -115l-82 -209q-60 45 -146.5 75
t-166.5 30q-55 0 -89 -23t-34 -57q0 -26 24 -45.5t62.5 -31.5t88 -26.5t100.5 -28.5t100.5 -39t88.5 -56.5t63.5 -82.5t25.5 -116q0 -140 -111.5 -230.5t-285.5 -90.5z" />
    <glyph glyph-name="Scircumflex" unicode="&#x15c;" 
d="M616 1692l-100 -142h-256l199 320h315l201 -320h-256zM420 1044q0 -39 25 -68t67.5 -48.5t97.5 -36t115.5 -34t121.5 -39t116 -55t97.5 -77t67.5 -110t25 -150.5q0 -86 -36 -165.5t-101.5 -142.5t-167 -100.5t-223.5 -37.5q-165 0 -333 77.5t-261 194.5l194 221
q92 -95 187 -147t213 -52q97 0 157 41t60 109q0 38 -25 67t-67 47t-96.5 33.5t-115 32t-120.5 36.5t-114.5 52t-96.5 74t-67 107.5t-25 148.5q0 185 141 308.5t360 123.5q138 0 285 -62.5t229 -156.5l-176 -240q-79 77 -176.5 121.5t-185.5 44.5q-77 0 -124.5 -32.5
t-47.5 -84.5z" />
    <glyph glyph-name="scircumflex" unicode="&#x15d;" horiz-adv-x="950" 
d="M483 1264l-100 -142h-256l199 320h315l201 -320h-256zM344 727q0 -26 24 -45.5t62.5 -31.5t88 -26.5t100.5 -28.5t100.5 -39t88.5 -56.5t63.5 -82.5t25.5 -116q0 -140 -111.5 -230.5t-285.5 -90.5q-274 0 -451 126l86 201q142 -106 340 -106q67 0 107.5 23t40.5 59
q0 31 -30.5 51.5t-78.5 32.5t-106 24.5t-116 33t-106 51t-78.5 86t-31.5 130.5q-2 142 112 238t291 96q239 0 383 -115l-82 -209q-60 45 -146.5 75t-166.5 30q-55 0 -89 -23t-34 -57z" />
    <glyph glyph-name="Scedilla" unicode="&#x15e;" 
d="M1153 426q0 -160 -116 -286t-314 -154q51 -68 67 -137t-4 -125.5t-65.5 -99t-120.5 -62t-166 -11.5l-67 205q111 -2 164 32t46.5 86.5t-59.5 113.5q-143 22 -276 94t-211 170l194 221q92 -95 187 -147t213 -52q97 0 157 41t60 109q0 38 -25 67t-67 47t-96.5 33.5t-115 32
t-120.5 36.5t-114.5 52t-96.5 74t-67 107.5t-25 148.5q0 185 141 308.5t360 123.5q138 0 285 -62.5t229 -156.5l-176 -240q-79 77 -176.5 121.5t-185.5 44.5q-77 0 -124.5 -32.5t-47.5 -84.5q0 -39 25 -68t67.5 -48.5t97.5 -36t115.5 -34t121.5 -39t116 -55t97.5 -77
t67.5 -110t25 -150.5z" />
    <glyph glyph-name="scedilla" unicode="&#x15f;" horiz-adv-x="950" 
d="M897 301q0 -121 -84.5 -206.5t-224.5 -108.5q51 -68 67 -137t-4 -125.5t-65.5 -99t-120.5 -62t-166 -11.5l-68 205q83 -1 134.5 17.5t67 51.5t3.5 74.5t-51 86.5q-201 22 -336 120l86 201q142 -106 340 -106q67 0 107.5 23t40.5 59q0 31 -30.5 51.5t-78.5 32.5t-106 24.5
t-116 33t-106 51t-78.5 86t-31.5 130.5q-2 142 112 238t291 96q239 0 383 -115l-82 -209q-60 45 -146.5 75t-166.5 30q-55 0 -89 -23t-34 -57q0 -26 24 -45.5t62.5 -31.5t88 -26.5t100.5 -28.5t100.5 -39t88.5 -56.5t63.5 -82.5t25.5 -116z" />
    <glyph glyph-name="Scaron" unicode="&#x160;" 
d="M459 1544l-199 320h256l100 -142l103 142h256l-201 -320h-315zM420 1044q0 -39 25 -68t67.5 -48.5t97.5 -36t115.5 -34t121.5 -39t116 -55t97.5 -77t67.5 -110t25 -150.5q0 -86 -36 -165.5t-101.5 -142.5t-167 -100.5t-223.5 -37.5q-165 0 -333 77.5t-261 194.5l194 221
q92 -95 187 -147t213 -52q97 0 157 41t60 109q0 38 -25 67t-67 47t-96.5 33.5t-115 32t-120.5 36.5t-114.5 52t-96.5 74t-67 107.5t-25 148.5q0 185 141 308.5t360 123.5q138 0 285 -62.5t229 -156.5l-176 -240q-79 77 -176.5 121.5t-185.5 44.5q-77 0 -124.5 -32.5
t-47.5 -84.5z" />
    <glyph glyph-name="scaron" unicode="&#x161;" horiz-adv-x="950" 
d="M326 1116l-199 320h256l100 -142l103 142h256l-201 -320h-315zM344 727q0 -26 24 -45.5t62.5 -31.5t88 -26.5t100.5 -28.5t100.5 -39t88.5 -56.5t63.5 -82.5t25.5 -116q0 -140 -111.5 -230.5t-285.5 -90.5q-274 0 -451 126l86 201q142 -106 340 -106q67 0 107.5 23
t40.5 59q0 31 -30.5 51.5t-78.5 32.5t-106 24.5t-116 33t-106 51t-78.5 86t-31.5 130.5q-2 142 112 238t291 96q239 0 383 -115l-82 -209q-60 45 -146.5 75t-166.5 30q-55 0 -89 -23t-34 -57z" />
    <glyph glyph-name="uni0162" unicode="&#x162;" horiz-adv-x="1226" 
d="M1186 1143h-420v-1116q54 -60 80.5 -123t25 -117.5t-27.5 -102t-72 -79.5t-114.5 -47t-149.5 -7l-66 205q86 -1 138 19.5t65.5 55t-3 78.5t-60.5 91h-119v1143h-418v291h1141v-291z" />
    <glyph glyph-name="uni0163" unicode="&#x163;" horiz-adv-x="811" 
d="M754 12q-47 -23 -111 -26q50 -68 65 -137t-5 -125.5t-65 -99t-120 -62t-166 -11.5l-67 205q95 -1 148.5 23.5t60.5 65.5t-21 92t-88 102q-86 50 -133 140t-47 214v338h-187v275h187v264h289v-264h247v-275h-247v-323q0 -69 45 -111.5t110 -42.5q50 0 90 14z" />
    <glyph glyph-name="Tcaron" unicode="&#x164;" horiz-adv-x="1228" 
d="M455 1544l-199 320h256l100 -142l103 142h256l-201 -320h-315zM1186 1434v-291h-420v-1143h-303v1143h-418v291h1141z" />
    <glyph glyph-name="tcaron" unicode="&#x165;" horiz-adv-x="811" 
d="M629 1552h301l-103 -436h-237zM649 254q50 0 90 14l15 -256q-58 -28 -148 -28q-180 0 -290.5 108.5t-110.5 300.5v338h-187v275h187v264h289v-264h247v-275h-247v-323q0 -69 45 -111.5t110 -42.5z" />
    <glyph glyph-name="Tbar" unicode="&#x166;" horiz-adv-x="1228" 
d="M1186 1143h-420v-330h190v-192h-190v-621h-303v621h-193v192h193v330h-418v291h1141v-291z" />
    <glyph glyph-name="tbar" unicode="&#x167;" horiz-adv-x="811" 
d="M739 268l15 -256q-58 -28 -148 -28q-180 0 -290.5 108.5t-110.5 300.5v29h-185v158h185v151h-187v275h187v264h289v-264h247v-275h-247v-151h211v-158h-211v-14q0 -69 45 -111.5t110 -42.5q50 0 90 14z" />
    <glyph glyph-name="Utilde" unicode="&#x168;" horiz-adv-x="1353" 
d="M240 1587q12 135 89.5 220t184.5 85q59 0 120.5 -27t106.5 -54t66 -27q32 0 52 27t22 71l233 -39q-15 -135 -93.5 -221t-182.5 -86q-63 0 -124.5 28t-107 55.5t-69.5 27.5q-29 0 -47 -28.5t-17 -72.5zM678 -18q-162 0 -292 74t-203.5 205t-73.5 294v879h303v-879
q0 -120 76 -199.5t190 -79.5t189 79.5t75 199.5v879h303v-879q0 -163 -73.5 -294t-203 -205t-290.5 -74z" />
    <glyph glyph-name="utilde" unicode="&#x169;" horiz-adv-x="1175" 
d="M444 1219q-29 0 -46 -28t-15 -73l-236 41q12 135 90.5 220t184.5 85q59 0 120.5 -27t107 -54t67.5 -27q31 0 51 27t23 71l231 -39q-13 -135 -93 -221t-184 -86q-62 0 -123.5 28t-107.5 55.5t-70 27.5zM786 1006h289v-1006h-289v119q-43 -64 -116.5 -101.5t-157.5 -37.5
q-191 0 -300.5 122t-109.5 336v568h289v-521q0 -103 52.5 -160t142.5 -57q59 0 113.5 30.5t86.5 82.5v625z" />
    <glyph glyph-name="Umacron" unicode="&#x16a;" horiz-adv-x="1353" 
d="M350 1554v232h656v-232h-656zM678 -18q-162 0 -292 74t-203.5 205t-73.5 294v879h303v-879q0 -120 76 -199.5t190 -79.5t189 79.5t75 199.5v879h303v-879q0 -163 -73.5 -294t-203 -205t-290.5 -74z" />
    <glyph glyph-name="umacron" unicode="&#x16b;" horiz-adv-x="1175" 
d="M913 1358v-232h-655v232h655zM786 1006h289v-1006h-289v119q-43 -64 -116.5 -101.5t-157.5 -37.5q-191 0 -300.5 122t-109.5 336v568h289v-521q0 -103 52.5 -160t142.5 -57q59 0 113.5 30.5t86.5 82.5v625z" />
    <glyph glyph-name="Ubreve" unicode="&#x16c;" horiz-adv-x="1353" 
d="M1020 1855q0 -151 -96 -241t-246 -90t-246 90t-96 241h219q0 -63 34.5 -102t88.5 -39t88.5 39t34.5 102h219zM678 -18q-162 0 -292 74t-203.5 205t-73.5 294v879h303v-879q0 -120 76 -199.5t190 -79.5t189 79.5t75 199.5v879h303v-879q0 -163 -73.5 -294t-203 -205
t-290.5 -74z" />
    <glyph glyph-name="ubreve" unicode="&#x16d;" horiz-adv-x="1175" 
d="M586 1096q-150 0 -246 90t-96 241h219q0 -63 34.5 -102t88.5 -39q53 0 88 39.5t35 101.5h219q-1 -151 -97 -241t-245 -90zM786 1006h289v-1006h-289v119q-43 -64 -116.5 -101.5t-157.5 -37.5q-191 0 -300.5 122t-109.5 336v568h289v-521q0 -103 52.5 -160t142.5 -57
q59 0 113.5 30.5t86.5 82.5v625z" />
    <glyph glyph-name="Uring" unicode="&#x16e;" horiz-adv-x="1353" 
d="M678 1532q-124 0 -207.5 80.5t-83.5 199.5q0 120 83.5 201.5t207.5 81.5t208.5 -81.5t84.5 -201.5q0 -119 -84.5 -199.5t-208.5 -80.5zM678 1700q49 0 83 32.5t34 79.5q0 49 -33.5 82t-83.5 33t-83.5 -33t-33.5 -82q0 -47 34 -79.5t83 -32.5zM678 -18q-162 0 -292 74
t-203.5 205t-73.5 294v879h303v-879q0 -120 76 -199.5t190 -79.5t189 79.5t75 199.5v879h303v-879q0 -163 -73.5 -294t-203 -205t-290.5 -74z" />
    <glyph glyph-name="uring" unicode="&#x16f;" horiz-adv-x="1175" 
d="M586 1104q-123 0 -207 81t-84 199q0 120 84 201.5t207 81.5q124 0 208.5 -81.5t84.5 -201.5q0 -119 -84.5 -199.5t-208.5 -80.5zM586 1499q-50 0 -82.5 -32.5t-32.5 -82.5q0 -47 33 -79.5t82 -32.5q51 0 85 32.5t34 79.5q0 49 -34 82t-85 33zM786 1006h289v-1006h-289
v119q-43 -64 -116.5 -101.5t-157.5 -37.5q-191 0 -300.5 122t-109.5 336v568h289v-521q0 -103 52.5 -160t142.5 -57q59 0 113.5 30.5t86.5 82.5v625z" />
    <glyph glyph-name="Uhungarumlaut" unicode="&#x170;" horiz-adv-x="1353" 
d="M594 1544l125 326h-297l-123 -326h295zM1038 1544l125 326h-297l-125 -326h297zM678 -18q-162 0 -292 74t-203.5 205t-73.5 294v879h303v-879q0 -120 76 -199.5t190 -79.5t189 79.5t75 199.5v879h303v-879q0 -163 -73.5 -294t-203 -205t-290.5 -74z" />
    <glyph glyph-name="uhungarumlaut" unicode="&#x171;" horiz-adv-x="1175" 
d="M627 1442l-123 -326h-297l125 326h295zM1071 1442l-125 -326h-295l125 326h295zM786 1006h289v-1006h-289v119q-43 -64 -116.5 -101.5t-157.5 -37.5q-191 0 -300.5 122t-109.5 336v568h289v-521q0 -103 52.5 -160t142.5 -57q59 0 113.5 30.5t86.5 82.5v625z" />
    <glyph glyph-name="Uogonek" unicode="&#x172;" horiz-adv-x="1353" 
d="M942 1434h303v-879q0 -211 -120.5 -364t-313.5 -195q-55 -15 -87 -44.5t-32 -64.5q0 -29 22.5 -47t59.5 -18q36 0 74 14l72 -182q-40 -22 -107 -35.5t-133 -13.5q-105 0 -171.5 60.5t-66.5 154.5q0 99 74 182q-183 50 -295 200.5t-112 352.5v879h303v-879
q0 -120 76 -199.5t190 -79.5t189 79.5t75 199.5v879z" />
    <glyph glyph-name="uogonek" unicode="&#x173;" horiz-adv-x="1175" 
d="M1096 -164l71 -182q-40 -22 -106.5 -35.5t-132.5 -13.5q-105 0 -171.5 60.5t-66.5 154.5q0 114 96 207v92q-43 -64 -116.5 -101.5t-157.5 -37.5q-191 0 -300.5 122t-109.5 336v568h289v-521q0 -103 52.5 -160t142.5 -57q59 0 113.5 30.5t86.5 82.5v625h289v-1006
q-62 -14 -98.5 -44.5t-36.5 -68.5q0 -29 22.5 -47t59.5 -18q36 0 74 14z" />
    <glyph glyph-name="Wcircumflex" unicode="&#x174;" horiz-adv-x="2078" 
d="M1038 1692l-100 -142h-256l199 320h315l201 -320h-256zM1743 1436h317l-475 -1436h-244l-301 922l-299 -922h-245l-480 1436h324l285 -924l297 924h243l297 -924z" />
    <glyph glyph-name="wcircumflex" unicode="&#x175;" horiz-adv-x="1615" 
d="M809 1264l-100 -142h-256l198 320h316l200 -320h-256zM1288 1006h311l-362 -1006h-227l-203 551l-205 -551h-223l-363 1006h310l168 -551l198 551h228l202 -551z" />
    <glyph glyph-name="Ycircumflex" unicode="&#x176;" horiz-adv-x="1394" 
d="M698 1692l-100 -142h-256l199 320h315l201 -320h-256zM1022 1434h354l-522 -828v-606h-305v606l-533 828h371l318 -521z" />
    <glyph glyph-name="ycircumflex" unicode="&#x177;" horiz-adv-x="1101" 
d="M569 1264l-100 -142h-256l199 320h315l201 -320h-256zM774 1006h311l-559 -1340h-309l186 416l-387 924h312l223 -588z" />
    <glyph glyph-name="Ydieresis" unicode="&#x178;" horiz-adv-x="1394" 
d="M485 1886q72 0 124.5 -51.5t52.5 -122.5q0 -72 -52.5 -124t-124.5 -52t-124 52t-52 124q0 71 52 122.5t124 51.5zM915 1886q72 0 124.5 -51.5t52.5 -122.5q0 -72 -52.5 -124t-124.5 -52q-71 0 -123.5 52t-52.5 124q0 70 52.5 122t123.5 52zM16 1434h371l318 -521l317 521
h354l-522 -828v-606h-305v606z" />
    <glyph glyph-name="Zacute" unicode="&#x179;" horiz-adv-x="1222" 
d="M981 1864l-250 -320h-266l176 320h340zM92 1434h1063v-205l-690 -938h696v-291h-1110v205l692 938h-651v291z" />
    <glyph glyph-name="zacute" unicode="&#x17a;" horiz-adv-x="1032" 
d="M874 1436l-249 -320h-267l177 320h339zM954 1006v-205l-487 -525h494v-276h-914v205l490 526h-453v275h870z" />
    <glyph glyph-name="Zdotaccent" unicode="&#x17b;" horiz-adv-x="1222" 
d="M610 1886q72 0 124 -51.5t52 -122.5q0 -72 -52 -124t-124 -52t-124 52t-52 124q0 71 52 122.5t124 51.5zM92 1434h1063v-205l-690 -938h696v-291h-1110v205l692 938h-651v291z" />
    <glyph glyph-name="zdotaccent" unicode="&#x17c;" horiz-adv-x="1032" 
d="M504 1493q72 0 124 -51.5t52 -122.5q0 -72 -52 -124t-124 -52t-124 52t-52 124q0 71 52 122.5t124 51.5zM954 1006v-205l-487 -525h494v-276h-914v205l490 526h-453v275h870z" />
    <glyph glyph-name="Zcaron" unicode="&#x17d;" horiz-adv-x="1222" 
d="M451 1544l-199 320h256l100 -142l103 142h256l-201 -320h-315zM465 291h696v-291h-1110v205l692 938h-651v291h1063v-205z" />
    <glyph glyph-name="zcaron" unicode="&#x17e;" horiz-adv-x="1032" 
d="M346 1116l-199 320h256l101 -142l102 142h256l-200 -320h-316zM467 276h494v-276h-914v205l490 526h-453v275h870v-205z" />
    <glyph glyph-name="longs" unicode="&#x17f;" horiz-adv-x="866" 
d="M252 0l-2 731h-199v275h199v55q0 194 115 300.5t321 106.5q47 0 103.5 -12t97.5 -33l-49 -266q-62 39 -152 39q-65 0 -106 -42t-41 -110v-313l2 -731h-289z" />
    <glyph glyph-name="uni0180" unicode="&#x180;" 
d="M688 1026q129 0 236.5 -69.5t169 -189.5t61.5 -263t-61.5 -263.5t-169 -190.5t-236.5 -70q-95 0 -177.5 38.5t-119.5 100.5v-119h-289v1128h-198v193h198v113h289v-113h199v-193h-199v-241q37 62 119.5 100.5t177.5 38.5zM625 254q105 0 176 71.5t71 178.5t-71 178.5
t-176 71.5q-75 0 -138 -36t-96 -93v-246q33 -55 96.5 -90t137.5 -35z" />
    <glyph glyph-name="florin" unicode="&#x192;" horiz-adv-x="765" 
d="M481 1006h248v-275h-248v-674q0 -193 -110 -302t-291 -109q-86 0 -148 30l15 254q47 -14 90 -14q66 0 111 43t45 111v661h-187v275h187v73q0 192 110.5 301t290.5 109q83 0 147 -31l-14 -254q-50 15 -90 15q-65 0 -110.5 -43.5t-45.5 -110.5v-59z" />
    <glyph glyph-name="uni01EA" unicode="&#x1ea;" horiz-adv-x="1601" 
d="M918 -12q-43 -15 -69 -42t-26 -59q0 -29 22.5 -47t59.5 -18q36 0 74 14l72 -182q-40 -22 -107 -35.5t-133 -13.5q-105 0 -171.5 60.5t-66.5 154.5q0 92 68 176q-254 53 -412.5 251t-158.5 470q0 207 95 376t262.5 265t373.5 96t374 -96t263.5 -265t95.5 -376
q0 -283 -173 -486t-443 -243zM381 717q0 -189 120 -316t300 -127t300 127t120 316t-120 315.5t-300 126.5t-300 -126.5t-120 -315.5z" />
    <glyph glyph-name="uni01EB" unicode="&#x1eb;" horiz-adv-x="1163" 
d="M700 -8q-49 -15 -77.5 -43t-28.5 -62q0 -29 22.5 -47t59.5 -18q36 0 74 14l71 -182q-40 -22 -106.5 -35.5t-132.5 -13.5q-105 0 -171.5 60.5t-66.5 154.5q0 99 76 184q-162 48 -261.5 183t-99.5 315q0 224 150 374t373 150q109 0 205.5 -40t166 -109.5t110 -167
t40.5 -207.5q0 -192 -112.5 -331.5t-291.5 -178.5zM342 502q0 -104 68.5 -175t171.5 -71q101 0 170 71t69 175q0 107 -68.5 177.5t-170.5 70.5q-103 0 -171.5 -70.5t-68.5 -177.5z" />
    <glyph glyph-name="Aringacute" unicode="&#x1fa;" horiz-adv-x="1411" 
d="M709 1532q-124 0 -207.5 80.5t-83.5 199.5q0 82 40 148t109 102l170 308h340l-237 -304q74 -34 117.5 -101.5t43.5 -152.5q0 -119 -84 -199.5t-208 -80.5zM709 1700q49 0 82.5 32.5t33.5 79.5q0 49 -33 82t-83 33t-83.5 -33t-33.5 -82q0 -47 34 -79.5t83 -32.5zM1069 0
l-90 240h-553l-92 -240h-322l570 1434h245l572 -1434h-330zM526 500h353l-174 458z" />
    <glyph glyph-name="aringacute" unicode="&#x1fb;" 
d="M659 1104q-123 0 -206.5 80.5t-83.5 199.5q0 82 40.5 148t110.5 102l168 310h342l-239 -306q74 -34 117.5 -102t43.5 -152q0 -119 -84.5 -199.5t-208.5 -80.5zM659 1272q51 0 85 32.5t34 79.5q0 49 -34 82t-85 33q-49 0 -81.5 -32.5t-32.5 -82.5q0 -48 32.5 -80t81.5 -32
zM825 1006h289v-1006h-289v119q-37 -62 -119.5 -100.5t-177.5 -38.5q-129 0 -237 70t-170 190.5t-62 263.5q0 218 136.5 370t332.5 152q94 0 177 -39t120 -100v119zM592 254q73 0 136.5 35t96.5 90v246q-33 57 -96.5 93t-136.5 36q-106 0 -178 -71.5t-72 -178.5t72 -178.5
t178 -71.5z" />
    <glyph glyph-name="AEacute" unicode="&#x1fc;" horiz-adv-x="1927" 
d="M1653 1864l-250 -320h-266l176 320h340zM1849 1143h-565v-258h504v-291h-504v-303h565v-291h-864v305h-465l-164 -305h-344l803 1434h1034v-291zM664 575h321v603z" />
    <glyph glyph-name="aeacute" unicode="&#x1fd;" horiz-adv-x="1961" 
d="M1313 1436l-250 -320h-266l176 320h340zM1903 547q0 -34 -11 -109h-729q20 -103 90 -158t177 -55q68 0 130.5 29t86.5 74l225 -138q-50 -89 -170 -149.5t-250 -60.5q-227 0 -338 147v-127h-289v119q-37 -62 -119.5 -100.5t-177.5 -38.5q-129 0 -237 70t-170 190.5
t-62 263.5q0 218 136.5 370t332.5 152q94 0 177 -39t120 -100v119h289v-125q109 145 334 145q189 0 322 -140t133 -339zM1165 616h451q-9 75 -71 126t-144 51q-95 0 -154.5 -46t-81.5 -131zM592 254q73 0 136.5 35t96.5 90v246q-33 57 -96.5 93t-136.5 36q-106 0 -178 -71.5
t-72 -178.5t72 -178.5t178 -71.5z" />
    <glyph glyph-name="uni0218" unicode="&#x218;" 
d="M616 1454q138 0 285 -62.5t229 -156.5l-176 -240q-79 77 -176.5 121.5t-185.5 44.5q-77 0 -124.5 -32.5t-47.5 -84.5q0 -39 25 -68t67.5 -48.5t97.5 -36t115.5 -34t121.5 -39t116 -55t97.5 -77t67.5 -110t25 -150.5q0 -86 -36 -165.5t-101.5 -142.5t-167 -100.5
t-223.5 -37.5q-165 0 -333 77.5t-261 194.5l194 221q92 -95 187 -147t213 -52q97 0 157 41t60 109q0 38 -25 67t-67 47t-96.5 33.5t-115 32t-120.5 36.5t-114.5 52t-96.5 74t-67 107.5t-25 148.5q0 185 141 308.5t360 123.5zM811 -131l-250 -322h-266l174 322h342z" />
    <glyph glyph-name="uni0219" unicode="&#x219;" horiz-adv-x="950" 
d="M500 -20q-274 0 -451 126l86 201q142 -106 340 -106q67 0 107.5 23t40.5 59q0 31 -30.5 51.5t-78.5 32.5t-106 24.5t-116 33t-106 51t-78.5 86t-31.5 130.5q-2 142 112 238t291 96q239 0 383 -115l-82 -209q-60 45 -146.5 75t-166.5 30q-55 0 -89 -23t-34 -57
q0 -26 24 -45.5t62.5 -31.5t88 -26.5t100.5 -28.5t100.5 -39t88.5 -56.5t63.5 -82.5t25.5 -116q0 -140 -111.5 -230.5t-285.5 -90.5zM676 -131l-250 -322h-266l174 322h342z" />
    <glyph glyph-name="uni021A" unicode="&#x21a;" horiz-adv-x="1228" 
d="M1186 1434v-291h-420v-1143h-303v1143h-418v291h1141zM313 -453l174 322h342l-249 -322h-267z" />
    <glyph glyph-name="uni021B" unicode="&#x21b;" horiz-adv-x="811" 
d="M606 -16q-180 0 -290.5 108.5t-110.5 300.5v338h-187v275h187v264h289v-264h247v-275h-247v-323q0 -69 45 -111.5t110 -42.5q50 0 90 14l15 -256q-58 -28 -148 -28zM213 -453l174 322h342l-250 -322h-266z" />
    <glyph glyph-name="uni0237" unicode="&#x237;" horiz-adv-x="493" 
d="M-45 -125q24 -4 35 -4q52 0 82 32t30 95v1008h289v-1037q0 -167 -101.5 -263.5t-275.5 -96.5q-41 0 -82 8z" />
    <glyph glyph-name="uni0243" unicode="&#x243;" horiz-adv-x="1206" 
d="M895 758q115 -23 189.5 -120t74.5 -228q0 -172 -132 -291t-318 -119h-600v352h-191v193h191v889h538q185 0 316 -112.5t131 -268.5q0 -97 -56.5 -181.5t-142.5 -113.5zM412 1143v-287h221q64 0 108.5 42.5t44.5 102.5t-44 101t-109 41h-221zM682 291q70 0 119 48.5
t49 117.5t-48.5 118.5t-115.5 49.5h-274v-334h270z" />
    <glyph glyph-name="circumflex" unicode="&#x2c6;" horiz-adv-x="919" 
d="M817 1122h-256l-102 142l-101 -142h-256l199 320h315z" />
    <glyph glyph-name="caron" unicode="&#x2c7;" horiz-adv-x="919" 
d="M561 1436h256l-201 -320h-315l-199 320h256l101 -142z" />
    <glyph glyph-name="breve" unicode="&#x2d8;" horiz-adv-x="888" 
d="M786 1427q-1 -151 -97 -241t-245 -90q-150 0 -246 90t-96 241h220q0 -63 34 -102t88 -39q53 0 88 39.5t35 101.5h219z" />
    <glyph glyph-name="dotaccent" unicode="&#x2d9;" horiz-adv-x="557" 
d="M279 1493q72 0 124 -51.5t52 -122.5q0 -72 -52 -124t-124 -52t-124.5 52t-52.5 124q0 71 52.5 122.5t124.5 51.5z" />
    <glyph glyph-name="ring" unicode="&#x2da;" horiz-adv-x="790" 
d="M393 1104q-123 0 -207 81t-84 199q0 120 84 201.5t207 81.5q125 0 210 -81.5t85 -201.5q0 -118 -85 -199t-210 -81zM393 1272q51 0 85 32.5t34 79.5q0 49 -34 82t-85 33q-49 0 -81.5 -32.5t-32.5 -82.5q0 -48 32.5 -80t81.5 -32z" />
    <glyph glyph-name="ogonek" unicode="&#x2db;" horiz-adv-x="681" 
d="M487 168v-168q-60 -14 -96.5 -44.5t-36.5 -68.5q0 -30 22 -47.5t60 -17.5q33 0 74 14l70 -182q-38 -22 -105 -35.5t-135 -13.5q-104 0 -171 60.5t-67 154.5q0 121 107.5 216.5t277.5 131.5z" />
    <glyph glyph-name="tilde" unicode="&#x2dc;" horiz-adv-x="1079" 
d="M102 1159q12 135 90 220t185 85q59 0 120.5 -27t106.5 -54t66 -27q32 0 51.5 26.5t21.5 71.5l234 -39q-15 -135 -94 -221t-183 -86q-63 0 -124.5 28t-107 55.5t-69.5 27.5q-29 0 -47 -28.5t-16 -72.5z" />
    <glyph glyph-name="hungarumlaut" unicode="&#x2dd;" horiz-adv-x="1069" 
d="M399 1116l123 326h-295l-125 -326h297zM842 1116l125 326h-295l-125 -326h295z" />
    <glyph glyph-name="gravecomb" unicode="&#x300;" horiz-adv-x="0" 
d="M-827 1436h340l176 -320h-267z" />
    <glyph glyph-name="acutecomb" unicode="&#x301;" horiz-adv-x="0" 
d="M-262 1436l-250 -320h-266l176 320h340z" />
    <glyph glyph-name="uni0302" unicode="&#x302;" horiz-adv-x="0" 
d="M-94 1122h-256l-103 142l-100 -142h-256l199 320h315z" />
    <glyph glyph-name="tildecomb" unicode="&#x303;" horiz-adv-x="0" 
d="M-1075 1159q12 135 89.5 220t184.5 85q59 0 120.5 -27t106.5 -54t66 -27q32 0 52 27t22 71l233 -39q-15 -135 -93.5 -221t-182.5 -86q-63 0 -124.5 28t-107 55.5t-69.5 27.5q-29 0 -47 -28.5t-17 -72.5z" />
    <glyph glyph-name="uni0304" unicode="&#x304;" horiz-adv-x="0" 
d="M-901 1126v232h655v-232h-655z" />
    <glyph glyph-name="uni0306" unicode="&#x306;" horiz-adv-x="0" 
d="M-207 1427q0 -151 -96 -241t-246 -90t-246 90t-96 241h219q0 -63 34.5 -102t88.5 -39t88.5 39t34.5 102h219z" />
    <glyph glyph-name="uni0307" unicode="&#x307;" horiz-adv-x="0" 
d="M-496 1493q72 0 124.5 -51.5t52.5 -122.5q0 -72 -52.5 -124t-124.5 -52t-124 52t-52 124q0 71 52 122.5t124 51.5z" />
    <glyph glyph-name="uni0308" unicode="&#x308;" horiz-adv-x="0" 
d="M-772 1493q72 0 124 -51.5t52 -122.5q0 -72 -52 -124t-124 -52t-124 52t-52 124q0 71 52 122.5t124 51.5zM-342 1493q72 0 124 -51.5t52 -122.5q0 -72 -52 -124t-124 -52q-71 0 -123.5 52t-52.5 124q0 70 52.5 122t123.5 52z" />
    <glyph glyph-name="uni030A" unicode="&#x30a;" horiz-adv-x="0" 
d="M-573 1104q-124 0 -207.5 80.5t-83.5 199.5q0 120 83.5 201.5t207.5 81.5t208 -81.5t84 -201.5q0 -119 -84 -199.5t-208 -80.5zM-573 1272q49 0 82.5 32.5t33.5 79.5q0 49 -33 82t-83 33t-83.5 -33t-33.5 -82q0 -47 34 -79.5t83 -32.5z" />
    <glyph glyph-name="uni030B" unicode="&#x30b;" horiz-adv-x="0" 
d="M-680 1116l125 326h-297l-123 -326h295zM-236 1116l125 326h-297l-124 -326h296z" />
    <glyph glyph-name="uni030C" unicode="&#x30c;" horiz-adv-x="0" 
d="M-442 1436h256l-201 -320h-315l-199 320h256l100 -142z" />
    <glyph glyph-name="uni0312" unicode="&#x312;" horiz-adv-x="0" 
d="M-471 1133l250 319h266l-176 -319h-340z" />
    <glyph glyph-name="uni0326" unicode="&#x326;" horiz-adv-x="0" 
d="M-90 -131l-250 -322h-266l174 322h342z" />
    <glyph glyph-name="uni0327" unicode="&#x327;" horiz-adv-x="0" 
d="M-449 49h216q61 -62 93 -127t33.5 -122t-23 -107t-71 -83.5t-116 -50t-152.5 -8.5l-68 205q78 -1 128.5 16t68 46.5t11.5 67t-37.5 80t-82.5 83.5z" />
    <glyph glyph-name="uni0328" unicode="&#x328;" horiz-adv-x="0" 
d="M-481 168v-168q-62 -14 -98.5 -44.5t-36.5 -68.5q0 -29 22 -47t59 -18q36 0 74 14l72 -182q-40 -22 -107 -35.5t-133 -13.5q-105 0 -171 60.5t-66 154.5q0 121 107.5 216.5t277.5 131.5z" />
    <glyph glyph-name="uni0394" unicode="&#x394;" horiz-adv-x="1218" 
d="M12 0v291l473 1143h246l475 -1143v-291h-1194zM332 291h549l-273 700z" />
    <glyph glyph-name="uni03A9" unicode="&#x3a9;" horiz-adv-x="1591" 
d="M109 0v291h249q-122 69 -189 195.5t-67 287.5q0 194 90 349.5t248.5 243t354.5 87.5q147 0 275.5 -51.5t220 -141t144 -216t52.5 -271.5q0 -162 -66 -288t-188 -195h252v-291h-604v291q140 70 217.5 194t77.5 273q0 186 -104 293.5t-277 107.5q-171 0 -275 -108
t-104 -293q0 -148 78 -272t219 -195v-291h-604z" />
    <glyph glyph-name="uni03BC" unicode="&#x3bc;" horiz-adv-x="1175" 
d="M786 1006h289v-1006h-289v119q-43 -64 -116.5 -101.5t-157.5 -37.5q-69 0 -121 14v-328h-289v1340h289v-521q0 -103 52.5 -160t142.5 -57q59 0 113.5 30.5t86.5 82.5v625z" />
    <glyph glyph-name="pi" unicode="&#x3c0;" horiz-adv-x="1495" 
d="M1436 731h-271v-336q0 -69 45.5 -111t110.5 -42q50 0 90 14l14 -256q-60 -29 -147 -29q-180 0 -290.5 109t-110.5 301v350h-265v-731h-288v731h-265v275h1377v-275z" />
    <glyph glyph-name="uni0E3F" unicode="&#xe3f;" horiz-adv-x="1347" 
d="M983 758q115 -23 189.5 -120t74.5 -228q0 -113 -61.5 -207.5t-164.5 -148.5t-224 -54h-33v-246h-277v246h-290v1434h290v245h277v-245q176 -10 296 -120.5t120 -260.5q0 -97 -56 -181.5t-141 -113.5zM874 1001q0 60 -45 101t-108 41h-221v-287h221q64 0 108.5 42.5
t44.5 102.5zM770 291q70 0 119 48.5t49 117.5t-48.5 118.5t-117.5 49.5h-272v-334h270z" />
    <glyph glyph-name="Wgrave" unicode="&#x1e80;" horiz-adv-x="2078" 
d="M678 1864h340l176 -320h-266zM1743 1436h317l-475 -1436h-244l-301 922l-299 -922h-245l-480 1436h324l285 -924l297 924h243l297 -924z" />
    <glyph glyph-name="wgrave" unicode="&#x1e81;" horiz-adv-x="1615" 
d="M449 1436h339l177 -320h-267zM379 0l-363 1006h310l168 -551l198 551h228l202 -551l166 551h311l-362 -1006h-227l-203 551l-205 -551h-223z" />
    <glyph glyph-name="Wacute" unicode="&#x1e82;" horiz-adv-x="2078" 
d="M1409 1864l-250 -320h-266l176 320h340zM1743 1436h317l-475 -1436h-244l-301 922l-299 -922h-245l-480 1436h324l285 -924l297 924h243l297 -924z" />
    <glyph glyph-name="wacute" unicode="&#x1e83;" horiz-adv-x="1615" 
d="M1180 1436l-250 -320h-266l176 320h340zM379 0l-363 1006h310l168 -551l198 551h228l202 -551l166 551h311l-362 -1006h-227l-203 551l-205 -551h-223z" />
    <glyph glyph-name="Wdieresis" unicode="&#x1e84;" horiz-adv-x="2078" 
d="M823 1886q72 0 124 -51.5t52 -122.5q0 -72 -52 -124t-124 -52t-124 52t-52 124q0 71 52 122.5t124 51.5zM1253 1886q72 0 124.5 -51.5t52.5 -122.5q0 -72 -52.5 -124t-124.5 -52q-71 0 -123.5 52t-52.5 124q0 70 52.5 122t123.5 52zM1743 1436h317l-475 -1436h-244
l-301 922l-299 -922h-245l-480 1436h324l285 -924l297 924h243l297 -924z" />
    <glyph glyph-name="wdieresis" unicode="&#x1e85;" horiz-adv-x="1615" 
d="M594 1493q72 0 124 -51.5t52 -122.5q0 -72 -52 -124t-124 -52t-124 52t-52 124q0 71 52 122.5t124 51.5zM1024 1493q72 0 124 -51.5t52 -122.5q0 -72 -52 -124t-124 -52q-71 0 -123.5 52t-52.5 124q0 70 52.5 122t123.5 52zM379 0l-363 1006h310l168 -551l198 551h228
l202 -551l166 551h311l-362 -1006h-227l-203 551l-205 -551h-223z" />
    <glyph glyph-name="uni1E9E" unicode="&#x1e9e;" horiz-adv-x="1288" 
d="M639 1454q224 0 375.5 -121t165.5 -299l-238 -225q133 -31 215 -129.5t82 -226.5q0 -186 -137.5 -319.5t-329.5 -133.5h-246v291h244q66 0 113 44.5t47 110.5q0 72 -45 115t-119 43h-195l-2 189l271 268q-18 42 -70 70t-117 28q-106 0 -172.5 -83t-66.5 -218v-858h-305
v858q0 268 144.5 432t385.5 164z" />
    <glyph glyph-name="Ygrave" unicode="&#x1ef2;" horiz-adv-x="1394" 
d="M340 1864h340l176 -320h-266zM16 1434h371l318 -521l317 521h354l-522 -828v-606h-305v606z" />
    <glyph glyph-name="ygrave" unicode="&#x1ef3;" horiz-adv-x="1101" 
d="M725 1116h-266l-250 320h340zM774 1006h311l-559 -1340h-309l186 416l-387 924h312l223 -588z" />
    <glyph glyph-name="uni2009" unicode="&#x2009;" horiz-adv-x="315" 
 />
    <glyph glyph-name="endash" unicode="&#x2013;" horiz-adv-x="1253" 
d="M102 397v271h1049v-271h-1049z" />
    <glyph glyph-name="emdash" unicode="&#x2014;" horiz-adv-x="2252" 
d="M102 397v271h2048v-271h-2048z" />
    <glyph glyph-name="quoteleft" unicode="&#x2018;" horiz-adv-x="569" 
d="M102 1171q0 47 54 152l151 295h162l-115 -295q42 -21 67 -61.5t25 -90.5q0 -73 -50 -122.5t-122 -49.5t-122 49.5t-50 122.5z" />
    <glyph glyph-name="quoteright" unicode="&#x2019;" horiz-adv-x="569" 
d="M467 1448q0 -47 -51 -152l-154 -297h-162l115 295q-42 20 -67 62t-25 92q0 72 50 121t122 49q73 0 122.5 -49t49.5 -121z" />
    <glyph glyph-name="quotesinglbase" unicode="&#x201a;" horiz-adv-x="569" 
d="M467 174q0 -30 -11.5 -61.5t-39.5 -89.5l-154 -297h-162l115 297q-42 21 -67 61t-25 90q0 72 50 122t122 50q73 0 122.5 -50t49.5 -122z" />
    <glyph glyph-name="quotedblleft" unicode="&#x201c;" horiz-adv-x="1009" 
d="M102 1171q0 47 54 152l151 295h162l-115 -295q42 -21 67 -61.5t25 -90.5q0 -73 -50 -122.5t-122 -49.5t-122 49.5t-50 122.5zM541 1171q0 49 53 152l151 295h162l-114 -295q42 -21 67 -61.5t25 -90.5q0 -73 -49.5 -122.5t-122.5 -49.5q-72 0 -122 49.5t-50 122.5z" />
    <glyph glyph-name="quotedblright" unicode="&#x201d;" horiz-adv-x="1009" 
d="M467 1448q0 -47 -51 -152l-154 -297h-162l115 295q-42 20 -67 62t-25 92q0 72 50 121t122 49q73 0 122.5 -49t49.5 -121zM907 1448q0 -49 -53 -152l-152 -297h-161l114 295q-42 20 -67 62t-25 92q0 72 49.5 121t122.5 49q72 0 122 -49t50 -121z" />
    <glyph glyph-name="quotedblbase" unicode="&#x201e;" horiz-adv-x="1009" 
d="M467 174q0 -30 -11.5 -61.5t-39.5 -89.5l-154 -297h-162l115 297q-42 21 -67 61t-25 90q0 72 50 122t122 50q73 0 122.5 -50t49.5 -122zM907 174q0 -48 -53 -151l-152 -297h-161l114 297q-42 21 -67 61t-25 90q0 72 49.5 122t122.5 50q72 0 122 -50t50 -122z" />
    <glyph glyph-name="dagger" unicode="&#x2020;" horiz-adv-x="956" 
d="M854 1163v-248h-244v-538h-260v538h-248v248h248v312h260v-312h244z" />
    <glyph glyph-name="daggerdbl" unicode="&#x2021;" horiz-adv-x="978" 
d="M854 915h-244v-356h244v-246h-244v-313h-260v313h-248v246h248v356h-248v248h248v312h260v-312h244v-248z" />
    <glyph glyph-name="bullet" unicode="&#x2022;" horiz-adv-x="780" 
d="M389 215q-123 0 -206 84t-83 207q0 124 83 206.5t206 82.5q124 0 207.5 -82.5t83.5 -206.5q0 -123 -84 -207t-207 -84z" />
    <glyph glyph-name="ellipsis" unicode="&#x2026;" horiz-adv-x="1529" 
d="M291 -20q-78 0 -132.5 53.5t-54.5 130.5q0 76 54.5 129t132.5 53q79 0 133.5 -52.5t54.5 -129.5t-54.5 -130.5t-133.5 -53.5zM774 -20q-79 0 -132.5 53.5t-53.5 130.5t53.5 129.5t132.5 52.5q78 0 132.5 -53t54.5 -129q0 -77 -54.5 -130.5t-132.5 -53.5zM1237 -20
q-78 0 -132 53.5t-54 130.5q0 76 54 129t132 53q79 0 133.5 -52.5t54.5 -129.5t-54.5 -130.5t-133.5 -53.5z" />
    <glyph glyph-name="perthousand" unicode="&#x2030;" horiz-adv-x="2195" 
d="M719 1141q0 -137 -88 -227.5t-221 -90.5q-132 0 -220 91t-88 227q0 135 88 224t220 89q133 0 221 -89t88 -224zM1116 1434h230l-953 -1434h-229zM532 1141q0 61 -33 99t-89 38t-88.5 -38t-32.5 -99t32.5 -99t88.5 -38t89 38t33 99zM1409 297q0 -136 -88.5 -226.5
t-220.5 -90.5t-220.5 90.5t-88.5 226.5q0 135 88.5 224t220.5 89t220.5 -89t88.5 -224zM2093 297q0 -137 -88 -227t-221 -90q-132 0 -219.5 90.5t-87.5 226.5q0 135 87.5 224t219.5 89q133 0 221 -89t88 -224zM1221 297q0 61 -32.5 98t-88.5 37t-89.5 -37t-33.5 -98
t33.5 -100t89.5 -39t88.5 39t32.5 100zM1905 297q0 61 -32.5 98t-88.5 37t-89.5 -37t-33.5 -98t33.5 -100t89.5 -39t88.5 39t32.5 100z" />
    <glyph glyph-name="guilsinglleft" unicode="&#x2039;" horiz-adv-x="786" 
d="M684 82l-584 403v189l584 405v-295l-317 -204l317 -199v-299z" />
    <glyph glyph-name="guilsinglright" unicode="&#x203a;" horiz-adv-x="792" 
d="M109 82v299l317 199l-317 204v295l583 -405v-189z" />
    <glyph glyph-name="fraction" unicode="&#x2044;" horiz-adv-x="495" 
d="M610 1434h230l-953 -1434h-229z" />
    <glyph glyph-name="Euro" unicode="&#x20ac;" horiz-adv-x="1677" 
d="M1348 506l276 -127q-35 -116 -127 -207.5t-223 -141.5t-279 -50q-275 0 -473.5 174t-240.5 442h-236v246h238q27 176 125.5 315t251.5 218t335 79q219 0 389.5 -104t223.5 -269l-271 -129q-39 95 -130.5 151t-211.5 56q-149 0 -255 -87t-142 -230h557l-63 -246h-494
q34 -145 141 -233.5t256 -88.5q129 0 223 62.5t130 169.5z" />
    <glyph glyph-name="uni20BD" unicode="&#x20bd;" horiz-adv-x="1353" 
d="M797 571h-224v-163h359v-230h-359v-178h-303v178h-225v230h225v163h-225v238h225v625h527q224 0 365 -119t141 -309q0 -192 -141 -313.5t-365 -121.5zM573 1196v-387h224q85 0 142.5 56.5t57.5 140.5q0 83 -57.5 136.5t-142.5 53.5h-224z" />
    <glyph glyph-name="uni2116" unicode="&#x2116;" horiz-adv-x="2580" 
d="M1944 1452q145 0 265 -68.5t188.5 -189.5t68.5 -268q0 -146 -68.5 -266t-188.5 -188.5t-265 -68.5q-146 0 -266 68.5t-188.5 188.5t-68.5 266q0 224 150 375t373 151zM109 1434h258l583 -836v836h303v-1434h-254l-587 836v-836h-303v1434zM1944 1174q-103 0 -171.5 -70.5
t-68.5 -177.5q0 -104 68.5 -174t171.5 -70q101 0 170 70t69 174q0 107 -68.5 177.5t-170.5 70.5zM2447 268v-272h-1011v272h1011z" />
    <glyph glyph-name="uni2117" unicode="&#x2117;" horiz-adv-x="1613" 
d="M805 1454q201 0 371 -99t269 -268.5t99 -369.5t-99 -369.5t-269 -268.5t-371 -99q-198 0 -367.5 99t-268.5 268.5t-99 369.5t99 369.5t268.5 268.5t367.5 99zM807 94q167 0 309.5 84t225.5 227.5t83 311.5t-83 311.5t-225.5 227t-309.5 83.5q-125 0 -239.5 -49.5
t-197.5 -133t-132.5 -198.5t-49.5 -241q0 -168 83 -311.5t226 -227.5t310 -84zM868 1120q119 0 197 -73t78 -185q0 -114 -78 -188t-197 -74h-127v-278h-178v798h305zM868 772q42 0 69.5 25.5t27.5 64.5q0 37 -28 62.5t-69 25.5h-127v-178h127z" />
    <glyph glyph-name="trademark" unicode="&#x2122;" horiz-adv-x="1765" 
d="M713 1434v-183h-246v-678h-193v678h-247v183h686zM1491 1434h213v-861h-193v428l-182 -428h-149l-183 428v-428h-192v861h211l241 -553z" />
    <glyph glyph-name="uni2126" unicode="&#x2126;" horiz-adv-x="1591" 
d="M109 0v291h249q-122 69 -189 195.5t-67 287.5q0 194 90 349.5t248.5 243t354.5 87.5q147 0 275.5 -51.5t220 -141t144 -216t52.5 -271.5q0 -162 -66 -288t-188 -195h252v-291h-604v291q140 70 217.5 194t77.5 273q0 186 -104 293.5t-277 107.5q-171 0 -275 -108
t-104 -293q0 -148 78 -272t219 -195v-291h-604z" />
    <glyph glyph-name="oneeighth" unicode="&#x215b;" horiz-adv-x="1617" 
d="M369 1434v-861h-193v609l-158 -92v217l222 127h129zM1065 1434h229l-952 -1434h-229zM1286 -10q-133 0 -219 74t-86 188q0 65 36.5 122t100.5 91q-48 27 -77 73.5t-29 98.5q0 101 77 166t197 65q119 0 196 -65t77 -166q0 -49 -29 -97t-78 -75q62 -30 99.5 -87.5
t37.5 -125.5q0 -114 -85.5 -188t-217.5 -74zM1286 551q42 0 69 22t27 56q0 35 -26.5 57.5t-69.5 22.5q-44 0 -71 -22.5t-27 -57.5q0 -34 27 -56t71 -22zM1286 168q53 0 88 29t35 73q0 46 -35 75.5t-88 29.5q-55 0 -89 -29.5t-34 -75.5q0 -43 35 -72.5t88 -29.5z" />
    <glyph glyph-name="threeeighths" unicode="&#x215c;" horiz-adv-x="1843" 
d="M186 1083l154 168h-299v183h577v-125l-194 -193q95 -5 160 -78.5t65 -177.5q0 -130 -89.5 -214.5t-227.5 -84.5q-126 0 -214 71.5t-102 180.5l174 57q7 -53 48 -87.5t94 -34.5t87 32.5t34 83.5q0 48 -33 79.5t-79 34.5t-95 -17zM1292 1434h230l-953 -1434h-229zM1511 -10
q-133 0 -219 74t-86 188q0 65 36.5 122t100.5 91q-48 27 -77 73.5t-29 98.5q0 101 77 166t197 65q119 0 196 -65t77 -166q0 -49 -29 -97t-78 -75q62 -30 100 -87.5t38 -125.5q0 -114 -86 -188t-218 -74zM1511 551q43 0 70 22t27 56q0 35 -27 57.5t-70 22.5q-44 0 -71 -22.5
t-27 -57.5q0 -34 27 -56t71 -22zM1511 168q53 0 88 29t35 73q0 46 -35 75.5t-88 29.5q-55 0 -88.5 -29.5t-33.5 -75.5q0 -43 34.5 -72.5t87.5 -29.5z" />
    <glyph glyph-name="fiveeighths" unicode="&#x215d;" horiz-adv-x="1832" 
d="M332 561q-123 0 -214 71.5t-106 180.5l176 55q13 -54 54 -87t90 -33q50 0 85.5 35t35.5 83q0 54 -34.5 88.5t-86.5 34.5q-75 0 -113 -47l-166 33l37 459h502v-172h-328l-16 -146q39 31 112 31q127 0 207 -76.5t80 -208.5q0 -126 -91.5 -213.5t-223.5 -87.5zM1280 1434
h229l-952 -1434h-229zM1501 -10q-132 0 -218.5 74t-86.5 188q0 65 37 122.5t102 90.5q-48 27 -78 73.5t-30 98.5q0 101 77.5 166t196.5 65t196 -65t77 -166q0 -50 -28 -97.5t-79 -74.5q62 -30 99.5 -87.5t37.5 -125.5q0 -114 -85.5 -188t-217.5 -74zM1501 551q44 0 71 22
t27 56q0 35 -27 57.5t-71 22.5q-43 0 -70.5 -22.5t-27.5 -57.5q0 -34 27.5 -56t70.5 -22zM1501 168q54 0 88.5 29t34.5 73q0 46 -34.5 75.5t-88.5 29.5t-88.5 -29.5t-34.5 -75.5q0 -43 35.5 -72.5t87.5 -29.5z" />
    <glyph glyph-name="seveneighths" unicode="&#x215e;" horiz-adv-x="1691" 
d="M18 1434h605v-129l-351 -732h-213l328 676h-369v185zM1139 1434h229l-952 -1434h-230zM1360 -10q-133 0 -219 74t-86 188q0 65 36.5 122t100.5 91q-48 27 -77.5 73.5t-29.5 98.5q0 101 77.5 166t197.5 65q119 0 195.5 -65t76.5 -166q0 -49 -28.5 -97t-77.5 -75
q62 -30 99.5 -87.5t37.5 -125.5q0 -114 -85.5 -188t-217.5 -74zM1360 551q42 0 69 22t27 56q0 35 -26.5 57.5t-69.5 22.5q-44 0 -71 -22.5t-27 -57.5q0 -34 27 -56t71 -22zM1360 168q53 0 88 29t35 73q0 46 -35 75.5t-88 29.5q-55 0 -89 -29.5t-34 -75.5q0 -43 35 -72.5
t88 -29.5z" />
    <glyph glyph-name="arrowleft" unicode="&#x2190;" horiz-adv-x="1669" 
d="M1567 772v-258h-975l385 -371l-184 -184l-691 684l691 686l184 -184l-387 -373h977z" />
    <glyph glyph-name="arrowup" unicode="&#x2191;" horiz-adv-x="1574" 
d="M1473 774l-185 -184l-370 385v-975h-259v977l-372 -387l-185 184l686 690z" />
    <glyph glyph-name="arrowright" unicode="&#x2192;" horiz-adv-x="1669" 
d="M877 1329l690 -686l-690 -684l-185 184l385 371h-975v258h977l-387 373z" />
    <glyph glyph-name="arrowdown" unicode="&#x2193;" horiz-adv-x="1574" 
d="M1288 852l185 -184l-687 -693l-684 693l185 184l370 -385v975h258v-977z" />
    <glyph glyph-name="uni2196" unicode="&#x2196;" horiz-adv-x="1331" 
d="M1229 246l-182 -180l-691 690l11 -537h-261l-4 973l973 -4v-260l-536 8z" />
    <glyph glyph-name="uni2197" unicode="&#x2197;" horiz-adv-x="1331" 
d="M256 1188l973 2l-6 -971h-260l10 535l-690 -691l-181 183l691 690l-537 -8v260z" />
    <glyph glyph-name="uni2198" unicode="&#x2198;" horiz-adv-x="1331" 
d="M256 0v260l537 -8l-691 690l181 180l690 -688l-10 535h260l6 -973z" />
    <glyph glyph-name="uni2199" unicode="&#x2199;" horiz-adv-x="1331" 
d="M1229 942l-690 -690l536 8v-260l-973 -4l4 973h261l-11 -537l691 690z" />
    <glyph glyph-name="partialdiff" unicode="&#x2202;" horiz-adv-x="1218" 
d="M1001 829q56 -90 84.5 -181.5t28.5 -166.5q0 -135 -69 -250.5t-187.5 -183t-257.5 -67.5q-138 0 -256.5 67.5t-188 183t-69.5 250.5q0 207 133.5 342t329.5 135q21 0 31 -2l-301 478h346zM600 268q92 0 154.5 62.5t62.5 152.5q0 85 -59 191q-70 26 -156 26
q-91 0 -156 -63.5t-65 -153.5t63 -152.5t156 -62.5z" />
    <glyph glyph-name="emptyset" unicode="&#x2205;" horiz-adv-x="1650" 
d="M324 6l-222 223l195 195q-86 143 -86 303q0 167 83 309t225.5 224.5t309.5 82.5q170 0 304 -86l194 195l221 -223l-192 -193q84 -143 84 -309q0 -125 -48.5 -238.5t-130 -195.5t-194.5 -130t-238 -48q-165 0 -309 88zM532 610l412 414q-51 33 -115 33q-137 0 -234 -97
t-97 -233q0 -65 34 -117zM829 401q135 0 229.5 95t94.5 231q0 63 -33 121l-411 -412q58 -35 120 -35z" />
    <glyph glyph-name="uni2206" unicode="&#x2206;" horiz-adv-x="1218" 
d="M12 0v291l473 1143h246l475 -1143v-291h-1194zM332 291h549l-273 700z" />
    <glyph glyph-name="product" unicode="&#x220f;" horiz-adv-x="1421" 
d="M1319 1434v-1434h-303v1143h-608v-1143h-306v1434h1217z" />
    <glyph glyph-name="summation" unicode="&#x2211;" horiz-adv-x="1269" 
d="M1167 1434v-291h-649l309 -426l-309 -426h649v-291h-1065v217l369 500l-369 500v217h1065z" />
    <glyph glyph-name="minus" unicode="&#x2212;" 
d="M1112 801v-271h-1010v271h1010z" />
    <glyph glyph-name="radical" unicode="&#x221a;" horiz-adv-x="1544" 
d="M1122 1434h320l-535 -1434h-250l-268 715h-287v291h500l182 -500z" />
    <glyph glyph-name="infinity" unicode="&#x221e;" horiz-adv-x="2023" 
d="M1411 1202q150 0 268 -73.5t180 -193.5t62 -261q0 -140 -62 -259.5t-180 -193.5t-268 -74q-130 0 -238.5 66t-160.5 156q-54 -91 -162 -156.5t-238 -65.5q-151 0 -269 74t-179.5 193.5t-61.5 259.5t61.5 260t179.5 194t269 74q128 0 236 -65t164 -156q55 92 163 156.5
t236 64.5zM627 426q92 0 166 64.5t102 183.5q-28 120 -102 186t-166 66q-102 0 -166 -70t-64 -182t63.5 -180t166.5 -68zM1399 426q101 0 164 68t63 180t-63.5 182t-163.5 70q-83 0 -153.5 -66t-98.5 -186q28 -118 98 -183t154 -65z" />
    <glyph glyph-name="integral" unicode="&#x222b;" horiz-adv-x="765" 
d="M594 1489q83 0 147 -31l-14 -254q-50 15 -90 15q-65 0 -110.5 -43.5t-45.5 -110.5v-1008q0 -193 -110 -302t-291 -109q-86 0 -148 30l15 254q47 -14 90 -14q66 0 111 43t45 111v1009q0 192 110.5 301t290.5 109z" />
    <glyph glyph-name="approxequal" unicode="&#x2248;" horiz-adv-x="1228" 
d="M346 666l-244 30q22 176 104.5 271.5t209.5 95.5q66 0 139.5 -30t133 -59.5t91.5 -29.5q78 0 99 146l249 -31q-28 -174 -112 -271.5t-207 -97.5q-65 0 -136 30t-129.5 59.5t-94.5 29.5q-79 0 -103 -143zM346 182l-244 31q22 176 104.5 272.5t209.5 96.5q66 0 139.5 -30
t133 -59.5t91.5 -29.5q78 0 99 143l249 -28q-28 -175 -112 -272t-207 -97q-51 0 -107.5 18.5t-96 41t-83.5 41t-73 18.5q-79 0 -103 -146z" />
    <glyph glyph-name="notequal" unicode="&#x2260;" 
d="M1112 782h-328l-96 -211h424v-272h-549l-108 -238h-260l108 238h-201v272h326l96 211h-422v271h547l103 225h260l-103 -225h203v-271z" />
    <glyph glyph-name="lessequal" unicode="&#x2264;" horiz-adv-x="1099" 
d="M997 393l-893 404v223l893 403v-293l-505 -221l505 -219v-297zM995 0h-893v270h893v-270z" />
    <glyph glyph-name="greaterequal" unicode="&#x2265;" horiz-adv-x="1099" 
d="M102 393v297l506 219l-506 221v293l893 -403v-223zM104 0v270h893v-270h-893z" />
    <glyph glyph-name="lozenge" unicode="&#x25ca;" horiz-adv-x="1220" 
d="M713 1434l405 -717l-405 -717h-207l-402 717l402 717h207zM608 291l236 426l-236 426l-237 -426z" />
    <glyph glyph-name="circle" unicode="&#x25cb;" horiz-adv-x="1613" 
d="M805 -20q-198 0 -367.5 99t-268.5 268.5t-99 369.5t99 369.5t268.5 268.5t367.5 99q201 0 371 -99t269 -268.5t99 -369.5t-99 -369.5t-269 -268.5t-371 -99zM807 94q167 0 309.5 84t225.5 227.5t83 311.5t-83 311.5t-225.5 227t-309.5 83.5q-125 0 -239.5 -49.5
t-197.5 -133t-132.5 -198.5t-49.5 -241q0 -168 83 -311.5t226 -227.5t310 -84z" />
    <glyph glyph-name="uni25CF" unicode="&#x25cf;" horiz-adv-x="1613" 
d="M807 -20q-200 0 -369.5 99t-268.5 268.5t-99 369.5t99 369.5t268.5 268.5t369.5 99t369.5 -99t268.5 -268.5t99 -369.5t-99 -369.5t-268.5 -268.5t-369.5 -99z" />
    <glyph glyph-name="D.ss16" horiz-adv-x="1503" 
d="M707 1434q204 0 370.5 -92t261.5 -255t95 -364q0 -205 -95 -370.5t-261.5 -259t-370.5 -93.5h-664v291h172v1143h492zM729 291q170 0 281.5 123t111.5 309q0 183 -110.5 301.5t-282.5 118.5h-209v-852h209z" />
    <glyph glyph-name="Eth.ss16" horiz-adv-x="1503" 
d="M707 1434q204 0 370.5 -92t261.5 -255t95 -364q0 -205 -95 -370.5t-261.5 -259t-370.5 -93.5h-664v291h172v330h-174v192h174v621h492zM729 291q170 0 281.5 123t111.5 309q0 183 -110.5 301.5t-282.5 118.5h-209v-330h207v-192h-207v-330h209z" />
    <glyph glyph-name="Dcaron.ss16" horiz-adv-x="1503" 
d="M547 1544l-199 320h256l101 -142l102 142h256l-201 -320h-315zM707 1434q204 0 370.5 -92t261.5 -255t95 -364q0 -205 -95 -370.5t-261.5 -259t-370.5 -93.5h-664v291h172v1143h492zM729 291q170 0 281.5 123t111.5 309q0 183 -110.5 301.5t-282.5 118.5h-209v-852h209z
" />
    <glyph glyph-name="Dcroat.ss16" horiz-adv-x="1503" 
d="M707 1434q204 0 370.5 -92t261.5 -255t95 -364q0 -205 -95 -370.5t-261.5 -259t-370.5 -93.5h-664v291h172v330h-174v192h174v621h492zM729 291q170 0 281.5 123t111.5 309q0 183 -110.5 301.5t-282.5 118.5h-209v-330h207v-192h-207v-330h209z" />
    <glyph glyph-name="G.titl" horiz-adv-x="1576" 
d="M1536 811v-246h-137v-303q-99 -130 -256.5 -205t-347.5 -75q-151 0 -286 58t-231 157.5t-152 236.5t-56 289q0 204 94.5 371.5t260.5 263.5t368 96q218 0 388.5 -104.5t223.5 -268.5l-270 -129q-37 94 -130.5 150.5t-211.5 56.5q-180 0 -296 -123t-116 -313
q0 -195 117 -322t297 -127q186 0 299 93v198h-328v246h770z" />
    <glyph glyph-name="Gbreve.titl" horiz-adv-x="1576" 
d="M766 1524q-150 0 -246 90t-96 241h219q0 -63 34.5 -102t88.5 -39t88.5 39t34.5 102h219q0 -151 -96 -241t-246 -90zM1536 811v-246h-137v-303q-99 -130 -256.5 -205t-347.5 -75q-151 0 -286 58t-231 157.5t-152 236.5t-56 289q0 204 94.5 371.5t260.5 263.5t368 96
q218 0 388.5 -104.5t223.5 -268.5l-270 -129q-37 94 -130.5 150.5t-211.5 56.5q-180 0 -296 -123t-116 -313q0 -195 117 -322t297 -127q186 0 299 93v198h-328v246h770z" />
    <glyph glyph-name="Gcircumflex.titl" horiz-adv-x="1576" 
d="M764 1692l-100 -142h-256l198 320h316l200 -320h-256zM1536 811v-246h-137v-303q-99 -130 -256.5 -205t-347.5 -75q-151 0 -286 58t-231 157.5t-152 236.5t-56 289q0 204 94.5 371.5t260.5 263.5t368 96q218 0 388.5 -104.5t223.5 -268.5l-270 -129q-37 94 -130.5 150.5
t-211.5 56.5q-180 0 -296 -123t-116 -313q0 -195 117 -322t297 -127q186 0 299 93v198h-328v246h770z" />
    <glyph glyph-name="uni0122.titl" horiz-adv-x="1576" 
d="M1536 811v-246h-137v-303q-99 -130 -256.5 -205t-347.5 -75q-151 0 -286 58t-231 157.5t-152 236.5t-56 289q0 204 94.5 371.5t260.5 263.5t368 96q218 0 388.5 -104.5t223.5 -268.5l-270 -129q-37 94 -130.5 150.5t-211.5 56.5q-180 0 -296 -123t-116 -313
q0 -195 117 -322t297 -127q186 0 299 93v198h-328v246h770zM492 -453l174 322h342l-250 -322h-266z" />
    <glyph glyph-name="Gdotaccent.titl" horiz-adv-x="1576" 
d="M766 1536q-72 0 -124 52t-52 124q0 71 52 122.5t124 51.5t124 -51.5t52 -122.5q0 -72 -52 -124t-124 -52zM1536 811v-246h-137v-303q-99 -130 -256.5 -205t-347.5 -75q-151 0 -286 58t-231 157.5t-152 236.5t-56 289q0 204 94.5 371.5t260.5 263.5t368 96
q218 0 388.5 -104.5t223.5 -268.5l-270 -129q-37 94 -130.5 150.5t-211.5 56.5q-180 0 -296 -123t-116 -313q0 -195 117 -322t297 -127q186 0 299 93v198h-328v246h770z" />
    <glyph glyph-name="I.titl" horiz-adv-x="739" 
d="M664 1159h-142v-868h142v-291h-588v291h141v868h-141v291h588v-291z" />
    <glyph glyph-name="IJ.titl" horiz-adv-x="1556" 
d="M76 1159v291h588v-291h-142v-868h142v-291h-588v291h141v868h-141zM1458 1450v-291h-133v-772q0 -181 -111.5 -292t-281.5 -111q-85 0 -144 10l17 280q12 -2 37 -2q87 0 132.5 46t45.5 151v690h-150v291h588z" />
    <glyph glyph-name="Iacute.titl" horiz-adv-x="739" 
d="M741 1864l-249 -320h-267l176 320h340zM76 1159v291h588v-291h-142v-868h142v-291h-588v291h141v868h-141z" />
    <glyph glyph-name="Iacute_J.loclNLD" horiz-adv-x="1202" 
d="M631 1864l-250 -320h-266l176 320h340zM1323 1864l-250 -320h-266l176 320h340zM109 1434h303v-1434h-303v1434zM586 274q12 -2 37 -2q87 0 132.5 46t45.5 151v965h305v-1047q0 -181 -111.5 -292t-281.5 -111q-85 0 -144 10z" />
    <glyph glyph-name="Ibreve.titl" horiz-adv-x="739" 
d="M371 1524q-150 0 -246 90t-96 241h219q0 -63 34.5 -102t88.5 -39t88.5 39t34.5 102h219q0 -151 -96 -241t-246 -90zM76 1159v291h588v-291h-142v-868h142v-291h-588v291h141v868h-141z" />
    <glyph glyph-name="Icircumflex.titl" horiz-adv-x="739" 
d="M369 1692l-101 -142h-256l199 320h315l201 -320h-256zM76 1159v291h588v-291h-142v-868h142v-291h-588v291h141v868h-141z" />
    <glyph glyph-name="Idieresis.titl" horiz-adv-x="739" 
d="M332 1712q0 -72 -52 -124t-124 -52t-124 52t-52 124q0 71 52 122.5t124 51.5t124 -51.5t52 -122.5zM586 1886q72 0 124 -51.5t52 -122.5q0 -72 -52 -124t-124 -52q-71 0 -123.5 52t-52.5 124q0 70 52.5 122t123.5 52zM76 1159v291h588v-291h-142v-868h142v-291h-588v291
h141v868h-141z" />
    <glyph glyph-name="Idotaccent.titl" horiz-adv-x="739" 
d="M371 1536q-72 0 -124 52t-52 124q0 71 52 122.5t124 51.5t124 -51.5t52 -122.5q0 -72 -52 -124t-124 -52zM664 1159h-142v-868h142v-291h-588v291h141v868h-141v291h588v-291z" />
    <glyph glyph-name="Igrave.titl" horiz-adv-x="739" 
d="M526 1544h-266l-250 320h340zM664 1159h-142v-868h142v-291h-588v291h141v868h-141v291h588v-291z" />
    <glyph glyph-name="Imacron.titl" horiz-adv-x="739" 
d="M43 1786h655v-232h-655v232zM76 1159v291h588v-291h-142v-868h142v-291h-588v291h141v868h-141z" />
    <glyph glyph-name="Iogonek.titl" horiz-adv-x="739" 
d="M664 1159h-142v-868h142v-291h-109q-62 -14 -98.5 -44.5t-36.5 -68.5q0 -29 22.5 -47t59.5 -18q35 0 73 14l72 -182q-40 -22 -106.5 -35.5t-132.5 -13.5q-105 0 -171.5 60.5t-66.5 154.5q0 95 72 180h-166v291h141v868h-141v291h588v-291z" />
    <glyph glyph-name="Itilde.titl" horiz-adv-x="739" 
d="M573 1882l234 -39q-15 -135 -94 -221t-183 -86q-63 0 -124.5 28t-107 55.5t-69.5 27.5q-29 0 -47 -28.5t-16 -72.5l-234 41q12 135 90 220t185 85q59 0 120.5 -27t106.5 -54t66 -27q32 0 51.5 26.5t21.5 71.5zM76 1159v291h588v-291h-142v-868h142v-291h-588v291h141v868
h-141z" />
    <glyph glyph-name="J.ss17" horiz-adv-x="825" 
d="M719 1434v-1434h-670v291h365v1143h305z" />
    <glyph glyph-name="J.titl" horiz-adv-x="817" 
d="M719 1450v-291h-133v-772q0 -181 -111.5 -292t-281.5 -111q-85 0 -144 10l17 280q12 -2 36 -2q87 0 133 46t46 151v690h-150v291h588z" />
    <glyph glyph-name="Jcircumflex.ss17" horiz-adv-x="825" 
d="M563 1692l-100 -142h-256l199 320h315l201 -320h-256zM414 291v1143h305v-1434h-670v291h365z" />
    <glyph glyph-name="Jcircumflex.titl" horiz-adv-x="817" 
d="M428 1690l-100 -142h-256l198 322h316l198 -322h-256zM131 1159v291h588v-291h-133v-772q0 -181 -111.5 -292t-281.5 -111q-85 0 -144 10l17 280q12 -2 36 -2q87 0 133 46t46 151v690h-150z" />
    <glyph glyph-name="L.ss18" horiz-adv-x="1261" 
d="M1225 291v-291h-1133v291h174v1143h303v-1143h656z" />
    <glyph glyph-name="Lacute.ss18" horiz-adv-x="1261" 
d="M780 1864l-250 -320h-266l176 320h340zM1225 291v-291h-1133v291h174v1143h303v-1143h656z" />
    <glyph glyph-name="Lcaron.ss18" horiz-adv-x="1261" 
d="M1133 1552l-103 -436h-237l38 436h302zM1225 291v-291h-1133v291h174v1143h303v-1143h656z" />
    <glyph glyph-name="uni013B.ss18" horiz-adv-x="1261" 
d="M1225 291v-291h-1133v291h174v1143h303v-1143h656zM367 -453l174 322h342l-250 -322h-266z" />
    <glyph glyph-name="Ldot.ss18" horiz-adv-x="1261" 
d="M1225 291v-291h-1133v291h174v1143h303v-1143h656zM932 629q-78 0 -132.5 53.5t-54.5 130.5q0 76 54.5 129t132.5 53q79 0 132.5 -52.5t53.5 -129.5t-53.5 -130.5t-132.5 -53.5z" />
    <glyph glyph-name="Lslash.ss18" horiz-adv-x="1261" 
d="M1225 291v-291h-1133v291h174v282l-174 -81v262l174 82v598h303v-459l320 149v-260l-320 -149v-424h656z" />
    <glyph glyph-name="M.swsh" horiz-adv-x="2078" 
d="M1743 -2l-281 926l-297 -926h-243l-297 924l-285 -924h-324l480 1436h245l299 -922l301 922h244l475 -1436h-317z" />
    <glyph glyph-name="O.ss10" horiz-adv-x="1505" 
d="M1094 1434h305v-1434h-1290v1434h303v-2h682v2zM412 291h682v850h-682v-850z" />
    <glyph glyph-name="Oacute.ss10" horiz-adv-x="1505" 
d="M1124 1864l-250 -320h-266l176 320h340zM1094 1434h305v-1434h-1290v1434h303v-2h682v2zM412 291h682v850h-682v-850z" />
    <glyph glyph-name="Obreve.ss10" horiz-adv-x="1505" 
d="M754 1524q-150 0 -246 90t-96 241h219q0 -63 34.5 -102t88.5 -39t88.5 39t34.5 102h219q0 -151 -96 -241t-246 -90zM1094 1434h305v-1434h-1290v1434h303v-2h682v2zM412 291h682v850h-682v-850z" />
    <glyph glyph-name="Ocircumflex.ss10" horiz-adv-x="1505" 
d="M754 1692l-101 -142h-256l199 320h315l201 -320h-256zM1094 1434h305v-1434h-1290v1434h303v-2h682v2zM412 291h682v850h-682v-850z" />
    <glyph glyph-name="Odieresis.ss10" horiz-adv-x="1505" 
d="M539 1536q-72 0 -124.5 52t-52.5 124q0 71 52.5 122.5t124.5 51.5t124 -51.5t52 -122.5q0 -72 -52 -124t-124 -52zM969 1536q-71 0 -123.5 52t-52.5 124q0 70 52.5 122t123.5 52q72 0 124 -51.5t52 -122.5q0 -72 -52 -124t-124 -52zM1094 1434h305v-1434h-1290v1434h303
v-2h682v2zM412 291h682v850h-682v-850z" />
    <glyph glyph-name="Ograve.ss10" horiz-adv-x="1505" 
d="M909 1544h-266l-250 320h340zM1094 1434h305v-1434h-1290v1434h303v-2h682v2zM412 291h682v850h-682v-850z" />
    <glyph glyph-name="Ohungarumlaut.ss10" horiz-adv-x="1505" 
d="M797 1870l-125 -326h-295l123 326h297zM1241 1870l-125 -326h-297l125 326h297zM1094 1434h305v-1434h-1290v1434h303v-2h682v2zM412 291h682v850h-682v-850z" />
    <glyph glyph-name="Omacron.ss10" horiz-adv-x="1505" 
d="M1081 1786v-232h-655v232h655zM1094 1434h305v-1434h-1290v1434h303v-2h682v2zM412 291h682v850h-682v-850z" />
    <glyph glyph-name="uni01EA.ss10" horiz-adv-x="1505" 
d="M1094 1434h305v-1434h-457q-62 -14 -98.5 -44.5t-36.5 -68.5q0 -29 22.5 -47t59.5 -18q36 0 74 14l71 -182q-40 -22 -106.5 -35.5t-132.5 -13.5q-105 0 -171.5 60.5t-66.5 154.5q0 95 72 180h-520v1434h303v-2h682v2zM412 291h682v850h-682v-850z" />
    <glyph glyph-name="P_sq" horiz-adv-x="1249" 
d="M1141 1434v-924h-729v-510h-303v1434h1032zM838 801v342h-426v-342h426z" />
    <glyph glyph-name="P_sq_sinf" horiz-adv-x="745" 
d="M686 860v-561h-432v-299h-193v860h625zM494 485v191h-240v-191h240z" />
    <glyph glyph-name="S.ss12" horiz-adv-x="1126" 
d="M535 1434h419v-295h-477q-57 0 -93 -28.5t-36 -72.5t39.5 -75t102 -51t138.5 -40t152.5 -52.5t139 -78.5t102 -126.5t39.5 -188.5q0 -87 -31 -163t-91 -135.5t-156 -93.5t-218 -34h-479v295h496q78 0 124 35.5t46 95.5q0 39 -24 68t-65 48t-94 34.5t-112 32t-117.5 36.5
t-111.5 51.5t-94 73.5t-65 107t-24 147q0 182 136 296t354 114z" />
    <glyph glyph-name="Sacute.ss12" horiz-adv-x="1126" 
d="M963 1864l-250 -320h-267l177 320h340zM535 1434h419v-295h-477q-57 0 -93 -28.5t-36 -72.5t39.5 -75t102 -51t138.5 -40t152.5 -52.5t139 -78.5t102 -126.5t39.5 -188.5q0 -87 -31 -163t-91 -135.5t-156 -93.5t-218 -34h-479v295h496q78 0 124 35.5t46 95.5q0 39 -24 68
t-65 48t-94 34.5t-112 32t-117.5 36.5t-111.5 51.5t-94 73.5t-65 107t-24 147q0 182 136 296t354 114z" />
    <glyph glyph-name="Scaron.ss12" horiz-adv-x="1126" 
d="M432 1544l-199 320h256l101 -142l102 142h256l-200 -320h-316zM348 1038q0 -44 39.5 -75t102 -51t138.5 -40t152.5 -52.5t139 -78.5t102 -126.5t39.5 -188.5q0 -87 -31 -163t-91 -135.5t-156 -93.5t-218 -34h-479v295h496q78 0 124 35.5t46 95.5q0 39 -24 68t-65 48
t-94 34.5t-112 32t-117.5 36.5t-111.5 51.5t-94 73.5t-65 107t-24 147q0 182 136 296t354 114h419v-295h-477q-57 0 -93 -28.5t-36 -72.5z" />
    <glyph glyph-name="Scedilla.ss12" horiz-adv-x="1126" 
d="M1061 426q0 -109 -46 -199t-145 -151.5t-239 -73.5q47 -59 68.5 -119t17 -111.5t-32 -96t-73.5 -74t-112.5 -43.5t-144.5 -7l-67 205q114 -2 166.5 34t43 91.5t-68.5 118.5h-342v295h496q78 0 124 35.5t46 95.5q0 39 -24 68t-65 48t-94 34.5t-112 32t-117.5 36.5
t-111.5 51.5t-94 73.5t-65 107t-24 147q0 182 136 296t354 114h419v-295h-477q-57 0 -93 -28.5t-36 -72.5t39.5 -75t102 -51t138.5 -40t152.5 -52.5t139 -78.5t102 -126.5t39.5 -188.5z" />
    <glyph glyph-name="Scircumflex.ss12" horiz-adv-x="1126" 
d="M590 1692l-101 -142h-256l199 320h316l200 -320h-256zM348 1038q0 -44 39.5 -75t102 -51t138.5 -40t152.5 -52.5t139 -78.5t102 -126.5t39.5 -188.5q0 -87 -31 -163t-91 -135.5t-156 -93.5t-218 -34h-479v295h496q78 0 124 35.5t46 95.5q0 39 -24 68t-65 48t-94 34.5
t-112 32t-117.5 36.5t-111.5 51.5t-94 73.5t-65 107t-24 147q0 182 136 296t354 114h419v-295h-477q-57 0 -93 -28.5t-36 -72.5z" />
    <glyph glyph-name="uni0218.ss12" horiz-adv-x="1126" 
d="M535 1434h419v-295h-477q-57 0 -93 -28.5t-36 -72.5t39.5 -75t102 -51t138.5 -40t152.5 -52.5t139 -78.5t102 -126.5t39.5 -188.5q0 -87 -31 -163t-91 -135.5t-156 -93.5t-218 -34h-479v295h496q78 0 124 35.5t46 95.5q0 39 -24 68t-65 48t-94 34.5t-112 32t-117.5 36.5
t-111.5 51.5t-94 73.5t-65 107t-24 147q0 182 136 296t354 114zM731 -131l-250 -322h-266l174 322h342z" />
    <glyph glyph-name="T.titl" horiz-adv-x="1228" 
d="M1186 1143h-420v-852h141v-291h-585v291h141v852h-418v291h1141v-291z" />
    <glyph glyph-name="Tbar.titl" horiz-adv-x="1228" 
d="M1186 1143h-420v-330h188v-192h-188v-330h141v-291h-585v291h141v330h-195v192h195v330h-418v291h1141v-291z" />
    <glyph glyph-name="Tcaron.titl" horiz-adv-x="1228" 
d="M453 1544l-199 320h256l100 -142l103 142h256l-201 -320h-315zM1186 1143h-420v-852h141v-291h-585v291h141v852h-418v291h1141v-291z" />
    <glyph glyph-name="uni0162.titl" horiz-adv-x="1228" 
d="M1186 1143h-420v-852h141v-291h-180q68 -88 78.5 -175t-29 -150.5t-127 -99t-203.5 -24.5l-65 205q114 -2 166.5 34t42.5 91.5t-70 118.5h-198v291h141v852h-418v291h1141v-291z" />
    <glyph glyph-name="uni021A.titl" horiz-adv-x="1228" 
d="M1186 1143h-420v-852h141v-291h-585v291h141v852h-418v291h1141v-291zM307 -453l176 322h340l-250 -322h-266z" />
    <glyph glyph-name="Y.titl" horiz-adv-x="1394" 
d="M854 606v-315h141v-291h-587v291h141v315l-533 828h371l318 -521l317 521h354z" />
    <glyph glyph-name="Yacute.titl" horiz-adv-x="1394" 
d="M1053 1864l-250 -320h-266l174 320h342zM854 606v-315h141v-291h-587v291h141v315l-533 828h371l318 -521l317 521h354z" />
    <glyph glyph-name="Ycircumflex.titl" horiz-adv-x="1394" 
d="M682 1692l-102 -144h-256l200 322h314l200 -322h-256zM854 606v-315h141v-291h-587v291h141v315l-533 828h371l318 -521l317 521h354z" />
    <glyph glyph-name="Ydieresis.titl" horiz-adv-x="1394" 
d="M467 1536q-72 0 -124 52t-52 124q0 71 52 122.5t124 51.5t124 -51.5t52 -122.5q0 -72 -52 -124t-124 -52zM897 1536q-72 0 -124 52t-52 124q0 71 52 122.5t124 51.5t124 -51.5t52 -122.5q0 -72 -52 -124t-124 -52zM854 606v-315h141v-291h-587v291h141v315l-533 828h371
l318 -521l317 521h354z" />
    <glyph glyph-name="Ygrave.titl" horiz-adv-x="1394" 
d="M838 1544h-267l-249 320h340zM854 606v-315h141v-291h-587v291h141v315l-533 828h371l318 -521l317 521h354z" />
    <glyph glyph-name="a.ss01" horiz-adv-x="1028" 
d="M479 1026q212 0 338.5 -112.5t126.5 -295.5v-618h-272v117q-35 -62 -109.5 -99.5t-161.5 -37.5q-144 0 -235.5 86.5t-91.5 214.5q0 155 126 238t343 83h129v27q0 66 -53.5 107.5t-139.5 41.5q-82 0 -155.5 -31.5t-114.5 -84.5l-158 167q67 87 185 142t243 55zM453 205
q68 0 125 29t94 83v105h-144q-96 0 -149 -29.5t-53 -85.5q0 -46 34.5 -74t92.5 -28z" />
    <glyph glyph-name="a.ss02" horiz-adv-x="1042" 
d="M125 1006h815v-1006h-289v121q-33 -65 -108 -103t-166 -38q-143 0 -234.5 86.5t-91.5 214.5q0 155 126 238t343 83h131v160h-526v244zM430 205q70 0 128 30.5t93 86.5v100h-145q-97 0 -150 -29.5t-53 -85.5q0 -46 34.5 -74t92.5 -28z" />
    <glyph glyph-name="aacute.ss01" horiz-adv-x="1028" 
d="M893 1436l-250 -320h-266l176 320h340zM479 1026q212 0 338.5 -112.5t126.5 -295.5v-618h-272v117q-35 -62 -109.5 -99.5t-161.5 -37.5q-144 0 -235.5 86.5t-91.5 214.5q0 155 126 238t343 83h129v27q0 66 -53.5 107.5t-139.5 41.5q-82 0 -155.5 -31.5t-114.5 -84.5
l-158 167q67 87 185 142t243 55zM453 205q68 0 125 29t94 83v105h-144q-96 0 -149 -29.5t-53 -85.5q0 -46 34.5 -74t92.5 -28z" />
    <glyph glyph-name="aacute.ss02" horiz-adv-x="1042" 
d="M901 1436l-250 -320h-266l176 320h340zM125 1006h815v-1006h-289v121q-33 -65 -108 -103t-166 -38q-143 0 -234.5 86.5t-91.5 214.5q0 155 126 238t343 83h131v160h-526v244zM430 205q70 0 128 30.5t93 86.5v100h-145q-97 0 -150 -29.5t-53 -85.5q0 -46 34.5 -74
t92.5 -28z" />
    <glyph glyph-name="abreve.ss01" horiz-adv-x="1028" 
d="M522 1096q-150 0 -246 90t-96 241h219q0 -63 34.5 -102t88.5 -39t88.5 39t34.5 102h219q0 -151 -96 -241t-246 -90zM479 1026q212 0 338.5 -112.5t126.5 -295.5v-618h-272v117q-35 -62 -109.5 -99.5t-161.5 -37.5q-144 0 -235.5 86.5t-91.5 214.5q0 155 126 238t343 83
h129v27q0 66 -53.5 107.5t-139.5 41.5q-82 0 -155.5 -31.5t-114.5 -84.5l-158 167q67 87 185 142t243 55zM453 205q68 0 125 29t94 83v105h-144q-96 0 -149 -29.5t-53 -85.5q0 -46 34.5 -74t92.5 -28z" />
    <glyph glyph-name="abreve.ss02" horiz-adv-x="1042" 
d="M528 1096q-150 0 -246 90t-96 241h220q0 -63 34 -102t88 -39t88.5 39t34.5 102h219q0 -151 -96 -241t-246 -90zM125 1006h815v-1006h-289v121q-33 -65 -108 -103t-166 -38q-143 0 -234.5 86.5t-91.5 214.5q0 155 126 238t343 83h131v160h-526v244zM430 205q70 0 128 30.5
t93 86.5v100h-145q-97 0 -150 -29.5t-53 -85.5q0 -46 34.5 -74t92.5 -28z" />
    <glyph glyph-name="acircumflex.ss01" horiz-adv-x="1028" 
d="M520 1264l-100 -142h-256l198 320h316l201 -320h-256zM479 1026q212 0 338.5 -112.5t126.5 -295.5v-618h-272v117q-35 -62 -109.5 -99.5t-161.5 -37.5q-144 0 -235.5 86.5t-91.5 214.5q0 155 126 238t343 83h129v27q0 66 -53.5 107.5t-139.5 41.5q-82 0 -155.5 -31.5
t-114.5 -84.5l-158 167q67 87 185 142t243 55zM453 205q68 0 125 29t94 83v105h-144q-96 0 -149 -29.5t-53 -85.5q0 -46 34.5 -74t92.5 -28z" />
    <glyph glyph-name="acircumflex.ss02" horiz-adv-x="1042" 
d="M528 1264l-100 -142h-256l199 320h315l201 -320h-256zM125 1006h815v-1006h-289v121q-33 -65 -108 -103t-166 -38q-143 0 -234.5 86.5t-91.5 214.5q0 155 126 238t343 83h131v160h-526v244zM430 205q70 0 128 30.5t93 86.5v100h-145q-97 0 -150 -29.5t-53 -85.5
q0 -46 34.5 -74t92.5 -28z" />
    <glyph glyph-name="adieresis.ss01" horiz-adv-x="1028" 
d="M305 1143q-72 0 -124 52t-52 124q0 71 52 122.5t124 51.5t124 -51.5t52 -122.5q0 -72 -52 -124t-124 -52zM735 1143q-71 0 -123.5 52t-52.5 124q0 70 52.5 122t123.5 52q72 0 124 -51.5t52 -122.5q0 -72 -52 -124t-124 -52zM479 1026q212 0 338.5 -112.5t126.5 -295.5
v-618h-272v117q-35 -62 -109.5 -99.5t-161.5 -37.5q-144 0 -235.5 86.5t-91.5 214.5q0 155 126 238t343 83h129v27q0 66 -53.5 107.5t-139.5 41.5q-82 0 -155.5 -31.5t-114.5 -84.5l-158 167q67 87 185 142t243 55zM453 205q68 0 125 29t94 83v105h-144q-96 0 -149 -29.5
t-53 -85.5q0 -46 34.5 -74t92.5 -28z" />
    <glyph glyph-name="adieresis.ss02" horiz-adv-x="1042" 
d="M313 1143q-72 0 -124 52t-52 124q0 71 52 122.5t124 51.5t124 -51.5t52 -122.5q0 -72 -52 -124t-124 -52zM743 1143q-71 0 -123.5 52t-52.5 124q0 70 52.5 122t123.5 52q72 0 124.5 -51.5t52.5 -122.5q0 -72 -52.5 -124t-124.5 -52zM125 1006h815v-1006h-289v121
q-33 -65 -108 -103t-166 -38q-143 0 -234.5 86.5t-91.5 214.5q0 155 126 238t343 83h131v160h-526v244zM430 205q70 0 128 30.5t93 86.5v100h-145q-97 0 -150 -29.5t-53 -85.5q0 -46 34.5 -74t92.5 -28z" />
    <glyph glyph-name="agrave.ss01" horiz-adv-x="1028" 
d="M678 1116h-266l-250 320h340zM479 1026q212 0 338.5 -112.5t126.5 -295.5v-618h-272v117q-35 -62 -109.5 -99.5t-161.5 -37.5q-144 0 -235.5 86.5t-91.5 214.5q0 155 126 238t343 83h129v27q0 66 -53.5 107.5t-139.5 41.5q-82 0 -155.5 -31.5t-114.5 -84.5l-158 167
q67 87 185 142t243 55zM453 205q68 0 125 29t94 83v105h-144q-96 0 -149 -29.5t-53 -85.5q0 -46 34.5 -74t92.5 -28z" />
    <glyph glyph-name="agrave.ss02" horiz-adv-x="1021" 
d="M676 1116h-266l-250 320h340zM125 1006h815v-1006h-289v121q-33 -65 -108 -103t-166 -38q-143 0 -234.5 86.5t-91.5 214.5q0 155 126 238t343 83h131v160h-526v244zM430 205q70 0 128 30.5t93 86.5v100h-145q-97 0 -150 -29.5t-53 -85.5q0 -46 34.5 -74t92.5 -28z" />
    <glyph glyph-name="amacron.ss01" horiz-adv-x="1028" 
d="M850 1358v-232h-655v232h655zM479 1026q212 0 338.5 -112.5t126.5 -295.5v-618h-272v117q-35 -62 -109.5 -99.5t-161.5 -37.5q-144 0 -235.5 86.5t-91.5 214.5q0 155 126 238t343 83h129v27q0 66 -53.5 107.5t-139.5 41.5q-82 0 -155.5 -31.5t-114.5 -84.5l-158 167
q67 87 185 142t243 55zM453 205q68 0 125 29t94 83v105h-144q-96 0 -149 -29.5t-53 -85.5q0 -46 34.5 -74t92.5 -28z" />
    <glyph glyph-name="amacron.ss02" horiz-adv-x="1042" 
d="M856 1358v-232h-655v232h655zM125 1006h815v-1006h-289v121q-33 -65 -108 -103t-166 -38q-143 0 -234.5 86.5t-91.5 214.5q0 155 126 238t343 83h131v160h-526v244zM430 205q70 0 128 30.5t93 86.5v100h-145q-97 0 -150 -29.5t-53 -85.5q0 -46 34.5 -74t92.5 -28z" />
    <glyph glyph-name="aogonek.ss01" horiz-adv-x="1028" 
d="M965 -164l71 -182q-40 -22 -106.5 -35.5t-132.5 -13.5q-105 0 -171.5 60.5t-66.5 154.5q0 125 113 221v76q-35 -62 -109.5 -99.5t-161.5 -37.5q-144 0 -235.5 86.5t-91.5 214.5q0 155 126 238t343 83h129v27q0 66 -53.5 107.5t-139.5 41.5q-82 0 -155.5 -31.5
t-114.5 -84.5l-158 167q67 87 185 142t243 55q212 0 338.5 -112.5t126.5 -295.5v-618q-62 -14 -98.5 -44.5t-36.5 -68.5q0 -29 22.5 -47t59.5 -18q36 0 74 14zM453 205q68 0 125 29t94 83v105h-144q-96 0 -149 -29.5t-53 -85.5q0 -46 34.5 -74t92.5 -28z" />
    <glyph glyph-name="aogonek.ss02" horiz-adv-x="1042" 
d="M961 -164l71 -182q-40 -22 -106.5 -35.5t-132.5 -13.5q-105 0 -171.5 60.5t-66.5 154.5q0 114 96 207v94q-33 -65 -108 -103t-166 -38q-143 0 -234.5 86.5t-91.5 214.5q0 155 126 238t343 83h131v160h-526v244h815v-1006q-62 -14 -98.5 -44.5t-36.5 -68.5q0 -29 22.5 -47
t59.5 -18q36 0 74 14zM430 205q70 0 128 30.5t93 86.5v100h-145q-97 0 -150 -29.5t-53 -85.5q0 -46 34.5 -74t92.5 -28z" />
    <glyph glyph-name="aring.ss01" horiz-adv-x="1028" 
d="M522 1104q-124 0 -207.5 80.5t-83.5 199.5q0 120 83.5 201.5t207.5 81.5t208.5 -81.5t84.5 -201.5q0 -119 -84.5 -199.5t-208.5 -80.5zM522 1499q-50 0 -83 -33t-33 -82q0 -47 33.5 -79.5t82.5 -32.5t83 32.5t34 79.5q0 49 -33.5 82t-83.5 33zM479 1026
q212 0 338.5 -112.5t126.5 -295.5v-618h-272v117q-35 -62 -109.5 -99.5t-161.5 -37.5q-144 0 -235.5 86.5t-91.5 214.5q0 155 126 238t343 83h129v27q0 66 -53.5 107.5t-139.5 41.5q-82 0 -155.5 -31.5t-114.5 -84.5l-158 167q67 87 185 142t243 55zM453 205q68 0 125 29
t94 83v105h-144q-96 0 -149 -29.5t-53 -85.5q0 -46 34.5 -74t92.5 -28z" />
    <glyph glyph-name="aring.ss02" horiz-adv-x="1042" 
d="M530 1104q-124 0 -207 80.5t-83 199.5q0 120 83 201.5t207 81.5t208.5 -81.5t84.5 -201.5q0 -119 -84.5 -199.5t-208.5 -80.5zM530 1499q-50 0 -83 -33t-33 -82q0 -47 33.5 -79.5t82.5 -32.5t83 32.5t34 79.5q0 49 -33.5 82t-83.5 33zM125 1006h815v-1006h-289v121
q-33 -65 -108 -103t-166 -38q-143 0 -234.5 86.5t-91.5 214.5q0 155 126 238t343 83h131v160h-526v244zM430 205q70 0 128 30.5t93 86.5v100h-145q-97 0 -150 -29.5t-53 -85.5q0 -46 34.5 -74t92.5 -28z" />
    <glyph glyph-name="atilde.ss01" horiz-adv-x="1028" 
d="M381 1219q-29 0 -47 -28.5t-17 -72.5l-233 41q12 135 89.5 220t184.5 85q59 0 120.5 -27t106.5 -54t66 -27q32 0 52 27t22 71l233 -39q-15 -135 -93.5 -221t-182.5 -86q-63 0 -124.5 28t-107 55.5t-69.5 27.5zM479 1026q212 0 338.5 -112.5t126.5 -295.5v-618h-272v117
q-35 -62 -109.5 -99.5t-161.5 -37.5q-144 0 -235.5 86.5t-91.5 214.5q0 155 126 238t343 83h129v27q0 66 -53.5 107.5t-139.5 41.5q-82 0 -155.5 -31.5t-114.5 -84.5l-158 167q67 87 185 142t243 55zM453 205q68 0 125 29t94 83v105h-144q-96 0 -149 -29.5t-53 -85.5
q0 -46 34.5 -74t92.5 -28z" />
    <glyph glyph-name="atilde.ss02" horiz-adv-x="1042" 
d="M389 1219q-29 0 -47 -28.5t-16 -72.5l-234 41q12 135 90 220t185 85q59 0 120 -27t106 -54t66 -27q32 0 52 27t22 71l234 -39q-15 -135 -94 -221t-183 -86q-63 0 -124.5 28t-107 55.5t-69.5 27.5zM125 762v244h815v-1006h-289v121q-33 -65 -108 -103t-166 -38
q-143 0 -234.5 86.5t-91.5 214.5q0 155 126 238t343 83h131v160h-526zM430 205q70 0 128 30.5t93 86.5v100h-145q-97 0 -150 -29.5t-53 -85.5q0 -46 34.5 -74t92.5 -28z" />
    <glyph glyph-name="ae.ss01" horiz-adv-x="1775" 
d="M1716 547q0 -54 -8 -109h-729q20 -103 89.5 -158t174.5 -55q68 0 130.5 29t88.5 74l226 -138q-51 -92 -168.5 -151t-251.5 -59q-188 0 -324 126v-106h-272v117q-35 -62 -109.5 -99.5t-161.5 -37.5q-145 0 -236 87.5t-91 219.5q0 152 125.5 233.5t339.5 81.5h133v27
q0 66 -53.5 107.5t-139.5 41.5q-82 0 -155.5 -31.5t-114.5 -84.5l-158 167q67 87 185 142t243 55q126 0 225 -42.5t160 -119.5q133 162 371 162q131 0 241.5 -64t175 -174t64.5 -241zM981 616h451q-10 75 -72.5 126t-142.5 51q-95 0 -154.5 -46t-81.5 -131zM469 215
q58 0 113 25t90 69v113h-146q-84 0 -132 -27.5t-48 -77.5q0 -46 34.5 -74t88.5 -28z" />
    <glyph glyph-name="ae.ss02" horiz-adv-x="1732" 
d="M1673 547q0 -41 -10 -109h-729q20 -103 90 -158t176 -55q68 0 130.5 29t86.5 74l228 -138q-55 -99 -175.5 -154.5t-277.5 -55.5q-182 0 -313 131v-111h-228v121q-33 -65 -108 -103t-166 -38q-143 0 -234.5 87.5t-91.5 219.5q0 152 125.5 233.5t339.5 81.5h135v160h-526
v244h754v-95q121 115 309 115q204 0 344.5 -139t140.5 -340zM936 616h450q-9 75 -71 126t-144 51q-189 0 -235 -177zM446 215q57 0 114 26t91 72v109h-147q-84 0 -132 -27.5t-48 -77.5q0 -46 34 -74t88 -28z" />
    <glyph glyph-name="aeacute.ss01" horiz-adv-x="1775" 
d="M1280 1436l-250 -320h-266l176 320h340zM1716 547q0 -54 -8 -109h-729q20 -103 89.5 -158t174.5 -55q68 0 130.5 29t88.5 74l226 -138q-51 -92 -168.5 -151t-251.5 -59q-188 0 -324 126v-106h-272v117q-35 -62 -109.5 -99.5t-161.5 -37.5q-145 0 -236 87.5t-91 219.5
q0 152 125.5 233.5t339.5 81.5h133v27q0 66 -53.5 107.5t-139.5 41.5q-82 0 -155.5 -31.5t-114.5 -84.5l-158 167q67 87 185 142t243 55q126 0 225 -42.5t160 -119.5q133 162 371 162q131 0 241.5 -64t175 -174t64.5 -241zM981 616h451q-10 75 -72.5 126t-142.5 51
q-95 0 -154.5 -46t-81.5 -131zM469 215q58 0 113 25t90 69v113h-146q-84 0 -132 -27.5t-48 -77.5q0 -46 34.5 -74t88.5 -28z" />
    <glyph glyph-name="aeacute.ss02" horiz-adv-x="1732" 
d="M1237 1436l-250 -320h-266l176 320h340zM1673 547q0 -41 -10 -109h-729q20 -103 90 -158t176 -55q68 0 130.5 29t86.5 74l228 -138q-55 -99 -175.5 -154.5t-277.5 -55.5q-182 0 -313 131v-111h-228v121q-33 -65 -108 -103t-166 -38q-143 0 -234.5 87.5t-91.5 219.5
q0 152 125.5 233.5t339.5 81.5h135v160h-526v244h754v-95q121 115 309 115q204 0 344.5 -139t140.5 -340zM936 616h450q-9 75 -71 126t-144 51q-189 0 -235 -177zM446 215q57 0 114 26t91 72v109h-147q-84 0 -132 -27.5t-48 -77.5q0 -46 34 -74t88 -28z" />
    <glyph glyph-name="c.ss03" horiz-adv-x="937" 
d="M856 731h-465v-455h465v-276h-754v1006h754v-275z" />
    <glyph glyph-name="cacute.ss03" horiz-adv-x="937" 
d="M862 1436l-250 -320h-266l176 320h340zM856 731h-465v-455h465v-276h-754v1006h754v-275z" />
    <glyph glyph-name="ccaron.ss03" horiz-adv-x="937" 
d="M332 1116l-199 320h256l100 -142l103 142h256l-201 -320h-315zM856 731h-465v-455h465v-276h-754v1006h754v-275z" />
    <glyph glyph-name="ccedilla.ss03" horiz-adv-x="937" 
d="M856 731h-465v-455h465v-276h-227q55 -70 74 -141t0.5 -129t-64 -102t-121 -64.5t-168.5 -12.5l-67 205q114 -2 166.5 34t43 91.5t-68.5 118.5h-322v1006h754v-275z" />
    <glyph glyph-name="ccircumflex.ss03" horiz-adv-x="937" 
d="M489 1264l-100 -142h-256l199 320h315l201 -320h-256zM856 731h-465v-455h465v-276h-754v1006h754v-275z" />
    <glyph glyph-name="cdotaccent.ss03" horiz-adv-x="937" 
d="M492 1493q72 0 124 -51.5t52 -122.5q0 -72 -52 -124t-124 -52t-124.5 52t-52.5 124q0 71 52.5 122.5t124.5 51.5zM856 731h-465v-455h465v-276h-754v1006h754v-275z" />
    <glyph glyph-name="eth.alt" horiz-adv-x="1204" 
d="M1022 889q60 -97 91.5 -196t31.5 -179q0 -144 -74 -268t-200.5 -196.5t-274.5 -72.5q-147 0 -273 72.5t-200 196.5t-74 268q0 219 141.5 364.5t352.5 145.5q29 0 59 -6l-113 176l-243 -84l-58 160l207 71l-112 179h348l49 -80l293 100l57 -160l-258 -88zM596 268
q105 0 178.5 72t73.5 176q0 106 -73 179t-177 73q-106 0 -180 -73t-74 -179q0 -103 73.5 -175.5t178.5 -72.5z" />
    <glyph glyph-name="g.ss04" horiz-adv-x="1200" 
d="M809 1006h289v-1340h-873v242h584v272q-37 -57 -118 -94t-173 -37q-126 0 -231.5 65.5t-166.5 178t-61 246.5q0 133 61 245t166.5 177t231.5 65q92 0 173 -36t118 -93v109zM580 305q71 0 133.5 33t95.5 84v229q-33 53 -95 86t-134 33q-103 0 -173.5 -66t-70.5 -165
t70.5 -166.5t173.5 -67.5z" />
    <glyph glyph-name="gbreve.ss04" horiz-adv-x="1200" 
d="M606 1096q-150 0 -246 90t-96 241h219q0 -63 34.5 -102t88.5 -39t88.5 39t34.5 102h219q0 -151 -96 -241t-246 -90zM809 1006h289v-1340h-873v242h584v272q-37 -57 -118 -94t-173 -37q-126 0 -231.5 65.5t-166.5 178t-61 246.5q0 133 61 245t166.5 177t231.5 65
q92 0 173 -36t118 -93v109zM580 305q71 0 133.5 33t95.5 84v229q-33 53 -95 86t-134 33q-103 0 -173.5 -66t-70.5 -165t70.5 -166.5t173.5 -67.5z" />
    <glyph glyph-name="gcircumflex.ss04" horiz-adv-x="1200" 
d="M606 1264l-100 -142h-256l199 320h315l201 -320h-256zM809 1006h289v-1340h-873v242h584v272q-37 -57 -118 -94t-173 -37q-126 0 -231.5 65.5t-166.5 178t-61 246.5q0 133 61 245t166.5 177t231.5 65q92 0 173 -36t118 -93v109zM580 305q71 0 133.5 33t95.5 84v229
q-33 53 -95 86t-134 33q-103 0 -173.5 -66t-70.5 -165t70.5 -166.5t173.5 -67.5z" />
    <glyph glyph-name="uni0123.ss04" horiz-adv-x="1200" 
d="M979 1452l-176 -319h-340l250 319h266zM809 1006h289v-1340h-873v242h584v272q-37 -57 -118 -94t-173 -37q-126 0 -231.5 65.5t-166.5 178t-61 246.5q0 133 61 245t166.5 177t231.5 65q92 0 173 -36t118 -93v109zM580 305q71 0 133.5 33t95.5 84v229q-33 53 -95 86
t-134 33q-103 0 -173.5 -66t-70.5 -165t70.5 -166.5t173.5 -67.5z" />
    <glyph glyph-name="gdotaccent.ss04" horiz-adv-x="1200" 
d="M606 1143q-72 0 -124 52t-52 124q0 71 52 122.5t124 51.5t124 -51.5t52 -122.5q0 -72 -52 -124t-124 -52zM809 1006h289v-1340h-873v242h584v272q-37 -57 -118 -94t-173 -37q-126 0 -231.5 65.5t-166.5 178t-61 246.5q0 133 61 245t166.5 177t231.5 65q92 0 173 -36
t118 -93v109zM580 305q71 0 133.5 33t95.5 84v229q-33 53 -95 86t-134 33q-103 0 -173.5 -66t-70.5 -165t70.5 -166.5t173.5 -67.5z" />
    <glyph glyph-name="h.ss05" horiz-adv-x="1140" 
d="M391 1434v-428h647v-1006h-288v731h-359v-731h-289v1434h289z" />
    <glyph glyph-name="hbar.ss05" horiz-adv-x="1140" 
d="M391 1006h647v-1006h-288v731h-359v-731h-289v1122h-198v193h198v119h289v-119h199v-193h-199v-116z" />
    <glyph glyph-name="hcircumflex.ss05" horiz-adv-x="1140" 
d="M246 1692l-101 -142h-256l199 320h315l201 -320h-256zM391 1006h647v-1006h-288v731h-359v-731h-289v1434h289v-428z" />
    <glyph glyph-name="iacute_j.loclNLD" horiz-adv-x="987" 
d="M616 1436l-249 -320h-267l176 320h340zM1110 1436l-250 -320h-266l176 320h340zM102 1006h289v-1006h-289v1006zM451 -125q20 -4 34 -4q51 0 81 32t30 95v1008h289v-1037q0 -167 -101.5 -263.5t-275.5 -96.5q-41 0 -80 8z" />
    <glyph glyph-name="i.loclTRK" horiz-adv-x="493" 
d="M246 1493q72 0 124 -51.5t52 -122.5q0 -72 -52 -124t-124 -52t-124 52t-52 124q0 71 52 122.5t124 51.5zM102 1006h289v-1006h-289v1006z" />
    <glyph glyph-name="j.ss06" horiz-adv-x="493" 
d="M246 1493q72 0 124 -51.5t52 -122.5q0 -72 -52 -124t-124 -52t-124 52t-52 124q0 71 52 122.5t124 51.5zM391 1006v-1340h-289v1340h289z" />
    <glyph glyph-name="uni0237.ss06" horiz-adv-x="493" 
d="M391 1006v-1340h-289v1340h289z" />
    <glyph glyph-name="jcircumflex.ss06" horiz-adv-x="493" 
d="M246 1264l-101 -142h-256l199 320h315l201 -320h-256zM102 -334v1340h289v-1340h-289z" />
    <glyph glyph-name="l.ss07" horiz-adv-x="587" 
d="M391 1434v-1158h152v-276h-441v1434h289z" />
    <glyph glyph-name="lacute.ss07" horiz-adv-x="587" 
d="M625 1864l-250 -320h-266l176 320h340zM391 1434v-1158h152v-276h-441v1434h289z" />
    <glyph glyph-name="lcaron.ss07" horiz-adv-x="796" 
d="M807 1552l-102 -436h-238l39 436h301zM391 1434v-1158h152v-276h-441v1434h289z" />
    <glyph glyph-name="uni013C.ss07" horiz-adv-x="587" 
d="M391 1434v-1158h152v-276h-441v1434h289zM553 -131l-250 -322h-266l174 322h342z" />
    <glyph glyph-name="ldot.ss07" horiz-adv-x="837" 
d="M391 1434v-1158h152v-276h-441v1434h289zM653 588q-79 0 -132.5 53.5t-53.5 130.5t53.5 129.5t132.5 52.5q78 0 132.5 -53t54.5 -129q0 -77 -54.5 -130.5t-132.5 -53.5z" />
    <glyph glyph-name="lslash.ss07" horiz-adv-x="587" 
d="M391 276h152v-276h-441v584l-122 -58v267l122 57v584h289v-451l123 57v-266l-123 -57v-441z" />
    <glyph glyph-name="m.ss08" horiz-adv-x="1732" 
d="M1630 1006v-1006h-289v731h-331v-731h-289v731h-330v-731h-289v1006h1528z" />
    <glyph glyph-name="n.ss09" horiz-adv-x="1140" 
d="M1038 1006v-1006h-288v731h-359v-731h-289v1006h936z" />
    <glyph glyph-name="nacute.ss09" horiz-adv-x="1140" 
d="M940 1436l-250 -320h-266l176 320h340zM1038 1006v-1006h-288v731h-359v-731h-289v1006h936z" />
    <glyph glyph-name="ncaron.ss09" horiz-adv-x="1140" 
d="M412 1116l-199 320h256l100 -142l103 142h256l-201 -320h-315zM102 1006h936v-1006h-288v731h-359v-731h-289v1006z" />
    <glyph glyph-name="uni0146.ss09" horiz-adv-x="1140" 
d="M1038 1006v-1006h-288v731h-359v-731h-289v1006h936zM782 -131l-250 -322h-266l174 322h342z" />
    <glyph glyph-name="eng.ss09" horiz-adv-x="1153" 
d="M102 1006h936v-1037q0 -167 -101 -263.5t-275 -96.5q-23 0 -101 8l39 258q20 -4 37 -4q113 0 113 127v733h-359v-731h-289v1006z" />
    <glyph glyph-name="ntilde.ss09" horiz-adv-x="1140" 
d="M131 1159q12 135 90 220t185 85q59 0 120 -27t106 -54t66 -27q32 0 52 27t22 71l234 -39q-15 -135 -94 -221t-183 -86q-63 0 -124.5 28t-107 55.5t-69.5 27.5q-29 0 -47 -28.5t-16 -72.5zM1038 1006v-1006h-288v731h-359v-731h-289v1006h936z" />
    <glyph glyph-name="o.ss10" horiz-adv-x="1136" 
d="M1034 1006v-1006h-932v1006h932zM756 733h-375v-461h375v461z" />
    <glyph glyph-name="oacute.ss10" horiz-adv-x="1136" 
d="M940 1436l-250 -320h-266l176 320h340zM1034 1006v-1006h-932v1006h932zM756 733h-375v-461h375v461z" />
    <glyph glyph-name="obreve.ss10" horiz-adv-x="1136" 
d="M911 1427q0 -151 -96 -241t-246 -90t-246 90t-96 241h219q0 -63 34.5 -102t88.5 -39t88.5 39t34.5 102h219zM1034 1006v-1006h-932v1006h932zM756 733h-375v-461h375v461z" />
    <glyph glyph-name="ocircumflex.ss10" horiz-adv-x="1136" 
d="M569 1264l-100 -142h-256l199 320h315l201 -320h-256zM102 1006h932v-1006h-932v1006zM756 272v461h-375v-461h375z" />
    <glyph glyph-name="odieresis.ss10" horiz-adv-x="1136" 
d="M354 1493q72 0 124 -51.5t52 -122.5q0 -72 -52 -124t-124 -52t-124 52t-52 124q0 71 52 122.5t124 51.5zM784 1493q72 0 124.5 -51.5t52.5 -122.5q0 -72 -52.5 -124t-124.5 -52q-71 0 -123.5 52t-52.5 124q0 70 52.5 122t123.5 52zM1034 1006v-1006h-932v1006h932z
M756 733h-375v-461h375v461z" />
    <glyph glyph-name="ograve.ss10" horiz-adv-x="1136" 
d="M209 1436h340l176 -320h-266zM1034 1006v-1006h-932v1006h932zM756 733h-375v-461h375v461z" />
    <glyph glyph-name="ohungarumlaut.ss10" horiz-adv-x="1136" 
d="M487 1116l125 326h-297l-122 -326h294zM932 1116l125 326h-297l-125 -326h297zM1034 1006v-1006h-932v1006h932zM756 733h-375v-461h375v461z" />
    <glyph glyph-name="omacron.ss10" horiz-adv-x="1136" 
d="M242 1126v232h655v-232h-655zM1034 1006v-1006h-932v1006h932zM756 733h-375v-461h375v461z" />
    <glyph glyph-name="oslash.ss10" horiz-adv-x="1136" 
d="M102 1006h932v-1006h-932v1006zM702 770h-358v-397zM426 236h369v409z" />
    <glyph glyph-name="otilde.ss10" horiz-adv-x="1136" 
d="M131 1159q12 135 90 220t185 85q59 0 120 -27t106 -54t66 -27q32 0 52 27t22 71l234 -39q-15 -135 -94 -221t-183 -86q-63 0 -124.5 28t-107 55.5t-69.5 27.5q-29 0 -47 -28.5t-16 -72.5zM1034 1006v-1006h-932v1006h932zM756 733h-375v-461h375v461z" />
    <glyph glyph-name="oe.ss10" horiz-adv-x="1929" 
d="M1870 547q0 -48 -10 -113h-721q20 -102 87 -155.5t171 -53.5q68 0 130.5 29t86.5 74l227 -138q-55 -99 -175 -154.5t-277 -55.5q-204 0 -355 135v-115h-932v1006h932v-109q148 129 350 129q204 0 345 -139t141 -340zM1143 618h438q-11 75 -71 125t-142 50
q-89 0 -146.5 -46t-78.5 -129zM756 272v461h-375v-461h375z" />
    <glyph glyph-name="r.ss11" horiz-adv-x="755" 
d="M719 1006v-275h-330v-731h-287v1006h617z" />
    <glyph glyph-name="racute.ss11" horiz-adv-x="755" 
d="M760 1436l-250 -320h-266l176 320h340zM719 1006v-275h-330v-731h-287v1006h617z" />
    <glyph glyph-name="rcaron.ss11" horiz-adv-x="755" 
d="M231 1116l-198 320h256l100 -142l103 142h256l-201 -320h-316zM102 0v1006h617v-275h-330v-731h-287z" />
    <glyph glyph-name="uni0157.ss11" horiz-adv-x="755" 
d="M719 1006v-275h-330v-731h-287v1006h617zM446 -131l-249 -322h-267l174 322h342z" />
    <glyph glyph-name="s.ss12" horiz-adv-x="909" 
d="M489 0h-399v233h412q41 0 64.5 17.5t23.5 48.5q0 25 -30 42.5t-77.5 29t-105.5 23.5t-115.5 33.5t-105 52t-77.5 85t-30 127.5q0 148 107.5 231t296.5 83h358v-234h-395q-37 0 -57.5 -15.5t-20.5 -41.5q0 -24 29 -41.5t75.5 -30.5t102.5 -27.5t112 -38t102.5 -55.5
t75.5 -87.5t29 -127.5q0 -141 -98.5 -224t-276.5 -83z" />
    <glyph glyph-name="sacute.ss12" horiz-adv-x="909" 
d="M846 1436l-250 -320h-266l176 320h340zM489 0h-399v233h412q41 0 64.5 17.5t23.5 48.5q0 25 -30 42.5t-77.5 29t-105.5 23.5t-115.5 33.5t-105 52t-77.5 85t-30 127.5q0 148 107.5 231t296.5 83h358v-234h-395q-37 0 -57.5 -15.5t-20.5 -41.5q0 -24 29 -41.5t75.5 -30.5
t102.5 -27.5t112 -38t102.5 -55.5t75.5 -87.5t29 -127.5q0 -141 -98.5 -224t-276.5 -83z" />
    <glyph glyph-name="scaron.ss12" horiz-adv-x="909" 
d="M315 1116l-198 320h256l100 -142l102 142h256l-200 -320h-316zM338 715q0 -24 29 -41.5t75.5 -30.5t102.5 -27.5t112 -38t102.5 -55.5t75.5 -87.5t29 -127.5q0 -141 -98.5 -224t-276.5 -83h-399v233h412q41 0 64.5 17.5t23.5 48.5q0 25 -30 42.5t-77.5 29t-105.5 23.5
t-115.5 33.5t-105 52t-77.5 85t-30 127.5q0 148 107.5 231t296.5 83h358v-234h-395q-37 0 -57.5 -15.5t-20.5 -41.5z" />
    <glyph glyph-name="scedilla.ss12" horiz-adv-x="909" 
d="M864 307q0 -124 -77 -204t-220 -99q48 -59 69.5 -119t17.5 -112t-31.5 -96.5t-73 -74.5t-112 -44t-144.5 -7l-68 205q69 -1 117 12t69.5 36.5t23.5 55t-15.5 67.5t-52.5 73h-277v233h412q41 0 64.5 17.5t23.5 48.5q0 25 -30 42.5t-77.5 29t-105.5 23.5t-115.5 33.5
t-105 52t-77.5 85t-30 127.5q0 148 107.5 231t296.5 83h358v-234h-395q-37 0 -57.5 -15.5t-20.5 -41.5q0 -24 29 -41.5t75.5 -30.5t102.5 -27.5t112 -38t102.5 -55.5t75.5 -87.5t29 -127.5z" />
    <glyph glyph-name="scircumflex.ss12" horiz-adv-x="909" 
d="M473 1264l-100 -142h-256l198 320h316l200 -320h-256zM338 715q0 -24 29 -41.5t75.5 -30.5t102.5 -27.5t112 -38t102.5 -55.5t75.5 -87.5t29 -127.5q0 -141 -98.5 -224t-276.5 -83h-399v233h412q41 0 64.5 17.5t23.5 48.5q0 25 -30 42.5t-77.5 29t-105.5 23.5
t-115.5 33.5t-105 52t-77.5 85t-30 127.5q0 148 107.5 231t296.5 83h358v-234h-395q-37 0 -57.5 -15.5t-20.5 -41.5z" />
    <glyph glyph-name="uni0219.ss12" horiz-adv-x="909" 
d="M489 0h-399v233h412q41 0 64.5 17.5t23.5 48.5q0 25 -30 42.5t-77.5 29t-105.5 23.5t-115.5 33.5t-105 52t-77.5 85t-30 127.5q0 148 107.5 231t296.5 83h358v-234h-395q-37 0 -57.5 -15.5t-20.5 -41.5q0 -24 29 -41.5t75.5 -30.5t102.5 -27.5t112 -38t102.5 -55.5
t75.5 -87.5t29 -127.5q0 -141 -98.5 -224t-276.5 -83zM670 -131l-250 -322h-266l174 322h342z" />
    <glyph glyph-name="germandbls.calt" horiz-adv-x="1288" 
d="M639 1454q224 0 375.5 -121t165.5 -299l-238 -225q133 -31 215 -129.5t82 -226.5q0 -186 -137.5 -319.5t-329.5 -133.5h-246v291h244q66 0 113 44.5t47 110.5q0 72 -45 115t-119 43h-195l-2 189l271 268q-18 42 -70 70t-117 28q-106 0 -172.5 -83t-66.5 -218v-858h-305
v858q0 268 144.5 432t385.5 164z" />
    <glyph glyph-name="t.ss13" horiz-adv-x="774" 
d="M737 1006v-275h-209v-731h-288v731h-209v275h209v262h288v-262h209z" />
    <glyph glyph-name="tbar.ss13" horiz-adv-x="774" 
d="M737 731h-209v-184h156v-158h-156v-389h-288v389h-156v158h156v184h-209v275h209v262h288v-262h209v-275z" />
    <glyph glyph-name="tcaron.ss13" horiz-adv-x="774" 
d="M643 1552h301l-102 -436h-238zM528 1268v-262h209v-275h-209v-731h-288v731h-209v275h209v262h288z" />
    <glyph glyph-name="uni0163.ss13" horiz-adv-x="774" 
d="M737 731h-209v-713q76 -90 91.5 -180.5t-22.5 -156.5t-126.5 -103.5t-208.5 -26.5l-65 205q114 -2 166.5 34t42.5 91.5t-70 118.5h-96v731h-209v275h209v262h288v-262h209v-275z" />
    <glyph glyph-name="uni021B.ss13" horiz-adv-x="774" 
d="M528 1006h209v-275h-209v-731h-288v731h-209v275h209v262h288v-262zM82 -453l174 322h342l-250 -322h-266z" />
    <glyph glyph-name="u.ss14" horiz-adv-x="1175" 
d="M1067 1006v-539q0 -215 -133.5 -351t-345.5 -136q-211 0 -344 136t-133 351v539h286v-539q0 -97 51.5 -154t139.5 -57t139 57t51 154v539h289z" />
    <glyph glyph-name="u.ss15" horiz-adv-x="1140" 
d="M1038 0h-936v1006h289v-732h359v732h288v-1006z" />
    <glyph glyph-name="uacute.ss14" horiz-adv-x="1175" 
d="M961 1436l-250 -320h-267l177 320h340zM1067 1006v-539q0 -215 -133.5 -351t-345.5 -136q-211 0 -344 136t-133 351v539h286v-539q0 -97 51.5 -154t139.5 -57t139 57t51 154v539h289z" />
    <glyph glyph-name="uacute.ss15" horiz-adv-x="1140" 
d="M942 1436l-250 -320h-266l176 320h340zM1038 0h-936v1006h289v-732h359v732h288v-1006z" />
    <glyph glyph-name="ucircumflex.ss14" horiz-adv-x="1175" 
d="M590 1264l-101 -142h-256l199 320h316l200 -320h-256zM778 1006h289v-539q0 -215 -133.5 -351t-345.5 -136q-211 0 -344 136t-133 351v539h286v-539q0 -97 51.5 -154t139.5 -57t139 57t51 154v539z" />
    <glyph glyph-name="ucircumflex.ss15" horiz-adv-x="1140" 
d="M569 1264l-100 -142h-256l199 320h315l201 -320h-256zM750 1006h288v-1006h-936v1006h289v-732h359v732z" />
    <glyph glyph-name="udieresis.ss14" horiz-adv-x="1175" 
d="M375 1493q72 0 124 -51.5t52 -122.5q0 -72 -52 -124t-124 -52t-124 52t-52 124q0 71 52 122.5t124 51.5zM805 1493q72 0 124 -51.5t52 -122.5q0 -72 -52 -124t-124 -52q-71 0 -123.5 52t-52.5 124q0 70 52.5 122t123.5 52zM1067 1006v-539q0 -215 -133.5 -351
t-345.5 -136q-211 0 -344 136t-133 351v539h286v-539q0 -97 51.5 -154t139.5 -57t139 57t51 154v539h289z" />
    <glyph glyph-name="udieresis.ss15" horiz-adv-x="1140" 
d="M354 1493q72 0 124 -51.5t52 -122.5q0 -72 -52 -124t-124 -52t-124 52t-52 124q0 71 52 122.5t124 51.5zM784 1493q72 0 124.5 -51.5t52.5 -122.5q0 -72 -52.5 -124t-124.5 -52q-71 0 -123.5 52t-52.5 124q0 70 52.5 122t123.5 52zM1038 0h-936v1006h289v-732h359v732
h288v-1006z" />
    <glyph glyph-name="ugrave.ss14" horiz-adv-x="1175" 
d="M229 1436h340l176 -320h-266zM1067 1006v-539q0 -215 -133.5 -351t-345.5 -136q-211 0 -344 136t-133 351v539h286v-539q0 -97 51.5 -154t139.5 -57t139 57t51 154v539h289z" />
    <glyph glyph-name="ugrave.ss15" horiz-adv-x="1140" 
d="M211 1436h340l176 -320h-266zM1038 0h-936v1006h289v-732h359v732h288v-1006z" />
    <glyph glyph-name="uhungarumlaut.ss14" horiz-adv-x="1175" 
d="M508 1116l125 326h-297l-123 -326h295zM952 1116l125 326h-297l-125 -326h297zM1067 1006v-539q0 -215 -133.5 -351t-345.5 -136q-211 0 -344 136t-133 351v539h286v-539q0 -97 51.5 -154t139.5 -57t139 57t51 154v539h289z" />
    <glyph glyph-name="uhungarumlaut.ss15" horiz-adv-x="1140" 
d="M489 1116l125 326h-297l-122 -326h294zM934 1116l125 326h-297l-125 -326h297zM1038 0h-936v1006h289v-732h359v732h288v-1006z" />
    <glyph glyph-name="umacron.ss14" horiz-adv-x="1175" 
d="M262 1126v232h656v-232h-656zM1067 1006v-539q0 -215 -133.5 -351t-345.5 -136q-211 0 -344 136t-133 351v539h286v-539q0 -97 51.5 -154t139.5 -57t139 57t51 154v539h289z" />
    <glyph glyph-name="umacron.ss15" horiz-adv-x="1140" 
d="M244 1126v232h655v-232h-655zM1038 0h-936v1006h289v-732h359v732h288v-1006z" />
    <glyph glyph-name="uogonek.ss14" horiz-adv-x="1175" 
d="M778 1006h289v-539q0 -182 -98 -310t-262 -165q-50 -15 -78.5 -43t-28.5 -62q0 -29 22.5 -47t59.5 -18q36 0 74 14l71 -182q-40 -22 -106.5 -35.5t-132.5 -13.5q-105 0 -171.5 60.5t-66.5 154.5q0 102 76 184q-145 46 -230 170t-85 293v539h286v-539q0 -97 51.5 -154
t139.5 -57t139 57t51 154v539z" />
    <glyph glyph-name="uogonek.ss15" horiz-adv-x="1140" 
d="M778 0q-62 -14 -98.5 -44.5t-36.5 -68.5q0 -29 22.5 -47t59.5 -18q36 0 74 14l71 -182q-40 -22 -106.5 -35.5t-132.5 -13.5q-105 0 -171.5 60.5t-66.5 154.5q0 95 72 180h-363v1006h289v-732h359v732h288v-1006h-260z" />
    <glyph glyph-name="uring.ss14" horiz-adv-x="1175" 
d="M592 1104q-124 0 -207.5 80.5t-83.5 199.5q0 120 83.5 201.5t207.5 81.5t208.5 -81.5t84.5 -201.5q0 -119 -84.5 -199.5t-208.5 -80.5zM592 1272q49 0 83 32.5t34 79.5q0 49 -33.5 82t-83.5 33t-83.5 -33t-33.5 -82q0 -47 34 -79.5t83 -32.5zM1067 1006v-539
q0 -215 -133.5 -351t-345.5 -136q-211 0 -344 136t-133 351v539h286v-539q0 -97 51.5 -154t139.5 -57t139 57t51 154v539h289z" />
    <glyph glyph-name="uring.ss15" horiz-adv-x="1140" 
d="M571 1104q-124 0 -207 80.5t-83 199.5q0 120 83 201.5t207 81.5t208.5 -81.5t84.5 -201.5q0 -119 -84.5 -199.5t-208.5 -80.5zM571 1272q49 0 83 32.5t34 79.5q0 49 -33.5 82t-83.5 33t-83 -33t-33 -82q0 -47 33.5 -79.5t82.5 -32.5zM1038 0h-936v1006h289v-732h359v732
h288v-1006z" />
    <glyph glyph-name="utilde.ss14" horiz-adv-x="1175" 
d="M154 1159q12 135 89.5 220t184.5 85q59 0 120.5 -27t106.5 -54t66 -27q32 0 52 27t22 71l233 -39q-15 -135 -93.5 -221t-182.5 -86q-63 0 -124.5 28t-107 55.5t-69.5 27.5q-29 0 -47 -28.5t-17 -72.5zM1067 1006v-539q0 -215 -133.5 -351t-345.5 -136q-211 0 -344 136
t-133 351v539h286v-539q0 -97 51.5 -154t139.5 -57t139 57t51 154v539h289z" />
    <glyph glyph-name="utilde.ss15" horiz-adv-x="1140" 
d="M133 1159q12 135 90 220t185 85q59 0 120 -27t106 -54t66 -27q32 0 52 27t22 71l234 -39q-15 -135 -94 -221t-183 -86q-63 0 -124.5 28t-107 55.5t-69.5 27.5q-29 0 -47 -28.5t-16 -72.5zM1038 0h-936v1006h289v-732h359v732h288v-1006z" />
    <glyph glyph-name="uni00CD00A40301" horiz-adv-x="1202" 
d="M631 1864l-250 -320h-266l176 320h340zM1323 1864l-250 -320h-266l176 320h340zM109 1434h303v-1434h-303v1434zM586 274q12 -2 37 -2q87 0 132.5 46t45.5 151v965h305v-1047q0 -181 -111.5 -292t-281.5 -111q-85 0 -144 10z" />
    <glyph glyph-name="T_h.dlig" horiz-adv-x="2234" 
d="M1722 1026q190 0 300 -122.5t110 -334.5v-569h-289v520q0 103 -52 161t-142 58q-58 0 -112.5 -30.5t-86.5 -81.5v-627h-289v1143h-395v-1143h-303v1143h-418v291h1405v-545q43 63 116 100t156 37z" />
    <glyph glyph-name="T_i.dlig" horiz-adv-x="1511" 
d="M1186 1143h-420v-1143h-303v1143h-418v291h1141v-291zM1120 1006h289v-1006h-289v1006z" />
    <glyph glyph-name="f_f.dlig" horiz-adv-x="1478" 
d="M1196 1065v-59h248v-275h-248v-731h-289v731h-413v-731h-289v731h-187v275h187v73q0 192 110.5 301t290.5 109q84 0 148 -31l-15 -254q-50 15 -90 15q-65 0 -110 -43t-45 -111v-59h413v73q0 192 111 301t291 109q81 0 145 -31l-14 -254q-50 15 -88 15q-66 0 -111 -43
t-45 -111z" />
    <glyph glyph-name="f_f_i.dlig" horiz-adv-x="1998" 
d="M1896 1006v-1006h-288v731h-412v-731h-289v731h-413v-731h-289v731h-187v275h187v73q0 192 110.5 301t290.5 109q84 0 148 -31l-15 -254q-50 15 -90 15q-65 0 -110 -43t-45 -111v-59h413v73q0 192 111 301t291 109q81 0 145 -31l-14 -254q-50 15 -88 15q-66 0 -111 -43
t-45 -111v-59h700z" />
    <glyph glyph-name="f_f_t.dlig" horiz-adv-x="2217" 
d="M2146 268l15 -256q-58 -28 -146 -28q-182 0 -292.5 108.5t-110.5 300.5v338h-416v-731h-289v731h-413v-731h-289v731h-187v275h187v73q0 192 110.5 301t290.5 109q84 0 148 -31l-15 -254q-50 15 -90 15q-65 0 -110 -43t-45 -111v-59h413v73q0 192 111 301t291 109
q81 0 145 -31l-14 -254q-50 15 -88 15q-66 0 -111 -43t-45 -111v-59h416v264h289v-264h247v-275h-247v-323q0 -69 45.5 -111.5t111.5 -42.5q48 0 88 14z" />
    <glyph glyph-name="f_i.dlig" horiz-adv-x="1296" 
d="M1196 1006v-1006h-289v731h-413v-731h-289v731h-187v275h187v73q0 192 110.5 301t290.5 109q84 0 148 -31l-15 -254q-50 15 -90 15q-65 0 -110 -43t-45 -111v-59h702z" />
    <glyph glyph-name="f_l.dlig" horiz-adv-x="1296" 
d="M907 1434h289v-1434h-289v731h-413v-731h-289v731h-187v275h187v73q0 192 110.5 301t290.5 109q84 0 148 -31l-15 -254q-50 15 -90 15q-65 0 -110 -43t-45 -111v-59h413v428z" />
    <glyph glyph-name="f_t.dlig" horiz-adv-x="1515" 
d="M1446 268l12 -256q-58 -28 -145 -28q-181 0 -291.5 109t-110.5 300v338h-417v-731h-289v731h-187v275h187v73q0 192 110.5 301t290.5 109q84 0 148 -31l-15 -254q-50 15 -90 15q-65 0 -110 -43t-45 -111v-59h417v264h289v-264h248v-275h-248v-323q0 -69 45 -111.5
t111 -42.5q50 0 90 14z" />
    <glyph glyph-name="A.sinf" horiz-adv-x="851" 
d="M637 0l-51 137h-324l-51 -137h-205l340 860h156l342 -860h-207zM332 319h184l-92 242z" />
    <glyph glyph-name="B.sinf" horiz-adv-x="724" 
d="M61 0v860h326q112 0 191 -68t79 -161q0 -56 -33 -106.5t-83 -69.5q68 -15 111.5 -73t43.5 -134q0 -105 -80 -176.5t-192 -71.5h-363zM252 530h133q32 0 55 22t23 52q0 31 -23 52.5t-55 21.5h-133v-148zM252 184h162q37 0 62.5 24.5t25.5 61.5q0 36 -25 61t-61 25h-164
v-172z" />
    <glyph glyph-name="C.sinf" horiz-adv-x="882" 
d="M852 229q-31 -106 -137.5 -173.5t-241.5 -67.5q-184 0 -309 128t-125 314t125 314t309 128q133 0 236.5 -64t132.5 -161l-170 -84q-22 55 -75.5 89t-123.5 34q-104 0 -170.5 -72.5t-66.5 -183.5q0 -110 67 -183t170 -73q75 0 129.5 36.5t73.5 98.5z" />
    <glyph glyph-name="D.sinf" horiz-adv-x="813" 
d="M338 860q186 0 311 -121.5t125 -304.5q0 -186 -125 -310t-311 -124h-277v860h277zM352 184q97 0 161.5 71.5t64.5 178.5q0 105 -64 174.5t-162 69.5h-98v-494h98z" />
    <glyph glyph-name="D.ss16.sinf" horiz-adv-x="903" 
d="M426 860q188 0 313 -121.5t125 -304.5q0 -186 -125 -310t-313 -124h-401v174h104v686h297zM440 184q98 0 163 71.5t65 178.5q0 105 -64.5 174.5t-163.5 69.5h-118v-494h118z" />
    <glyph glyph-name="E.sinf" horiz-adv-x="636" 
d="M61 860h531v-182h-338v-146h303v-182h-303v-166h338v-184h-531v860z" />
    <glyph glyph-name="F.sinf" horiz-adv-x="622" 
d="M61 860h531v-182h-338v-170h303v-184h-303v-324h-193v860z" />
    <glyph glyph-name="G.sinf" horiz-adv-x="892" 
d="M434 315v174h406v-329q-59 -78 -154.5 -124t-210.5 -46q-184 0 -310 129.5t-126 314.5t126 311.5t310 126.5q129 0 233 -62.5t134 -162.5l-170 -84q-21 57 -76 90t-121 33q-104 0 -171.5 -71.5t-67.5 -180.5q0 -112 68 -186t171 -74q106 0 172 51v90h-213z" />
    <glyph glyph-name="G.titl.sinf" horiz-adv-x="946" 
d="M922 489v-153h-82v-176q-59 -78 -154.5 -124t-210.5 -46q-184 0 -310 129.5t-126 314.5t126 311.5t310 126.5q129 0 233 -62.5t134 -162.5l-170 -84q-21 57 -76 90t-121 33q-104 0 -171.5 -71.5t-67.5 -180.5q0 -112 68 -186t171 -74q106 0 172 51v111h-190v153h465z" />
    <glyph glyph-name="H.sinf" horiz-adv-x="860" 
d="M606 860h193v-860h-193v352h-352v-352h-193v860h193v-323h352v323z" />
    <glyph glyph-name="I.sinf" horiz-adv-x="313" 
d="M61 860h193v-860h-193v860z" />
    <glyph glyph-name="I.titl.sinf" horiz-adv-x="446" 
d="M403 686h-84v-512h84v-174h-360v174h84v512h-84v174h360v-174z" />
    <glyph glyph-name="J.sinf" horiz-adv-x="460" 
d="M408 860v-629q0 -107 -69 -175t-171 -68q-75 0 -143 24l38 172q37 -12 68 -12q38 0 61 22.5t23 69.5v596h193z" />
    <glyph glyph-name="J.ss17.sinf" horiz-adv-x="493" 
d="M432 852v-852h-407v184h215v668h192z" />
    <glyph glyph-name="J.titl.sinf" horiz-adv-x="485" 
d="M432 860v-174h-78v-455q0 -107 -68.5 -174t-170.5 -67q-59 0 -90 6l10 176h22q53 0 79 27t26 86v401h-88v174h358z" />
    <glyph glyph-name="K.sinf" horiz-adv-x="794" 
d="M782 0h-250l-280 350v-350h-191v860h191v-307l260 307h242l-351 -405z" />
    <glyph glyph-name="L.sinf" horiz-adv-x="673" 
d="M61 860h193v-676h389v-184h-582v860z" />
    <glyph glyph-name="L.ss18.sinf" horiz-adv-x="776" 
d="M356 184h389v-184h-684v174h103v686h192v-676z" />
    <glyph glyph-name="M.sinf" horiz-adv-x="1021" 
d="M61 0v860h211l242 -553l234 553h213v-860h-193v428l-182 -428h-150l-182 428v-428h-193z" />
    <glyph glyph-name="N.sinf" horiz-adv-x="813" 
d="M61 860h162l336 -481v481h193v-860h-160l-338 481v-481h-193v860z" />
    <glyph glyph-name="O.sinf" horiz-adv-x="958" 
d="M479 872q189 0 315 -126.5t126 -315.5t-126 -315.5t-315 -126.5q-188 0 -314 126.5t-126 315.5t126 315.5t314 126.5zM479 686q-103 0 -173 -73.5t-70 -182.5q0 -108 69.5 -182t173.5 -74t173 73.5t69 182.5t-69 182.5t-173 73.5z" />
    <glyph glyph-name="O.ss10.sinf" horiz-adv-x="899" 
d="M838 860v-860h-777v860h777zM254 184h391v492h-391v-492z" />
    <glyph glyph-name="P.sinf" horiz-adv-x="714" 
d="M389 860q128 0 211.5 -78.5t83.5 -199.5q0 -123 -83.5 -203t-211.5 -80h-135v-299h-193v860h328zM389 485q44 0 73.5 28t29.5 69t-30 68.5t-73 27.5h-135v-193h135z" />
    <glyph glyph-name="Q.sinf" horiz-adv-x="958" 
d="M944 0h-211l-35 43q-99 -55 -219 -55q-188 0 -314 126.5t-126 315.5t126 315.5t314 126.5q189 0 315 -126.5t126 -315.5q0 -162 -99 -285zM479 174q48 0 94 19l-170 204h209l78 -94q31 57 31 127q0 109 -69 182.5t-173 73.5q-103 0 -173 -73.5t-70 -182.5
q0 -108 69.5 -182t173.5 -74z" />
    <glyph glyph-name="R.sinf" horiz-adv-x="780" 
d="M760 0h-232l-190 324h-84v-324h-193v860h334q110 0 192.5 -78.5t82.5 -189.5q0 -81 -34.5 -142.5t-98.5 -95.5zM252 676l2 -168h135q37 0 61.5 24.5t24.5 59.5t-24.5 59.5t-61.5 24.5h-137z" />
    <glyph glyph-name="S.sinf" horiz-adv-x="731" 
d="M373 872q81 0 171 -37.5t140 -95.5l-109 -151q-51 47 -109.5 73.5t-109.5 26.5q-42 0 -68 -17.5t-26 -45.5q0 -27 24 -46.5t62 -32t84.5 -24.5t93 -31.5t84.5 -46.5t62 -74.5t24 -111.5q0 -108 -86.5 -189t-232.5 -81q-99 0 -203 48.5t-158 119.5l123 139q56 -59 112 -91
t126 -32q54 0 88.5 23t34.5 61q0 27 -24 46t-62 30.5t-84 22.5t-92 29t-84 44t-62 72.5t-24 109.5q0 111 86.5 186.5t218.5 75.5z" />
    <glyph glyph-name="S.ss12.sinf" horiz-adv-x="675" 
d="M322 860h251v-186h-288q-29 0 -48.5 -15t-19.5 -38q0 -25 23.5 -42t60.5 -28.5t82 -23.5t90 -32t82 -47.5t60.5 -76.5t23.5 -113q0 -110 -77 -184t-222 -74h-289v186h299q43 0 68.5 20t25.5 52q0 28 -23 47t-60 30.5t-81.5 23t-89.5 29.5t-82 43.5t-60 72t-23 108.5
q0 109 83.5 178.5t213.5 69.5z" />
    <glyph glyph-name="T.sinf" horiz-adv-x="739" 
d="M713 860v-182h-246v-678h-193v678h-247v182h686z" />
    <glyph glyph-name="T.titl.sinf" horiz-adv-x="739" 
d="M713 678h-246v-504h82v-174h-359v174h84v504h-247v182h686v-182z" />
    <glyph glyph-name="U.sinf" horiz-adv-x="806" 
d="M403 -10q-148 0 -245 98t-97 246v526h193v-526q0 -67 43 -112.5t106 -45.5q65 0 108.5 45.5t43.5 112.5v526h193v-526q0 -148 -98.5 -246t-246.5 -98z" />
    <glyph glyph-name="V.sinf" horiz-adv-x="817" 
d="M8 860h205l197 -547l196 547h203l-324 -860h-153z" />
    <glyph glyph-name="W.sinf" horiz-adv-x="1245" 
d="M1036 862h201l-285 -862h-153l-176 479l-172 -479h-156l-287 862h205l164 -524l182 524h133l182 -526z" />
    <glyph glyph-name="X.sinf" horiz-adv-x="833" 
d="M823 0h-227l-180 272l-183 -272h-225l295 442l-278 418h229l164 -246l164 246h225l-277 -416z" />
    <glyph glyph-name="Y.sinf" horiz-adv-x="843" 
d="M8 860h234l186 -274l182 274h226l-314 -469v-391h-194v391z" />
    <glyph glyph-name="Y.titl.sinf" horiz-adv-x="843" 
d="M522 362v-188h82v-174h-360v174h84v188l-320 498h234l186 -305l182 305h226z" />
    <glyph glyph-name="Z.sinf" horiz-adv-x="737" 
d="M55 860h641v-133l-393 -543h397v-184h-669v129l395 549h-371v182z" />
    <glyph glyph-name="a.sinf" horiz-adv-x="710" 
d="M469 604h182v-604h-182v45q-22 -25 -64.5 -41t-87.5 -16q-118 0 -200 91.5t-82 221.5q0 131 82 223t200 92q45 0 87 -15.5t65 -41.5v45zM352 162q35 0 67 15.5t50 39.5v170q-17 24 -50.5 39.5t-66.5 15.5q-59 0 -100 -40t-41 -101q0 -58 41 -98.5t100 -40.5z" />
    <glyph glyph-name="a.ss01.sinf" horiz-adv-x="616" 
d="M287 616q128 0 205 -67.5t77 -177.5v-371h-172v55q-22 -32 -67.5 -49.5t-89.5 -17.5q-85 0 -140 53t-55 131q0 93 76.5 147t200.5 54h75v2q0 37 -30.5 60.5t-79.5 23.5q-101 0 -160 -66l-98 105q41 53 113 85.5t145 32.5zM283 141q70 0 114 54v59h-84q-46 0 -71 -15.5
t-25 -43.5q0 -24 18 -39t48 -15z" />
    <glyph glyph-name="a.ss02.sinf" horiz-adv-x="624" 
d="M74 604h491v-604h-182v57q-22 -33 -68.5 -51t-89.5 -18q-86 0 -141 53t-55 131q0 93 76 147t200 54h78v78h-309v153zM266 141q33 0 66 15.5t51 42.5v55h-86q-46 0 -71 -15.5t-25 -43.5q0 -23 18 -38.5t47 -15.5z" />
    <glyph glyph-name="b.sinf" horiz-adv-x="708" 
d="M391 616q119 0 202 -91.5t83 -223.5q0 -129 -83.5 -221t-201.5 -92q-43 0 -86.5 16.5t-64.5 42.5v-47h-181v860h181v-303q22 26 64 42.5t87 16.5zM356 162q60 0 101 40t41 99q0 61 -41 101t-101 40q-34 0 -66.5 -16t-49.5 -41v-166q15 -24 48.5 -40.5t67.5 -16.5z" />
    <glyph glyph-name="c.sinf" horiz-adv-x="659" 
d="M637 164q-34 -80 -112 -128t-175 -48q-135 0 -225 89.5t-90 223.5q0 135 90.5 225t224.5 90q88 0 159.5 -40.5t108.5 -108.5l-153 -88q-39 63 -115 63q-60 0 -99.5 -40.5t-39.5 -100.5q0 -59 39.5 -98t99.5 -39q88 0 125 72z" />
    <glyph glyph-name="c.ss03.sinf" horiz-adv-x="593" 
d="M512 430h-270v-256h270v-174h-453v604h453v-174z" />
    <glyph glyph-name="d.sinf" horiz-adv-x="708" 
d="M469 860h182v-860h-182v45q-22 -25 -64.5 -41t-87.5 -16q-118 0 -200 91.5t-82 221.5q0 131 82 223t200 92q45 0 87 -15.5t65 -41.5v301zM352 162q35 0 67 15.5t50 39.5v170q-17 24 -50.5 39.5t-66.5 15.5q-59 0 -100 -40t-41 -101q0 -58 41 -98.5t100 -40.5z" />
    <glyph glyph-name="e.sinf" horiz-adv-x="673" 
d="M641 328q0 -24 -6 -68h-430q12 -58 52 -88.5t99 -30.5q38 0 74 17t49 43l144 -88q-32 -59 -105 -92t-168 -33q-132 0 -223.5 92t-91.5 225q0 132 90.5 221.5t222.5 89.5q123 0 208 -83.5t85 -204.5zM207 373h252q-4 41 -40 68.5t-81 27.5q-105 0 -131 -96z" />
    <glyph glyph-name="f.sinf" horiz-adv-x="518" 
d="M127 0v430h-115v174h115v31q0 118 70 183t198 65q63 0 119 -27l-29 -168q-38 23 -90 23q-37 0 -61.5 -24.5t-24.5 -63.5v-19h180v-174h-180v-430h-182z" />
    <glyph glyph-name="g.sinf" horiz-adv-x="710" 
d="M469 604h182v-579q0 -125 -84 -191.5t-219 -66.5q-76 0 -153 22.5t-115 60.5l67 127q35 -31 88.5 -46t100.5 -15q55 0 94 31t39 80v36q-21 -24 -64 -39.5t-88 -15.5q-118 0 -200 88.5t-82 216.5q0 125 82 214t200 89q42 0 85.5 -15.5t66.5 -39.5v43zM352 174
q34 0 67 15.5t50 39.5v168q-17 23 -51.5 38.5t-65.5 15.5q-59 0 -100 -40t-41 -98q0 -59 41.5 -99t99.5 -40z" />
    <glyph glyph-name="g.ss04.sinf" horiz-adv-x="700" 
d="M117 -45h344v133q-22 -24 -63.5 -39.5t-86.5 -15.5q-115 0 -195.5 85.5t-80.5 207.5q0 120 81 205t195 85q42 0 85 -15t65 -40v43h182v-801h-526v152zM346 193q34 0 67.5 14.5t47.5 38.5v157q-15 23 -48 38.5t-67 15.5q-59 0 -99 -38t-40 -93q0 -57 40 -95t99 -38z" />
    <glyph glyph-name="h.sinf" horiz-adv-x="704" 
d="M399 616q115 0 180.5 -73.5t65.5 -202.5v-340h-182v319q0 58 -29.5 91.5t-87.5 33.5q-31 0 -60 -13.5t-46 -35.5v-395h-181v860h181v-301q29 24 75.5 40.5t83.5 16.5z" />
    <glyph glyph-name="h.ss05.sinf" horiz-adv-x="684" 
d="M242 860v-256h383v-604h-183v430h-200v-430h-183v860h183z" />
    <glyph glyph-name="i.sinf" horiz-adv-x="301" 
d="M152 901q44 0 77 -33t33 -77t-33.5 -77.5t-76.5 -33.5q-44 0 -77.5 33.5t-33.5 77.5t33.5 77t77.5 33zM59 604h183v-604h-183v604z" />
    <glyph glyph-name="j.sinf" horiz-adv-x="305" 
d="M160 901q44 0 76 -33t32 -77q0 -45 -32 -78t-76 -33t-77.5 33.5t-33.5 77.5t33.5 77t77.5 33zM68 604h182v-620q0 -98 -62.5 -157.5t-169.5 -59.5q-21 0 -63 6l25 161q3 0 10.5 -1t11.5 -1q66 0 66 72v600z" />
    <glyph glyph-name="j.ss06.sinf" horiz-adv-x="301" 
d="M150 901q45 0 77.5 -32.5t32.5 -77.5q0 -44 -33 -77.5t-77 -33.5t-76.5 33.5t-32.5 77.5t32.5 77t76.5 33zM242 604v-801h-183v801h183z" />
    <glyph glyph-name="k.sinf" horiz-adv-x="694" 
d="M686 0h-235l-211 281v-281h-181v860h181v-516l202 260h224l-236 -293z" />
    <glyph glyph-name="l.sinf" horiz-adv-x="299" 
d="M240 860v-860h-181v860h181z" />
    <glyph glyph-name="l.ss07.sinf" horiz-adv-x="356" 
d="M242 860v-686h90v-174h-273v860h183z" />
    <glyph glyph-name="m.sinf" horiz-adv-x="1048" 
d="M737 616q115 0 183.5 -65.5t68.5 -173.5v-377h-180v338q0 51 -25 81t-69 30q-58 0 -101 -43q2 -2 2 -7v-399h-180v338q0 51 -26 81t-70 30q-64 0 -98 -43v-406h-183v604h183v-45q64 57 151 57q112 0 164 -61q78 61 180 61z" />
    <glyph glyph-name="m.ss08.sinf" horiz-adv-x="1034" 
d="M977 604v-604h-182v430h-187v-430h-182v430h-184v-430h-183v604h918z" />
    <glyph glyph-name="n.sinf" horiz-adv-x="706" 
d="M401 616q114 0 180 -73.5t66 -202.5v-340h-182v319q0 60 -31 92.5t-88 32.5q-30 0 -58.5 -13t-45.5 -34v-397h-183v604h183v-43q30 24 75.5 39.5t83.5 15.5z" />
    <glyph glyph-name="n.ss09.sinf" horiz-adv-x="684" 
d="M625 604v-604h-183v430h-200v-430h-183v604h566z" />
    <glyph glyph-name="o.sinf" horiz-adv-x="692" 
d="M346 616q132 0 222.5 -90t90.5 -225q0 -133 -89.5 -223t-223.5 -90t-222.5 89t-88.5 224t89 225t222 90zM346 442q-57 0 -96 -40t-39 -101q0 -58 39 -97.5t96 -39.5q58 0 96.5 39t38.5 98q0 60 -38.5 100.5t-96.5 40.5z" />
    <glyph glyph-name="o.ss10.sinf" horiz-adv-x="681" 
d="M623 604v-604h-564v604h564zM440 430h-200v-256h200v256z" />
    <glyph glyph-name="p.sinf" horiz-adv-x="708" 
d="M391 616q119 0 202 -91.5t83 -223.5q0 -129 -83.5 -221t-201.5 -92q-43 0 -85.5 16.5t-65.5 42.5v-244h-181v801h181v-47q22 26 63.5 42.5t87.5 16.5zM356 162q60 0 101 40t41 99q0 60 -41 100.5t-101 40.5q-35 0 -68 -15.5t-48 -39.5v-166q17 -26 50 -42.5t66 -16.5z
" />
    <glyph glyph-name="q.sinf" horiz-adv-x="708" 
d="M469 604h182v-801h-182v242q-24 -25 -65.5 -41t-86.5 -16q-118 0 -200 91.5t-82 221.5q0 131 82 223t200 92q45 0 88 -15.5t64 -41.5v45zM352 162q33 0 66.5 15.5t50.5 41.5v170q-17 24 -49.5 38.5t-67.5 14.5q-59 0 -100 -40t-41 -101q0 -58 41 -98.5t100 -40.5z" />
    <glyph glyph-name="r.sinf" horiz-adv-x="481" 
d="M369 616q60 0 96 -18l-23 -168q-37 12 -90 12q-69 0 -110 -47v-395h-183v604h183v-53q21 30 56.5 47.5t70.5 17.5z" />
    <glyph glyph-name="r.ss11.sinf" horiz-adv-x="483" 
d="M436 604v-174h-196v-430h-181v604h377z" />
    <glyph glyph-name="s.sinf" horiz-adv-x="581" 
d="M311 -12q-78 0 -157 23.5t-125 62.5l61 127q34 -32 95 -53t112 -21q38 0 60 12.5t22 34.5t-33 35.5t-80 24t-94.5 27t-81.5 55.5t-35 98q-2 87 67.5 144.5t176.5 57.5q155 0 244 -69l-62 -131q-39 28 -96.5 44.5t-93.5 16.5q-30 0 -48 -12t-18 -31q0 -18 24 -31t60 -20.5
t78 -21t78.5 -31t61 -52t24.5 -81.5q1 -99 -66 -154t-174 -55z" />
    <glyph glyph-name="s.ss12.sinf" horiz-adv-x="544" 
d="M295 0h-244v137h246q22 0 36.5 11.5t14.5 29.5q0 19 -33 31.5t-80 24t-94.5 28.5t-80.5 55.5t-33 94.5q0 91 64.5 141.5t180.5 50.5h217v-137h-235q-45 0 -45 -35q0 -18 23 -31.5t57.5 -21t75 -21.5t75 -32t57.5 -54t23 -86q0 -85 -59 -135.5t-166 -50.5z" />
    <glyph glyph-name="t.sinf" horiz-adv-x="528" 
d="M391 -12q-125 0 -195.5 65t-70.5 183v194h-117v174h117l2 158h182l-2 -158h178v-174h-178v-184q0 -39 24 -62.5t60 -23.5q51 0 90 22l29 -168q-50 -26 -119 -26z" />
    <glyph glyph-name="t.ss13.sinf" horiz-adv-x="468" 
d="M446 604v-174h-122v-430h-183v430h-123v174h123v156h183v-156h122z" />
    <glyph glyph-name="u.sinf" horiz-adv-x="706" 
d="M465 604h182v-604h-182v47q-29 -26 -74.5 -42.5t-85.5 -16.5q-114 0 -180 73.5t-66 202.5v340h183v-319q0 -57 29.5 -91t88.5 -34q32 0 61 13.5t44 35.5v395z" />
    <glyph glyph-name="u.ss14.sinf" horiz-adv-x="704" 
d="M641 604v-323q0 -129 -81.5 -211t-207.5 -82t-207.5 82.5t-81.5 210.5v323h181v-323q0 -53 30 -85t78 -32t78.5 32t30.5 85v323h180z" />
    <glyph glyph-name="u.ss15.sinf" horiz-adv-x="684" 
d="M625 0h-566v604h183v-430h200v430h183v-604z" />
    <glyph glyph-name="v.sinf" horiz-adv-x="663" 
d="M655 604l-252 -604h-143l-252 604h197l129 -356l127 356h194z" />
    <glyph glyph-name="w.sinf" horiz-adv-x="968" 
d="M225 0l-217 604h197l94 -317l113 317h145l115 -317l94 317h195l-216 -604h-145l-115 317l-118 -317h-142z" />
    <glyph glyph-name="x.sinf" horiz-adv-x="710" 
d="M698 0h-227l-117 158l-116 -158h-226l230 307l-222 297h226l108 -145l109 147h225l-221 -297z" />
    <glyph glyph-name="y.sinf" horiz-adv-x="663" 
d="M461 604h194l-333 -801h-197l113 250l-230 551h197l127 -338z" />
    <glyph glyph-name="z.sinf" horiz-adv-x="622" 
d="M575 604v-131l-270 -297h275v-176h-553v129l272 301h-250v174h526z" />
    <glyph glyph-name="zero.cv01" horiz-adv-x="1198" 
d="M608 1452q249 0 387 -163t138 -458v-229q0 -295 -138 -457.5t-387 -162.5h-18q-250 0 -387 162.5t-137 457.5v229q0 295 137 458t387 163h18zM590 1157q-219 0 -219 -311v-258q0 -155 55.5 -233.5t163.5 -78.5h18q219 0 219 312v258q0 311 -219 311h-18z" />
    <glyph glyph-name="zero.sinf" horiz-adv-x="753" 
d="M377 -10q-158 0 -249 120.5t-91 319.5t91 319.5t249 120.5q157 0 248.5 -120.5t91.5 -319.5t-91.5 -319.5t-248.5 -120.5zM377 176q141 0 141 254t-141 254q-144 0 -144 -254t144 -254z" />
    <glyph glyph-name="zero.sinf.cv01" horiz-adv-x="718" 
d="M367 870q149 0 231 -97.5t82 -274.5v-136q0 -177 -82 -274.5t-231 -97.5h-13q-151 0 -234 97.5t-83 274.5v136q0 177 83 274.5t234 97.5h13zM354 684q-125 0 -125 -176v-156q0 -176 125 -176h13q122 0 122 176v156q0 176 -122 176h-13z" />
    <glyph glyph-name="zero.sinf.tf" horiz-adv-x="737" 
d="M369 -10q-158 0 -249 120.5t-91 319.5t91 319.5t249 120.5t249 -120.5t91 -319.5t-91 -319.5t-249 -120.5zM369 176q141 0 141 254t-141 254q-68 0 -106 -63t-38 -191t38 -191t106 -63z" />
    <glyph glyph-name="zero.sinf.tf.cv01" horiz-adv-x="737" 
d="M367 870q149 0 231 -97.5t82 -274.5v-136q0 -177 -82 -274.5t-231 -97.5h-13q-151 0 -234 97.5t-83 274.5v136q0 177 83 274.5t234 97.5h13zM354 684q-125 0 -125 -176v-156q0 -176 125 -176h13q122 0 122 176v156q0 176 -122 176h-13z" />
    <glyph glyph-name="zero.sinf.tf.zero" horiz-adv-x="737" 
d="M369 872q158 0 249 -121t91 -321t-91 -321t-249 -121t-249 121.5t-91 320.5t91 320.5t249 121.5zM369 686q-68 0 -106 -64t-38 -192q0 -43 2 -63l232 276q-34 43 -90 43zM369 174q141 0 141 256q0 41 -2 59l-229 -274q35 -41 90 -41z" />
    <glyph glyph-name="zero.sinf.zero" horiz-adv-x="753" 
d="M377 872q157 0 248.5 -121t91.5 -321t-91.5 -321t-248.5 -121q-158 0 -249 121.5t-91 320.5t91 320.5t249 121.5zM377 686q-144 0 -144 -256q0 -33 3 -63l231 276q-34 43 -90 43zM377 174q141 0 141 256q0 44 -2 62l-231 -277q38 -41 92 -41z" />
    <glyph glyph-name="zero.tf" horiz-adv-x="1257" 
d="M629 -18q-261 0 -411 201t-150 536q0 220 66 386t194 258.5t301 92.5t301 -92.5t194 -258.5t66 -386q0 -335 -150 -536t-411 -201zM629 276q120 0 184 110t64 333t-64 332.5t-184 109.5t-185 -110t-65 -332t65 -332.5t185 -110.5z" />
    <glyph glyph-name="zero.tf.cv01" horiz-adv-x="1257" 
d="M639 1452q249 0 386.5 -163t137.5 -458v-229q0 -295 -137.5 -457.5t-386.5 -162.5h-18q-250 0 -387.5 162.5t-137.5 457.5v229q0 295 137.5 458t387.5 163h18zM621 1157q-220 0 -220 -311v-258q0 -154 56 -233t164 -79h18q219 0 219 312v258q0 311 -219 311h-18z" />
    <glyph glyph-name="zero.tf.zero" horiz-adv-x="1257" 
d="M629 1454q261 0 411 -201t150 -536q0 -220 -66 -386t-194 -258.5t-301 -92.5t-301 92.5t-194 258.5t-66 386q0 335 150 536t411 201zM629 1159q-120 0 -185 -110t-65 -332q0 -67 6 -123l408 485q-62 80 -164 80zM629 274q120 0 184 110t64 333q0 56 -7 121l-405 -484
q62 -80 164 -80z" />
    <glyph glyph-name="zero.zero" horiz-adv-x="1251" 
d="M625 1454q262 0 411.5 -200.5t149.5 -536.5q0 -220 -66 -386t-193.5 -258.5t-301.5 -92.5q-173 0 -300.5 92.5t-193 258.5t-65.5 386q0 221 66 387t193 258t300 92zM625 1159q-119 0 -183.5 -110t-64.5 -332q0 -67 6 -123l405 485q-62 80 -163 80zM625 274
q120 0 184.5 110t64.5 333q0 67 -6 123l-405 -486q62 -80 162 -80z" />
    <glyph glyph-name="one.sinf" horiz-adv-x="430" 
d="M369 860v-860h-193v608l-158 -92v217l222 127h129z" />
    <glyph glyph-name="one.sinf.tf" horiz-adv-x="737" 
d="M494 186h192v-186h-586v186h201v422l-158 -92v217l222 127h129v-674z" />
    <glyph glyph-name="one.tf" horiz-adv-x="1257" 
d="M803 291h327v-291h-997v291h367v727l-318 -246v363l416 299h205v-1143z" />
    <glyph glyph-name="two.cv01" horiz-adv-x="1105" 
d="M47 0v158q0 87 24 162t61 131t99.5 112t121.5 95.5t145 89.5q131 78 181 130.5t50 122.5t-51 118t-133 48q-103 0 -160 -70.5t-55 -189.5l-293 35q2 150 70.5 267t186 181t263.5 64q208 0 340.5 -125.5t132.5 -318.5q0 -145 -92 -254.5t-303 -225.5q-141 -85 -196.5 -133
t-55.5 -102h649v-295h-985z" />
    <glyph glyph-name="two.sinf" horiz-adv-x="681" 
d="M37 0v137l270 264q48 46 63.5 61.5t37 42t27 44.5t5.5 43q0 40 -30 67t-74 27q-60 0 -95 -42t-26 -114l-195 15q-4 140 88.5 233.5t225.5 93.5q131 0 217 -78t86 -198q0 -84 -49 -157.5t-146 -157.5l-90 -95h287v-186h-602z" />
    <glyph glyph-name="two.sinf.cv01" horiz-adv-x="667" 
d="M29 0v113q0 33 10 65.5t23 57.5t39.5 53.5t45 46t54.5 43.5t53.5 37.5t56.5 35.5t49 31q72 49 72 117q0 37 -29.5 63.5t-74.5 26.5q-59 0 -91.5 -40.5t-31.5 -110.5l-182 22q0 137 90 224t223 87q123 0 205 -78.5t82 -189.5q0 -172 -209 -289q-68 -40 -100.5 -70.5
t-32.5 -58.5h344v-186h-596z" />
    <glyph glyph-name="two.sinf.tf" horiz-adv-x="737" 
d="M96 0v137l271 264q86 85 104 108q29 39 29 83q0 40 -30.5 67t-74.5 27q-62 0 -96.5 -42t-24.5 -114l-194 15q-4 140 88 233.5t225 93.5q131 0 217 -78t86 -198q0 -83 -49 -156.5t-145 -158.5l-92 -95h286v-186h-600z" />
    <glyph glyph-name="two.sinf.tf.cv01" horiz-adv-x="737" 
d="M86 0v113q0 33 10 65.5t24 57.5t40 53.5t45.5 46.5t54.5 43t54 37.5t56.5 35.5t49.5 31q72 49 72 117q0 37 -30 63.5t-75 26.5q-59 0 -91.5 -40.5t-31.5 -110.5l-184 22q1 138 91 224.5t224 86.5q122 0 204.5 -79t82.5 -189q0 -172 -209 -289q-68 -40 -100.5 -70.5
t-32.5 -58.5h342v-186h-596z" />
    <glyph glyph-name="two.tf" horiz-adv-x="1257" 
d="M172 0v217l461 451q126 122 158 161q63 83 65 162q0 72 -54 120t-136 48q-106 0 -163.5 -67.5t-56.5 -188.5l-296 15q-4 152 65.5 275.5t189 192t263.5 68.5q216 0 357.5 -128.5t141.5 -326.5q0 -72 -22 -139.5t-67.5 -132.5t-98.5 -123t-131 -129l-180 -180h503v-295
h-999z" />
    <glyph glyph-name="two.tf.cv01" horiz-adv-x="1257" 
d="M162 0v158q0 87 24 162t61 131t99 112t121 95.5t145 89.5q132 78 182 131t50 122q0 70 -51.5 118t-133.5 48q-103 0 -160 -70.5t-57 -189.5l-290 35q2 150 70.5 267t186 181t263.5 64q208 0 340.5 -125.5t132.5 -318.5q0 -145 -92.5 -254t-302.5 -226
q-141 -85 -196.5 -133t-55.5 -102h647v-295h-983z" />
    <glyph glyph-name="three.cv01" horiz-adv-x="1087" 
d="M836 750q91 -45 146.5 -130.5t55.5 -187.5q0 -201 -139 -325.5t-364 -124.5q-212 0 -360 137t-148 338l292 28q9 -97 67 -154t149 -57q89 0 142.5 47t53.5 123q0 71 -52 113.5t-138 42.5h-117v268h94q73 0 118.5 41t45.5 109q0 59 -43 98t-109 39q-79 0 -124.5 -44.5
t-53.5 -127.5l-284 33q-8 119 56.5 220t175 157.5t237.5 56.5q185 0 318.5 -122.5t133.5 -293.5q0 -91 -39.5 -165.5t-113.5 -118.5z" />
    <glyph glyph-name="three.sinf" horiz-adv-x="681" 
d="M186 510l154 168h-299v182h577v-125l-194 -192q95 -5 160 -78.5t65 -177.5q0 -130 -89.5 -214.5t-227.5 -84.5q-126 0 -214 71.5t-102 180.5l174 57q7 -53 48 -88t94 -35t87 33t34 84q0 48 -33 79.5t-79 34t-95 -17.5z" />
    <glyph glyph-name="three.sinf.cv01" horiz-adv-x="675" 
d="M324 -10q-129 0 -220 83.5t-88 205.5l181 18q5 -56 40.5 -92.5t86.5 -36.5q49 0 81.5 30t32.5 74q0 41 -34.5 69t-86.5 28h-38v149h30q43 0 71 25t28 63q0 35 -26.5 59.5t-66.5 24.5q-45 0 -73 -28.5t-31 -77.5l-172 20q-7 110 79 188t206 78q111 0 192.5 -74t81.5 -178
q0 -55 -34 -102.5t-85 -60.5q61 -15 105.5 -73.5t44.5 -125.5q0 -121 -84.5 -193.5t-220.5 -72.5z" />
    <glyph glyph-name="three.sinf.tf" horiz-adv-x="737" 
d="M229 510l154 168h-299v182h580v-125l-197 -192q96 -4 160.5 -77.5t64.5 -178.5q0 -130 -89.5 -214.5t-227.5 -84.5q-125 0 -213.5 72t-102.5 180l174 57q9 -54 49 -88.5t93 -34.5t87 33t34 84q0 48 -33 79.5t-78.5 34t-93.5 -17.5z" />
    <glyph glyph-name="three.sinf.tf.cv01" horiz-adv-x="737" 
d="M367 -10q-129 0 -219 83.5t-89 205.5l181 18q5 -56 40.5 -92.5t86.5 -36.5q49 0 81.5 30t32.5 74q0 41 -34 69t-85 28h-40v149h30q43 0 71 25t28 63q0 35 -26.5 59.5t-66.5 24.5q-45 0 -73 -28.5t-31 -77.5l-170 20q-9 110 77 188t206 78q113 0 193.5 -74t80.5 -178
q0 -54 -34 -102t-83 -61q59 -15 103.5 -73.5t44.5 -125.5q0 -121 -84.5 -193.5t-220.5 -72.5z" />
    <glyph glyph-name="three.tf" horiz-adv-x="1257" 
d="M395 846l273 297h-516v291h958v-199l-338 -336q163 -5 274 -126.5t111 -299.5q0 -216 -148.5 -354.5t-379.5 -138.5q-202 0 -348 115.5t-172 297.5l274 92q17 -92 86 -151.5t160 -59.5q95 0 156 58t61 149q0 62 -33 109t-84 68.5t-114.5 20t-122.5 -29.5z" />
    <glyph glyph-name="three.tf.cv01" horiz-adv-x="1257" 
d="M932 750q92 -45 148.5 -130.5t56.5 -187.5q0 -201 -140 -325.5t-364 -124.5q-214 0 -361.5 137t-146.5 338l291 28q9 -97 67 -154t150 -57q88 0 141 47t53 123q0 71 -52 113.5t-138 42.5h-117v268h94q73 0 118.5 41t45.5 109q0 59 -42 98t-109 39q-79 0 -124.5 -44.5
t-53.5 -127.5l-283 33q-8 120 56 220.5t174 157t237 56.5q185 0 318.5 -122.5t133.5 -293.5q0 -91 -39 -166t-114 -118z" />
    <glyph glyph-name="four.cv01" horiz-adv-x="1308" 
d="M1266 541v-283h-152v-258h-305v258h-768v207l668 969h405v-893h152zM420 541h389v561z" />
    <glyph glyph-name="four.sinf" horiz-adv-x="749" 
d="M725 352v-176h-88v-176h-193v176h-419v117l297 567h217l-267 -508h172v191h193v-191h88z" />
    <glyph glyph-name="four.sinf.cv01" horiz-adv-x="825" 
d="M782 332v-178h-88v-154h-190v154h-463v118l397 588h256v-528h88zM268 332h236v338z" />
    <glyph glyph-name="four.sinf.tf" horiz-adv-x="737" 
d="M733 352v-176h-88v-176h-192v176h-420v117l297 567h217l-266 -508h172v191h192v-191h88z" />
    <glyph glyph-name="four.sinf.tf.cv01" horiz-adv-x="737" 
d="M782 332v-178h-88v-154h-190v154h-463v118l397 588h256v-528h88zM268 332h236v338z" />
    <glyph glyph-name="four.tf" horiz-adv-x="1257" 
d="M1217 578v-283h-152v-295h-305v295h-703v188l500 951h342l-450 -856h311v329h305v-329h152z" />
    <glyph glyph-name="four.tf.cv01" horiz-adv-x="1257" 
d="M1327 541v-283h-151v-258h-304v258h-768v207l668 969h404v-893h151zM483 541h389v561z" />
    <glyph glyph-name="five.sinf" horiz-adv-x="677" 
d="M332 -12q-123 0 -214 71.5t-106 180.5l176 55q13 -54 54 -87.5t90 -33.5q50 0 85.5 35.5t35.5 83.5q0 53 -34.5 88t-86.5 35q-75 0 -113 -47l-166 32l37 459h502v-172h-328l-16 -145q37 30 112 30q127 0 207 -76t80 -208q0 -126 -91.5 -213.5t-223.5 -87.5z" />
    <glyph glyph-name="five.sinf.tf" horiz-adv-x="737" 
d="M393 -12q-124 0 -215 71.5t-106 180.5l176 55q13 -55 54 -88t91 -33t84.5 35.5t34.5 83.5q0 54 -34 88.5t-85 34.5q-74 0 -112 -47l-168 32l37 459h501v-172h-327l-17 -145q41 30 113 30q128 0 208.5 -76t80.5 -208q0 -126 -92.5 -213.5t-223.5 -87.5z" />
    <glyph glyph-name="five.tf" horiz-adv-x="1257" 
d="M643 -20q-203 0 -352.5 116.5t-177.5 296.5l278 88q23 -93 93.5 -150t158.5 -57q89 0 149 61.5t60 149.5q0 93 -59.5 153t-149.5 60q-129 0 -197 -77l-264 51l62 762h825v-287h-553l-24 -256q34 26 88.5 42.5t105.5 16.5q211 0 344 -127t133 -346q0 -102 -41 -194
t-110.5 -158.5t-166 -105.5t-202.5 -39z" />
    <glyph glyph-name="six.sinf" horiz-adv-x="671" 
d="M369 578q118 0 198 -81t80 -206q0 -123 -92 -213t-219 -90t-218 90t-91 213q0 103 67 207l223 362h220l-179 -282h11zM336 172q53 0 89 35t36 86t-37 87t-88 36q-50 0 -88 -15q-35 -59 -35 -108q0 -51 35.5 -86t87.5 -35z" />
    <glyph glyph-name="six.sinf.tf" horiz-adv-x="737" 
d="M412 578q117 0 196.5 -81t79.5 -206q0 -123 -91.5 -213t-217.5 -90q-128 0 -219.5 89.5t-91.5 213.5q0 99 67 207l225 362h220l-181 -282h13zM379 172q52 0 87.5 35t35.5 86t-36.5 87t-88.5 36q-45 0 -88 -17q-33 -61 -33 -106q0 -51 35.5 -86t87.5 -35z" />
    <glyph glyph-name="six.tf" horiz-adv-x="1257" 
d="M690 958q196 0 329.5 -135t133.5 -342q0 -135 -69.5 -250.5t-188 -183t-256.5 -67.5q-139 0 -257.5 67.5t-187.5 183t-69 250.5q0 75 28.5 166.5t84.5 181.5l376 605h347l-302 -478q10 2 31 2zM639 268q93 0 156 62.5t63 152.5t-65 153.5t-156 63.5q-86 0 -156 -26
q-59 -106 -59 -191q0 -90 62.5 -152.5t154.5 -62.5z" />
    <glyph glyph-name="seven.cv01" horiz-adv-x="1181" 
d="M1141 1434v-203l-598 -1231h-338l557 1141h-418v-213h-305v506h1102z" />
    <glyph glyph-name="seven.sinf" horiz-adv-x="647" 
d="M18 860h605v-129l-351 -731h-213l328 676h-369v184z" />
    <glyph glyph-name="seven.sinf.cv01" horiz-adv-x="714" 
d="M690 860v-129l-354 -731h-213l328 676h-236v-127h-192v311h667z" />
    <glyph glyph-name="seven.sinf.tf" horiz-adv-x="737" 
d="M80 860h604v-129l-350 -731h-213l325 676h-366v184z" />
    <glyph glyph-name="seven.sinf.tf.cv01" horiz-adv-x="737" 
d="M690 860v-129l-354 -731h-213l328 676h-236v-127h-192v311h667z" />
    <glyph glyph-name="seven.tf" horiz-adv-x="1257" 
d="M129 1434h1001v-203l-585 -1231h-340l551 1141h-627v293z" />
    <glyph glyph-name="seven.tf.cv01" horiz-adv-x="1257" 
d="M1186 1434v-203l-596 -1231h-340l557 1141h-418v-213h-305v506h1102z" />
    <glyph glyph-name="eight.sinf" horiz-adv-x="665" 
d="M334 -10q-133 0 -219 74t-86 188q0 65 36.5 122t100.5 91q-48 27 -77.5 73.5t-29.5 98.5q0 101 77.5 166t197.5 65q119 0 195.5 -65t76.5 -166q0 -49 -28.5 -97t-77.5 -75q62 -30 99.5 -87.5t37.5 -125.5q0 -114 -85.5 -188t-217.5 -74zM334 551q42 0 69 22t27 56
q0 35 -26.5 57.5t-69.5 22.5q-44 0 -71 -22.5t-27 -57.5q0 -34 27 -56t71 -22zM334 168q53 0 88 29t35 73q0 46 -35 75.5t-88 29.5q-55 0 -89 -29.5t-34 -75.5q0 -43 35 -72.5t88 -29.5z" />
    <glyph glyph-name="eight.sinf.tf" horiz-adv-x="737" 
d="M379 -10q-133 0 -219 74t-86 188q0 65 37 122.5t102 90.5q-48 27 -78.5 73.5t-30.5 98.5q0 101 77.5 166t197.5 65q119 0 195.5 -65t76.5 -166q0 -49 -28.5 -97t-77.5 -75q62 -30 99.5 -87.5t37.5 -125.5q0 -114 -85.5 -188t-217.5 -74zM379 551q42 0 69 22t27 56
q0 35 -26.5 57.5t-69.5 22.5t-70.5 -22.5t-27.5 -57.5q0 -34 27.5 -56t70.5 -22zM379 168q53 0 88 29t35 73q0 46 -35 75.5t-88 29.5q-54 0 -88.5 -29.5t-34.5 -75.5q0 -43 35 -72.5t88 -29.5z" />
    <glyph glyph-name="eight.tf" horiz-adv-x="1257" 
d="M631 -16q-221 0 -363.5 121.5t-142.5 310.5q0 113 64 210t171 148q-82 43 -132 123t-50 166q0 169 127.5 277t325.5 108q196 0 323 -108.5t127 -276.5q0 -88 -50.5 -168t-133.5 -121q107 -48 171.5 -144.5t64.5 -213.5q0 -189 -141 -310.5t-361 -121.5zM631 895
q77 0 125 41.5t47 107.5q1 66 -47 108t-125 42t-126 -42t-48 -108q-1 -66 48 -107.5t126 -41.5zM631 252q94 0 154.5 53t60.5 137q0 83 -60.5 137t-154.5 54q-95 0 -156 -54t-61 -137q0 -84 60.5 -137t156.5 -53z" />
    <glyph glyph-name="nine.sinf" horiz-adv-x="653" 
d="M322 872q128 0 219.5 -89.5t91.5 -213.5q0 -97 -68 -207l-225 -362h-219l180 285h-12q-118 0 -197.5 80.5t-79.5 203.5q0 125 91.5 214t218.5 89zM197 569q0 -52 37.5 -87.5t89.5 -35.5q37 0 88 15q32 59 32 108q0 51 -35 86t-87 35q-53 0 -89 -35t-36 -86z" />
    <glyph glyph-name="nine.sinf.tf" horiz-adv-x="737" 
d="M358 872q129 0 220.5 -89t91.5 -214q0 -97 -68 -207l-225 -362h-219l180 285h-10q-118 0 -198.5 80.5t-80.5 203.5q0 124 91.5 213.5t217.5 89.5zM236 569q0 -52 36.5 -87.5t87.5 -35.5q42 0 89 15q32 59 32 108q0 51 -35.5 86t-87.5 35q-51 0 -86.5 -35t-35.5 -86z" />
    <glyph glyph-name="nine.tf" horiz-adv-x="1257" 
d="M645 1454q139 0 257.5 -68t187.5 -183.5t69 -250.5q0 -167 -112 -346l-375 -606h-348l303 479q-10 -2 -33 -2q-127 0 -232.5 60t-167 169t-61.5 246q0 135 69 250.5t187 183.5t256 68zM803 760q59 106 59 190q0 90 -62.5 152.5t-154.5 62.5q-93 0 -156 -62.5t-63 -152.5
t65 -153.5t156 -63.5q83 0 156 27z" />
    <glyph glyph-name="zero.dnom" horiz-adv-x="753" 
d="M377 -10q-158 0 -249 120.5t-91 319.5t91 319.5t249 120.5q157 0 248.5 -120.5t91.5 -319.5t-91.5 -319.5t-248.5 -120.5zM377 176q141 0 141 254t-141 254q-144 0 -144 -254t144 -254z" />
    <glyph glyph-name="zero.dnom.cv01" horiz-adv-x="718" 
d="M367 870q149 0 231 -97.5t82 -274.5v-136q0 -177 -82 -274.5t-231 -97.5h-13q-151 0 -234 97.5t-83 274.5v136q0 177 83 274.5t234 97.5h13zM354 684q-125 0 -125 -176v-156q0 -176 125 -176h13q122 0 122 176v156q0 176 -122 176h-13z" />
    <glyph glyph-name="zero.dnom.zero" horiz-adv-x="753" 
d="M377 872q157 0 248.5 -121t91.5 -321t-91.5 -321t-248.5 -121q-158 0 -249 121.5t-91 320.5t91 320.5t249 121.5zM377 686q-144 0 -144 -256q0 -33 3 -63l231 276q-34 43 -90 43zM377 174q141 0 141 256q0 44 -2 62l-231 -277q38 -41 92 -41z" />
    <glyph glyph-name="one.dnom" horiz-adv-x="454" 
d="M369 860v-860h-193v608l-158 -92v217l222 127h129z" />
    <glyph glyph-name="two.dnom" horiz-adv-x="653" 
d="M37 0v137l270 264q48 46 63.5 61.5t37 42t27 44.5t5.5 43q0 40 -30 67t-74 27q-60 0 -95 -42t-26 -114l-195 15q-4 140 88.5 233.5t225.5 93.5q131 0 217 -78t86 -198q0 -84 -49 -157.5t-146 -157.5l-90 -95h287v-186h-602z" />
    <glyph glyph-name="two.dnom.cv01" horiz-adv-x="667" 
d="M29 0v113q0 33 10 65.5t23 57.5t39.5 53.5t45 46t54.5 43.5t53.5 37.5t56.5 35.5t49 31q72 49 72 117q0 37 -29.5 63.5t-74.5 26.5q-59 0 -91.5 -40.5t-31.5 -110.5l-182 22q0 137 90 224t223 87q123 0 205 -78.5t82 -189.5q0 -172 -209 -289q-68 -40 -100.5 -70.5
t-32.5 -58.5h344v-186h-596z" />
    <glyph glyph-name="three.dnom" horiz-adv-x="681" 
d="M186 510l154 168h-299v182h577v-125l-194 -192q95 -5 160 -78.5t65 -177.5q0 -130 -89.5 -214.5t-227.5 -84.5q-126 0 -214 71.5t-102 180.5l174 57q7 -53 48 -88t94 -35t87 33t34 84q0 48 -33 79.5t-79 34t-95 -17.5z" />
    <glyph glyph-name="three.dnom.cv01" horiz-adv-x="675" 
d="M324 -10q-129 0 -220 83.5t-88 205.5l181 18q5 -56 40.5 -92.5t86.5 -36.5q49 0 81.5 30t32.5 74q0 41 -34.5 69t-86.5 28h-38v149h30q43 0 71 25t28 63q0 35 -26.5 59.5t-66.5 24.5q-45 0 -73 -28.5t-31 -77.5l-172 20q-7 110 79 188t206 78q111 0 192.5 -74t81.5 -178
q0 -55 -34 -102.5t-85 -60.5q61 -15 105.5 -73.5t44.5 -125.5q0 -121 -84.5 -193.5t-220.5 -72.5z" />
    <glyph glyph-name="four.dnom" horiz-adv-x="749" 
d="M725 352v-176h-88v-176h-193v176h-419v117l297 567h217l-267 -508h172v191h193v-191h88z" />
    <glyph glyph-name="four.dnom.cv01" horiz-adv-x="825" 
d="M782 332v-178h-88v-154h-190v154h-463v118l397 588h256v-528h88zM268 332h236v338z" />
    <glyph glyph-name="five.dnom" horiz-adv-x="669" 
d="M332 -12q-123 0 -214 71.5t-106 180.5l176 55q13 -54 54 -87.5t90 -33.5q50 0 85.5 35.5t35.5 83.5q0 53 -34.5 88t-86.5 35q-75 0 -113 -47l-166 32l37 459h502v-172h-328l-16 -145q37 30 112 30q127 0 207 -76t80 -208q0 -126 -91.5 -213.5t-223.5 -87.5z" />
    </font>
</defs>
</svg>
